<svg id="Layer_1" data-name="Layer 1" xmlns="http://www.w3.org/2000/svg" viewBox="0 0 376.51 1733.67"><defs><style>.cls-1{font-size:15px;}.cls-1,.cls-15{fill:#546682;font-family:AvenirNext-Regular, Avenir Next;}.cls-2{letter-spacing:-0.02em;}.cls-3{letter-spacing:-0.01em;}.cls-4{letter-spacing:-0.04em;}.cls-5{letter-spacing:-0.01em;}.cls-6{letter-spacing:-0.03em;}.cls-7{letter-spacing:-0.01em;}.cls-8,.cls-9{fill:#42b2ee;}.cls-9{font-size:12px;font-family:AvenirNext-Medium, Avenir Next;}.cls-10{letter-spacing:-0.01em;}.cls-11{letter-spacing:0em;}.cls-12{letter-spacing:-0.01em;}.cls-13{letter-spacing:-0.02em;}.cls-14{fill:none;stroke:#42b2ee;stroke-miterlimit:10;}.cls-15{font-size:18px;}.cls-16{letter-spacing:-0.02em;}.cls-17{letter-spacing:-0.02em;}.cls-18{letter-spacing:-0.05em;}.cls-19{letter-spacing:-0.03em;}.cls-20{letter-spacing:-0.02em;}.cls-21{letter-spacing:-0.02em;}.cls-22{letter-spacing:-0.09em;}.cls-23{letter-spacing:-0.01em;}.cls-24{letter-spacing:-0.03em;}.cls-25{letter-spacing:-0.01em;}.cls-26{letter-spacing:-0.05em;}.cls-27{letter-spacing:0.02em;}.cls-28{letter-spacing:-0.01em;}.cls-29{letter-spacing:-0.01em;}.cls-30{letter-spacing:-0.01em;}.cls-31{letter-spacing:0.02em;}.cls-32{letter-spacing:-0.02em;}.cls-33{letter-spacing:-0.05em;}.cls-34{letter-spacing:-0.1em;}.cls-35{letter-spacing:-0.1em;}.cls-36{letter-spacing:-0.01em;}.cls-37{letter-spacing:-0.09em;}.cls-38{letter-spacing:-0.06em;}.cls-39{letter-spacing:-0.02em;}.cls-40{letter-spacing:-0.02em;}</style></defs><title>airbo_timeline_mobile</title><text class="cls-1" transform="translate(30.28 1166.86)">Airbo <tspan class="cls-2" x="42.12" y="0">r</tspan><tspan x="47.25" y="0">eloc</tspan><tspan class="cls-3" x="76.27" y="0">a</tspan><tspan x="84.13" y="0">tes to</tspan><tspan class="cls-2" x="121.8" y="0"> </tspan><tspan class="cls-4" x="125.28" y="0">V</tspan><tspan x="133.99" y="0">enice B</tspan><tspan class="cls-5" x="184.41" y="0">e</tspan><tspan x="192.9" y="0">ach</tspan><tspan class="cls-6" x="217.15" y="0">,</tspan><tspan x="220.6" y="0"> </tspan><tspan class="cls-7" x="224.35" y="0">C</tspan><tspan x="234.97" y="0">A</tspan><tspan class="cls-6" x="245.47" y="0">.</tspan></text><circle class="cls-8" cx="13.28" cy="83.25" r="4.5"/><circle class="cls-8" cx="13.28" cy="114.41" r="4.5"/><circle class="cls-8" cx="13.28" cy="203.87" r="4.5"/><circle class="cls-8" cx="13.28" cy="526.33" r="4.5"/><circle class="cls-8" cx="13.28" cy="352.71" r="4.5"/><text class="cls-9" transform="translate(13.28 10.25)">FEBR<tspan class="cls-10" x="29.1" y="0">U</tspan><tspan class="cls-11" x="37.49" y="0">A</tspan><tspan class="cls-12" x="46.02" y="0">R</tspan><tspan class="cls-13" x="53.3" y="0">Y</tspan><tspan x="60.5" y="0" xml:space="preserve"> 2011</tspan></text><text class="cls-9" transform="translate(0 481.25)">2012</text><text class="cls-9" transform="translate(0 674.25)">2013</text><text class="cls-9" transform="translate(0 874.33)">2014</text><text class="cls-9" transform="translate(0 1075.32)">2015</text><text class="cls-9" transform="translate(0 1399.32)">2016</text><text class="cls-9" transform="translate(30.28 118.91)">MARCH</text><line class="cls-14" x1="13.28" y1="83.25" x2="13.28" y2="446.87"/><circle class="cls-8" cx="13.28" cy="920.87" r="4.5"/><line class="cls-14" x1="13.28" y1="900.33" x2="13.28" y2="1037.41"/><circle class="cls-8" cx="13.28" cy="1138.06" r="4.5"/><circle class="cls-8" cx="13.28" cy="1445.04" r="4.5"/><circle class="cls-8" cx="13.28" cy="1214.53" r="4.5"/><line class="cls-14" x1="13.28" y1="1107.44" x2="13.28" y2="1370.45"/><line class="cls-14" x1="13.28" y1="1419.66" x2="13.28" y2="1539.45"/><text class="cls-9" transform="translate(0 1566.5)">2017</text><circle class="cls-8" cx="13.28" cy="1612.21" r="4.5"/><line class="cls-14" x1="13.28" y1="1586.84" x2="13.28" y2="1706.63"/><circle class="cls-8" cx="13.28" cy="751.87" r="4.5"/><line class="cls-14" x1="13.28" y1="698.91" x2="13.28" y2="836"/><line class="cls-14" x1="13.28" y1="502.45" x2="13.28" y2="647.79"/><text class="cls-15" transform="translate(13.28 46.2)">Airbo founded in Boston by<tspan class="cls-16" x="227.3" y="0"> </tspan><tspan x="231.48" y="0">Vlad </tspan><tspan class="cls-17" x="272.8" y="0">G</tspan><tspan x="286.39" y="0">yste</tspan><tspan class="cls-18" x="319.17" y="0">r</tspan><tspan class="cls-19" x="324.79" y="0">.</tspan></text><text></text><text class="cls-1" transform="translate(30.28 143.21)">Beta launched <tspan class="cls-3" x="101.98" y="0">a</tspan><tspan x="109.84" y="0">t the 2011 Employee H</tspan><tspan class="cls-5" x="266.33" y="0">e</tspan><tspan x="274.82" y="0">alth </tspan><tspan class="cls-2" x="303.86" y="0">C</tspan><tspan x="314.39" y="0">a</tspan><tspan class="cls-2" x="322.4" y="0">r</tspan><tspan x="327.53" y="0">e </tspan><tspan class="cls-7" x="0" y="24">C</tspan><tspan x="10.62" y="24">onfe</tspan><tspan class="cls-20" x="41.5" y="24">r</tspan><tspan x="46.63" y="24">ence in New</tspan><tspan class="cls-21" x="131.2" y="24"> </tspan><tspan class="cls-22" x="134.59" y="24">Y</tspan><tspan x="142.27" y="24">ork City and San Dieg</tspan><tspan class="cls-23" x="290.74" y="24">o</tspan><tspan class="cls-24" x="299.73" y="24">.</tspan></text><text class="cls-9" transform="translate(30.28 357.71)">SE<tspan class="cls-25" x="14.04" y="0">P</tspan><tspan x="21.11" y="0">TEMBER</tspan></text><text class="cls-1" transform="translate(30.28 382)"><tspan class="cls-4">F</tspan><tspan x="7.8" y="0">ujifilm joins</tspan><tspan class="cls-2" x="85.02" y="0"> </tspan><tspan x="88.5" y="0">Airbo</tspan><tspan class="cls-26" x="126.87" y="0">’</tspan><tspan x="129.48" y="0">s pl</tspan><tspan class="cls-3" x="153.2" y="0">a</tspan><tspan x="161.05" y="0">tform</tspan><tspan class="cls-6" x="198.04" y="0">.</tspan><tspan x="201.49" y="0" xml:space="preserve"> Deploys</tspan><tspan class="cls-2" x="261.63" y="0"> </tspan><tspan x="265.11" y="0">Airbo </tspan><tspan x="0" y="24">ac</tspan><tspan class="cls-2" x="15.51" y="24">r</tspan><tspan x="20.64" y="24">oss 60 loc</tspan><tspan class="cls-3" x="88.47" y="24">a</tspan><tspan x="96.33" y="24">tions and helps p</tspan><tspan class="cls-2" x="213.72" y="24">r</tspan><tspan x="218.85" y="24">ove th</tspan><tspan class="cls-3" x="261.17" y="24">a</tspan><tspan x="269.03" y="24">t </tspan><tspan x="0" y="48">employees o</tspan><tspan class="cls-27" x="88.35" y="48">f</tspan><tspan x="93.14" y="48" xml:space="preserve"> all demog</tspan><tspan class="cls-7" x="166.23" y="48">r</tspan><tspan x="171.45" y="48">aphics engage</tspan><tspan class="cls-6" x="272.23" y="48">.</tspan><tspan x="275.68" y="48"> </tspan></text><text class="cls-9" transform="translate(30.28 530.83)"><tspan class="cls-28">J</tspan><tspan x="5.8" y="0">AN</tspan><tspan class="cls-29" x="23.59" y="0">U</tspan><tspan x="31.98" y="0">A</tspan><tspan class="cls-12" x="40.51" y="0">R</tspan><tspan class="cls-13" x="47.8" y="0">Y</tspan></text><text class="cls-1" transform="translate(30.28 555.13)">Airbo detects high levels o<tspan class="cls-27" x="182.34" y="0">f</tspan><tspan x="187.12" y="0" xml:space="preserve"> initial pa</tspan><tspan class="cls-7" x="248.67" y="0">r</tspan><tspan x="253.89" y="0">ticip</tspan><tspan class="cls-30" x="283.17" y="0">a</tspan><tspan x="291.03" y="0">tion</tspan><tspan class="cls-6" x="317.41" y="0">,</tspan><tspan x="320.86" y="0"> </tspan><tspan x="0" y="24">but a d</tspan><tspan class="cls-2" x="48.09" y="24">r</tspan><tspan x="53.22" y="24">op o</tspan><tspan class="cls-20" x="84.82" y="24">f</tspan><tspan class="cls-31" x="88.98" y="24">f</tspan><tspan x="93.76" y="24" xml:space="preserve"> in driving employee </tspan><tspan class="cls-2" x="0" y="48">r</tspan><tspan x="5.13" y="48">e-engagement</tspan><tspan class="cls-6" x="106.65" y="48">.</tspan><tspan class="cls-32" x="110.1" y="48"> </tspan><tspan class="cls-2" x="113.49" y="48">T</tspan><tspan x="121.77" y="48">he company enters an intensive </tspan><tspan x="0" y="72">R&amp;D phase with a g</tspan><tspan class="cls-2" x="133.35" y="72">r</tspan><tspan x="138.48" y="72">oup o</tspan><tspan class="cls-27" x="178.8" y="72">f</tspan><tspan x="183.58" y="72" xml:space="preserve"> la</tspan><tspan class="cls-2" x="199.12" y="72">r</tspan><tspan x="204.25" y="72">ge employers</tspan><tspan class="cls-6" x="298.32" y="72">.</tspan></text><text class="cls-9" transform="translate(30.28 925.37)"><tspan class="cls-28">J</tspan><tspan x="5.8" y="0">AN</tspan><tspan class="cls-29" x="23.59" y="0">U</tspan><tspan x="31.98" y="0">A</tspan><tspan class="cls-12" x="40.51" y="0">R</tspan><tspan class="cls-13" x="47.8" y="0">Y</tspan></text><text class="cls-1" transform="translate(30.28 949.67)">Airbo Employee <tspan class="cls-7" x="114.95" y="0">C</tspan><tspan x="125.57" y="0">ommunic</tspan><tspan class="cls-3" x="189.9" y="0">a</tspan><tspan x="197.76" y="0">tion Pl</tspan><tspan class="cls-30" x="240.38" y="0">a</tspan><tspan x="248.24" y="0">tform is </tspan><tspan x="0" y="24">launched</tspan><tspan class="cls-6" x="63.6" y="24">.</tspan><tspan x="67.05" y="24" xml:space="preserve"> Designed for </tspan><tspan class="cls-5" x="163.96" y="24">e</tspan><tspan x="172.45" y="24">ase o</tspan><tspan class="cls-31" x="208.62" y="24">f</tspan><tspan x="213.4" y="24" xml:space="preserve"> implement</tspan><tspan class="cls-3" x="291.33" y="24">a</tspan><tspan x="299.19" y="24">tion </tspan><tspan x="0" y="48">and driving ongoing </tspan><tspan class="cls-2" x="143.97" y="48">r</tspan><tspan x="149.1" y="48">ecurring engagement</tspan><tspan class="cls-6" x="298.52" y="48">.</tspan></text><text class="cls-9" transform="translate(30.28 1218.03)">JUNE</text><text class="cls-1" transform="translate(30.28 1242.33)">Customer wins an I<tspan class="cls-2" x="129.51" y="0">A</tspan><tspan x="139.74" y="0">CB Gold Quill</tspan><tspan class="cls-20" x="234.43" y="0"> </tspan><tspan class="cls-5" x="237.91" y="0">A</tspan><tspan x="248.32" y="0">wa</tspan><tspan class="cls-2" x="267.52" y="0">r</tspan><tspan x="272.65" y="0">d</tspan><tspan class="cls-6" x="282.21" y="0">.</tspan></text><text class="cls-9" transform="translate(30.28 1449.54)"><tspan class="cls-28">J</tspan><tspan x="5.8" y="0">AN</tspan><tspan class="cls-29" x="23.59" y="0">U</tspan><tspan x="31.98" y="0">A</tspan><tspan class="cls-12" x="40.51" y="0">R</tspan><tspan class="cls-13" x="47.8" y="0">Y</tspan></text><text class="cls-1" transform="translate(30.28 1473.84)">Vlad <tspan class="cls-21" x="34.44" y="0">G</tspan><tspan x="45.76" y="0">yste</tspan><tspan class="cls-33" x="73.08" y="0">r</tspan><tspan class="cls-24" x="77.76" y="0">,</tspan><tspan class="cls-20" x="81.21" y="0"> </tspan><tspan x="84.69" y="0">Airbo</tspan><tspan class="cls-26" x="123.06" y="0">’</tspan><tspan x="125.67" y="0">s CE</tspan><tspan class="cls-26" x="155.76" y="0">O</tspan><tspan class="cls-6" x="167.79" y="0">,</tspan><tspan x="171.24" y="0" xml:space="preserve"> named</tspan><tspan class="cls-21" x="223.09" y="0"> </tspan><tspan class="cls-34" x="226.48" y="0">T</tspan><tspan x="233.59" y="0">op 50 Benefit </tspan><tspan class="cls-35" x="0" y="24">T</tspan><tspan x="7.11" y="24">echnology Innov</tspan><tspan class="cls-3" x="121.13" y="24">a</tspan><tspan x="128.99" y="24">tor by Employee Benefit News</tspan><tspan class="cls-6" x="335.48" y="24">.</tspan></text><text class="cls-9" transform="translate(30.28 208.37)">JUNE</text><text class="cls-1" transform="translate(30.28 232.67)">Michelin signs up as<tspan class="cls-2" x="137.54" y="0"> </tspan><tspan x="141.02" y="0">Airbo</tspan><tspan class="cls-26" x="179.38" y="0">’</tspan><tspan x="182" y="0">s first custome</tspan><tspan class="cls-33" x="279.75" y="0">r</tspan><tspan class="cls-24" x="284.43" y="0">.</tspan><tspan x="287.88" y="0"> </tspan><tspan class="cls-26" x="291.63" y="0">P</tspan><tspan class="cls-20" x="299.61" y="0">r</tspan><tspan x="304.74" y="0">oves </tspan><tspan x="0" y="24">th</tspan><tspan class="cls-3" x="13.5" y="24">a</tspan><tspan x="21.36" y="24">t engaging communic</tspan><tspan class="cls-30" x="171.66" y="24">a</tspan><tspan x="179.52" y="24">tions drives behavior by </tspan><tspan x="0" y="48">inc</tspan><tspan class="cls-2" x="19.96" y="48">r</tspan><tspan class="cls-5" x="25.09" y="48">e</tspan><tspan x="33.58" y="48">asing H</tspan><tspan class="cls-36" x="84.72" y="48">e</tspan><tspan x="93.21" y="48">alth Risk</tspan><tspan class="cls-2" x="149.29" y="48"> </tspan><tspan x="152.77" y="48">Assessment completion </tspan><tspan class="cls-7" x="0" y="72">r</tspan><tspan class="cls-3" x="5.22" y="72">a</tspan><tspan x="13.08" y="72">tes by 26%</tspan><tspan class="cls-6" x="87.34" y="72">.</tspan></text><text class="cls-9" transform="translate(30.28 757.37)">JU<tspan class="cls-37" x="14.48" y="0">L</tspan><tspan class="cls-13" x="19.58" y="0">Y</tspan></text><text class="cls-1" transform="translate(30.28 781.67)">Launches beta o<tspan class="cls-27" x="112.14" y="0">f</tspan><tspan x="116.92" y="0" xml:space="preserve"> the new pl</tspan><tspan class="cls-30" x="192.04" y="0">a</tspan><tspan x="199.9" y="0">tform</tspan><tspan class="cls-6" x="236.89" y="0">.</tspan><tspan class="cls-2" x="0" y="24">T</tspan><tspan x="8.28" y="24">he</tspan><tspan class="cls-32" x="25.61" y="24"> </tspan><tspan class="cls-7" x="29" y="24">T</tspan><tspan x="37.37" y="24">ile is born! </tspan></text><text class="cls-9" transform="translate(30.28 1142.56)">M<tspan class="cls-38" x="10.84" y="0">A</tspan><tspan class="cls-39" x="18.65" y="0">Y</tspan></text><circle class="cls-8" cx="13.28" cy="1282.97" r="4.5"/><text class="cls-9" transform="translate(31.3 1287.47)"><tspan class="cls-29">A</tspan><tspan x="8.38" y="0">UGU</tspan><tspan class="cls-40" x="34.8" y="0">S</tspan><tspan class="cls-13" x="41.44" y="0">T</tspan></text><text class="cls-1" transform="translate(30.28 1311.77)">Airbo customer<tspan class="cls-2" x="106.14" y="0"> </tspan><tspan x="109.62" y="0">American Speech and Language </tspan><tspan x="0" y="24">H</tspan><tspan class="cls-5" x="10.77" y="24">e</tspan><tspan x="19.26" y="24">aring</tspan><tspan class="cls-2" x="54.61" y="24"> </tspan><tspan x="58.09" y="24">Associ</tspan><tspan class="cls-3" x="102.33" y="24">a</tspan><tspan x="110.19" y="24">tion f</tspan><tspan class="cls-5" x="144.75" y="24">e</tspan><tspan class="cls-3" x="153.24" y="24">a</tspan><tspan x="161.1" y="24">tu</tspan><tspan class="cls-2" x="174.57" y="24">r</tspan><tspan x="179.7" y="24">ed on f</tspan><tspan class="cls-2" x="227.64" y="24">r</tspan><tspan x="232.77" y="24">ont page o</tspan><tspan class="cls-27" x="307.66" y="24">f</tspan><tspan x="312.45" y="24"> </tspan><tspan x="0" y="48">Employee Benefit News</tspan><tspan class="cls-6" x="162.8" y="48">.</tspan></text><text class="cls-9" transform="translate(32.14 1616.71)">APRI<tspan class="cls-13" x="26.29" y="0">L</tspan></text><text class="cls-1" transform="translate(30.28 1641.01)"><tspan class="cls-4">F</tspan><tspan x="7.8" y="0">ujifilm named</tspan><tspan class="cls-21" x="101.07" y="0"> </tspan><tspan class="cls-34" x="104.46" y="0">T</tspan><tspan x="111.57" y="0">op 50 Benefit</tspan><tspan class="cls-21" x="203.49" y="0"> </tspan><tspan class="cls-34" x="206.88" y="0">T</tspan><tspan x="213.99" y="0">echnology </tspan><tspan x="0" y="24">Innov</tspan><tspan class="cls-3" x="37.82" y="24">a</tspan><tspan x="45.67" y="24">tor by EBN for work with</tspan><tspan class="cls-2" x="211.33" y="24"> </tspan><tspan x="214.81" y="24">Airb</tspan><tspan class="cls-7" x="244.02" y="24">o</tspan><tspan class="cls-6" x="253" y="24">.</tspan></text></svg>