<svg id="Layer_1" data-name="Layer 1" xmlns="http://www.w3.org/2000/svg" viewBox="0 0 714.72 1646.63"><defs><style>.cls-1,.cls-18,.cls-2,.cls-27,.cls-29,.cls-3,.cls-32,.cls-33,.cls-35,.cls-4,.cls-5{fill:#42b2ee;}.cls-10,.cls-11,.cls-12,.cls-13,.cls-14,.cls-15,.cls-16,.cls-17,.cls-18,.cls-19,.cls-2,.cls-20,.cls-21,.cls-22,.cls-23,.cls-24,.cls-25,.cls-26,.cls-27,.cls-28,.cls-29,.cls-3,.cls-30,.cls-31,.cls-32,.cls-33,.cls-34,.cls-35,.cls-4,.cls-5,.cls-6,.cls-8,.cls-9{isolation:isolate;}.cls-18,.cls-2,.cls-27,.cls-29,.cls-3,.cls-32,.cls-33,.cls-35,.cls-4,.cls-5{font-size:12px;font-family:AvenirNext-Medium, Avenir Next;}.cls-3{letter-spacing:-0.01em;}.cls-4{letter-spacing:-0.04em;}.cls-5{letter-spacing:-0.06em;}.cls-7{fill:none;stroke:#42b2ee;stroke-miterlimit:10;}.cls-10,.cls-11,.cls-8,.cls-9{font-size:18px;}.cls-10,.cls-11,.cls-12,.cls-13,.cls-14,.cls-15,.cls-16,.cls-17,.cls-19,.cls-20,.cls-21,.cls-22,.cls-23,.cls-24,.cls-25,.cls-26,.cls-28,.cls-30,.cls-31,.cls-34,.cls-8,.cls-9{fill:#33445c;font-family:AvenirNext-Regular, Avenir Next;}.cls-9{letter-spacing:-0.02em;}.cls-10{letter-spacing:-0.05em;}.cls-11{letter-spacing:-0.09em;}.cls-12,.cls-13,.cls-14,.cls-15,.cls-16,.cls-17,.cls-19,.cls-20,.cls-21,.cls-22,.cls-23,.cls-24,.cls-25,.cls-26,.cls-28,.cls-30,.cls-31,.cls-34{font-size:15px;}.cls-13{letter-spacing:-0.01em;}.cls-14{letter-spacing:-0.01em;}.cls-15{letter-spacing:-0.02em;}.cls-16{letter-spacing:-0.13em;}.cls-17{letter-spacing:-0.09em;}.cls-18{letter-spacing:-0.01em;}.cls-19{letter-spacing:-0.04em;}.cls-20{letter-spacing:-0.05em;}.cls-21{letter-spacing:0.06em;}.cls-22{letter-spacing:0.03em;}.cls-23{letter-spacing:-0.06em;}.cls-24{letter-spacing:-0.06em;}.cls-25{letter-spacing:-0.05em;}.cls-26{letter-spacing:-0.14em;}.cls-27{letter-spacing:-0.13em;}.cls-28{letter-spacing:-0.05em;}.cls-29{letter-spacing:-0.1em;}.cls-30{letter-spacing:-0.08em;}.cls-31{letter-spacing:-0.04em;}.cls-32{letter-spacing:-0.05em;}.cls-33{letter-spacing:-0.02em;}.cls-34{letter-spacing:0.04em;}.cls-35{letter-spacing:-0.06em;}</style></defs><title>airbo_timeline_web</title><circle class="cls-1" cx="359.48" cy="83.25" r="4.5"/><circle class="cls-1" cx="359.48" cy="134.42" r="4.5"/><circle class="cls-1" cx="359.48" cy="203.87" r="4.5"/><circle class="cls-1" cx="359.48" cy="466.33" r="4.5"/><circle class="cls-1" cx="359.48" cy="582.87" r="4.5"/><circle class="cls-1" cx="359.48" cy="292.71" r="4.5"/><text class="cls-2" transform="translate(314.23 10.25)">FEBR</text><text class="cls-3" transform="translate(343.33 10.25)">U</text><text class="cls-4" transform="translate(351.72 10.25)">A</text><text class="cls-3" transform="translate(360.25 10.25)">R</text><text class="cls-5" transform="translate(367.53 10.25)">Y</text><g class="cls-6"><text class="cls-2" transform="translate(374.73 10.25)"><tspan xml:space="preserve"> 2011</tspan></text></g><text class="cls-2" transform="translate(346.2 421.25)">2012</text><text class="cls-2" transform="translate(346.2 614.25)">2013</text><text class="cls-2" transform="translate(346.2 814.33)">2014</text><text class="cls-2" transform="translate(346.2 1015.32)">2015</text><text class="cls-2" transform="translate(346.2 1339.32)">2016</text><text class="cls-2" transform="translate(376.48 138.92)">MARCH</text><line class="cls-7" x1="359.48" y1="83.25" x2="359.48" y2="386.87"/><circle class="cls-1" cx="359.48" cy="860.87" r="4.5"/><line class="cls-7" x1="359.48" y1="840.33" x2="359.48" y2="977.41"/><circle class="cls-1" cx="359.48" cy="1098.06" r="4.5"/><circle class="cls-1" cx="359.48" cy="1385.04" r="4.5"/><circle class="cls-1" cx="359.48" cy="1154.53" r="4.5"/><line class="cls-7" x1="359.48" y1="1047.44" x2="359.48" y2="1310.45"/><line class="cls-7" x1="359.48" y1="1359.66" x2="359.48" y2="1479.45"/><text class="cls-2" transform="translate(346.2 1506.5)">2017</text><circle class="cls-1" cx="359.48" cy="1552.22" r="4.5"/><line class="cls-7" x1="359.48" y1="1526.84" x2="359.48" y2="1646.63"/><circle class="cls-1" cx="359.48" cy="691.87" r="4.5"/><line class="cls-7" x1="359.48" y1="638.91" x2="359.48" y2="776"/><text class="cls-8" transform="translate(194.98 46.2)">Airbo founded in Boston by</text><text class="cls-8" transform="translate(426.46 46.2)">Vlad</text><text class="cls-9" transform="translate(467.78 46.2)">G</text><text class="cls-8" transform="translate(481.37 46.2)">yste</text><text class="cls-10" transform="translate(514.15 46.2)">r</text><text class="cls-11" transform="translate(519.77 46.2)">.</text><text class="cls-12" transform="translate(376.48 163.21)">Beta launched</text><text class="cls-13" transform="translate(478.46 163.21)">a</text><text class="cls-12" transform="translate(486.32 163.21)">t the 2011 Employee H</text><text class="cls-14" transform="translate(642.81 163.21)">e</text><text class="cls-12" transform="translate(651.3 163.21)">alth</text><text class="cls-15" transform="translate(680.34 163.21)">C</text><text class="cls-12" transform="translate(690.87 163.21)">a</text><text class="cls-15" transform="translate(698.88 163.21)">r</text><text class="cls-12" transform="translate(704.01 163.21)">e</text><text class="cls-14" transform="translate(376.48 187.21)">C</text><text class="cls-12" transform="translate(387.1 187.21)">onfe</text><text class="cls-15" transform="translate(417.98 187.21)">r</text><text class="cls-12" transform="translate(423.11 187.21)">ence in New</text><text class="cls-16" transform="translate(511.07 187.21)">Y</text><text class="cls-12" transform="translate(518.75 187.21)">ork City and San Dieg</text><text class="cls-14" transform="translate(667.22 187.21)">o</text><text class="cls-17" transform="translate(676.21 187.21)">.</text><text class="cls-2" transform="translate(376.48 297.71)">SE</text><text class="cls-18" transform="translate(390.52 297.71)">P</text><text class="cls-2" transform="translate(397.59 297.71)">TEMBER</text><text class="cls-19" transform="translate(376.48 322)">F</text><text class="cls-12" transform="translate(384.28 322)">ujifilm joins</text><text class="cls-12" transform="translate(464.98 322)">Airbo</text><text class="cls-20" transform="translate(503.35 322)">’</text><text class="cls-12" transform="translate(505.96 322)">s pl</text><text class="cls-13" transform="translate(529.68 322)">a</text><text class="cls-12" transform="translate(537.53 322)">tform</text><text class="cls-17" transform="translate(574.52 322)">.</text><g class="cls-6"><text class="cls-12" transform="translate(577.97 322)"><tspan xml:space="preserve"> Deploys</tspan></text></g><text class="cls-12" transform="translate(641.59 322)">Airbo</text><text class="cls-12" transform="translate(376.48 346)">ac</text><text class="cls-15" transform="translate(391.99 346)">r</text><text class="cls-12" transform="translate(397.12 346)">oss 60 loc</text><text class="cls-13" transform="translate(464.95 346)">a</text><text class="cls-12" transform="translate(472.81 346)">tions and helps p</text><text class="cls-15" transform="translate(590.2 346)">r</text><text class="cls-12" transform="translate(595.33 346)">ove th</text><text class="cls-13" transform="translate(637.65 346)">a</text><text class="cls-12" transform="translate(645.51 346)">t</text><text class="cls-12" transform="translate(376.48 370)">employees o</text><text class="cls-21" transform="translate(464.83 370)">f</text><g class="cls-6"><text class="cls-12" transform="translate(469.62 370)"><tspan xml:space="preserve"> all demog</tspan></text></g><text class="cls-14" transform="translate(542.71 370)">r</text><text class="cls-12" transform="translate(547.93 370)">aphics engage</text><text class="cls-17" transform="translate(648.71 370)">.</text><text class="cls-3" transform="translate(376.48 470.83)">J</text><text class="cls-2" transform="translate(382.28 470.83)">AN</text><text class="cls-3" transform="translate(400.07 470.83)">U</text><text class="cls-4" transform="translate(408.46 470.83)">A</text><text class="cls-3" transform="translate(416.99 470.83)">R</text><text class="cls-5" transform="translate(424.28 470.83)">Y</text><text class="cls-12" transform="translate(376.48 495.13)">Airbo detects high levels o</text><text class="cls-21" transform="translate(558.82 495.13)">f</text><g class="cls-6"><text class="cls-12" transform="translate(563.6 495.13)"><tspan xml:space="preserve"> initial pa</tspan></text></g><text class="cls-14" transform="translate(625.15 495.13)">r</text><text class="cls-12" transform="translate(630.37 495.13)">ticip</text><text class="cls-13" transform="translate(659.65 495.13)">a</text><text class="cls-12" transform="translate(667.51 495.13)">tion</text><text class="cls-17" transform="translate(693.89 495.13)">,</text><text class="cls-12" transform="translate(376.48 519.13)">but a d</text><text class="cls-15" transform="translate(424.57 519.13)">r</text><text class="cls-12" transform="translate(429.7 519.13)">op o</text><text class="cls-22" transform="translate(461.3 519.13)">f</text><text class="cls-21" transform="translate(465.46 519.13)">f</text><g class="cls-6"><text class="cls-12" transform="translate(470.24 519.13)"><tspan xml:space="preserve"> in driving employee </tspan></text></g><text class="cls-15" transform="translate(376.48 543.13)">r</text><text class="cls-12" transform="translate(381.61 543.13)">e-engagement</text><text class="cls-17" transform="translate(483.13 543.13)">.</text><text class="cls-23" transform="translate(489.97 543.13)">T</text><text class="cls-12" transform="translate(498.25 543.13)">he company enters an intensive</text><text class="cls-12" transform="translate(376.48 567.13)">R&amp;D phase with a g</text><text class="cls-15" transform="translate(509.83 567.13)">r</text><text class="cls-12" transform="translate(514.96 567.13)">oup o</text><text class="cls-21" transform="translate(555.28 567.13)">f</text><g class="cls-6"><text class="cls-12" transform="translate(560.06 567.13)"><tspan xml:space="preserve"> la</tspan></text></g><text class="cls-15" transform="translate(575.6 567.13)">r</text><text class="cls-12" transform="translate(580.73 567.13)">ge employers</text><text class="cls-17" transform="translate(674.8 567.13)">.</text><text class="cls-3" transform="translate(376.48 865.37)">J</text><text class="cls-2" transform="translate(382.28 865.37)">AN</text><text class="cls-3" transform="translate(400.07 865.37)">U</text><text class="cls-4" transform="translate(408.46 865.37)">A</text><text class="cls-3" transform="translate(416.99 865.37)">R</text><text class="cls-5" transform="translate(424.28 865.37)">Y</text><text class="cls-12" transform="translate(376.48 889.67)">Airbo Employee</text><text class="cls-14" transform="translate(491.43 889.67)">C</text><text class="cls-12" transform="translate(502.05 889.67)">ommunic</text><text class="cls-13" transform="translate(566.38 889.67)">a</text><text class="cls-12" transform="translate(574.24 889.67)">tion Pl</text><text class="cls-13" transform="translate(616.86 889.67)">a</text><text class="cls-12" transform="translate(624.72 889.67)">tform is</text><text class="cls-12" transform="translate(376.48 913.67)">launched</text><text class="cls-17" transform="translate(440.08 913.67)">.</text><g class="cls-6"><text class="cls-12" transform="translate(443.53 913.67)"><tspan xml:space="preserve"> Designed for </tspan></text></g><text class="cls-14" transform="translate(540.44 913.67)">e</text><text class="cls-12" transform="translate(548.93 913.67)">ase o</text><text class="cls-21" transform="translate(585.1 913.67)">f</text><g class="cls-6"><text class="cls-12" transform="translate(589.88 913.67)"><tspan xml:space="preserve"> implement</tspan></text></g><text class="cls-13" transform="translate(667.81 913.67)">a</text><text class="cls-12" transform="translate(675.67 913.67)">tion</text><text class="cls-12" transform="translate(376.48 937.67)">and driving ongoing</text><text class="cls-15" transform="translate(520.45 937.67)">r</text><text class="cls-12" transform="translate(525.58 937.67)">ecurring engagement</text><text class="cls-17" transform="translate(675 937.67)">.</text><text class="cls-2" transform="translate(376.48 1158.03)">JUNE</text><text class="cls-12" transform="translate(376.48 1182.33)">Customer wins an I</text><text class="cls-24" transform="translate(505.99 1182.33)">A</text><text class="cls-12" transform="translate(516.22 1182.33)">CB Gold Quill</text><text class="cls-25" transform="translate(614.39 1182.33)">A</text><text class="cls-12" transform="translate(624.8 1182.33)">wa</text><text class="cls-15" transform="translate(644 1182.33)">r</text><text class="cls-12" transform="translate(649.13 1182.33)">d</text><text class="cls-17" transform="translate(658.69 1182.33)">.</text><text class="cls-3" transform="translate(376.48 1389.54)">J</text><text class="cls-2" transform="translate(382.28 1389.54)">AN</text><text class="cls-3" transform="translate(400.07 1389.54)">U</text><text class="cls-4" transform="translate(408.46 1389.54)">A</text><text class="cls-3" transform="translate(416.99 1389.54)">R</text><text class="cls-5" transform="translate(424.28 1389.54)">Y</text><text class="cls-12" transform="translate(376.48 1413.84)">Vlad</text><text class="cls-15" transform="translate(410.92 1413.84)">G</text><text class="cls-12" transform="translate(422.24 1413.84)">yste</text><text class="cls-20" transform="translate(449.56 1413.84)">r</text><text class="cls-17" transform="translate(454.24 1413.84)">,</text><text class="cls-12" transform="translate(461.17 1413.84)">Airbo</text><text class="cls-20" transform="translate(499.54 1413.84)">’</text><text class="cls-12" transform="translate(502.15 1413.84)">s CE</text><text class="cls-20" transform="translate(532.24 1413.84)">O</text><text class="cls-17" transform="translate(544.27 1413.84)">,</text><g class="cls-6"><text class="cls-12" transform="translate(547.72 1413.84)"><tspan xml:space="preserve"> named</tspan></text></g><text class="cls-26" transform="translate(602.96 1413.84)">T</text><text class="cls-12" transform="translate(610.07 1413.84)">op 50 Benefit</text><text class="cls-26" transform="translate(376.48 1437.84)">T</text><text class="cls-12" transform="translate(383.59 1437.84)">echnology Innov</text><text class="cls-13" transform="translate(497.61 1437.84)">a</text><text class="cls-12" transform="translate(505.47 1437.84)">tor by Employee Benefit News</text><text class="cls-17" transform="translate(711.96 1437.84)">.</text><text class="cls-2" transform="translate(310.48 208.37)">JUNE</text><text class="cls-12" transform="translate(6.02 232.67)">Michelin signs up as</text><text class="cls-12" transform="translate(147.04 232.67)">Airbo</text><text class="cls-20" transform="translate(185.4 232.67)">’</text><text class="cls-12" transform="translate(188.02 232.67)">s first custome</text><text class="cls-20" transform="translate(285.77 232.67)">r</text><text class="cls-17" transform="translate(290.45 232.67)">.</text><text class="cls-20" transform="translate(297.65 232.67)">P</text><text class="cls-15" transform="translate(305.63 232.67)">r</text><text class="cls-12" transform="translate(310.76 232.67)">oves</text><text class="cls-12" transform="translate(0 256.67)">th</text><text class="cls-13" transform="translate(13.5 256.67)">a</text><text class="cls-12" transform="translate(21.36 256.67)">t engaging communic</text><text class="cls-13" transform="translate(171.66 256.67)">a</text><text class="cls-12" transform="translate(179.52 256.67)">tions drives behavior by</text><text class="cls-12" transform="translate(26.76 280.67)">inc</text><text class="cls-15" transform="translate(46.73 280.67)">r</text><text class="cls-14" transform="translate(51.86 280.67)">e</text><text class="cls-12" transform="translate(60.35 280.67)">asing H</text><text class="cls-14" transform="translate(111.48 280.67)">e</text><text class="cls-12" transform="translate(119.97 280.67)">alth Risk</text><text class="cls-12" transform="translate(179.54 280.67)">Assessment completion</text><text class="cls-14" transform="translate(251.69 304.67)">r</text><text class="cls-13" transform="translate(256.91 304.67)">a</text><text class="cls-12" transform="translate(264.77 304.67)">tes by 26%</text><text class="cls-17" transform="translate(339.03 304.67)">.</text><text class="cls-2" transform="translate(310.48 697.37)">JU</text><text class="cls-27" transform="translate(324.96 697.37)">L</text><text class="cls-5" transform="translate(330.06 697.37)">Y</text><text class="cls-12" transform="translate(102.14 721.67)">Launches beta o</text><text class="cls-21" transform="translate(214.28 721.67)">f</text><g class="cls-6"><text class="cls-12" transform="translate(219.06 721.67)"><tspan xml:space="preserve"> the new pl</tspan></text></g><text class="cls-13" transform="translate(294.18 721.67)">a</text><text class="cls-12" transform="translate(302.04 721.67)">tform</text><text class="cls-17" transform="translate(339.03 721.67)">.</text><text class="cls-23" transform="translate(233.34 745.67)">T</text><text class="cls-12" transform="translate(241.62 745.67)">he</text><text class="cls-28" transform="translate(262.34 745.67)">T</text><text class="cls-12" transform="translate(270.71 745.67)">ile is born!</text><text class="cls-2" transform="translate(310.48 1102.56)">M</text><text class="cls-29" transform="translate(321.32 1102.56)">A</text><text class="cls-5" transform="translate(329.13 1102.56)">Y</text><text class="cls-12" transform="translate(93.56 1126.86)">Airbo</text><text class="cls-15" transform="translate(135.68 1126.86)">r</text><text class="cls-12" transform="translate(140.81 1126.86)">eloc</text><text class="cls-13" transform="translate(169.83 1126.86)">a</text><text class="cls-12" transform="translate(177.69 1126.86)">tes to</text><text class="cls-30" transform="translate(218.84 1126.86)">V</text><text class="cls-12" transform="translate(227.55 1126.86)">enice B</text><text class="cls-14" transform="translate(277.97 1126.86)">e</text><text class="cls-12" transform="translate(286.46 1126.86)">ach</text><text class="cls-17" transform="translate(310.71 1126.86)">,</text><text class="cls-14" transform="translate(317.91 1126.86)">C</text><text class="cls-31" transform="translate(328.53 1126.86)">A</text><text class="cls-17" transform="translate(339.03 1126.86)">.</text><circle class="cls-1" cx="359.48" cy="1222.97" r="4.5"/><text class="cls-32" transform="translate(245.5 1227.47)">A</text><text class="cls-2" transform="translate(253.88 1227.47)">UGU</text><text class="cls-33" transform="translate(280.3 1227.47)">S</text><text class="cls-5" transform="translate(286.94 1227.47)">T</text><text class="cls-12" transform="translate(9.6 1251.77)">Airbo customer</text><text class="cls-12" transform="translate(119.22 1251.77)">American Speech and Language</text><text class="cls-12" transform="translate(30.03 1275.77)">H</text><text class="cls-14" transform="translate(40.8 1275.77)">e</text><text class="cls-12" transform="translate(49.29 1275.77)">aring</text><text class="cls-12" transform="translate(88.12 1275.77)">Associ</text><text class="cls-13" transform="translate(132.36 1275.77)">a</text><g class="cls-6"><text class="cls-12" transform="translate(140.22 1275.77)">tion </text><text class="cls-34" transform="translate(170.35 1275.77)">f</text></g><text class="cls-14" transform="translate(174.78 1275.77)">e</text><text class="cls-13" transform="translate(183.27 1275.77)">a</text><text class="cls-12" transform="translate(191.13 1275.77)">tu</text><text class="cls-15" transform="translate(204.6 1275.77)">r</text><g class="cls-6"><text class="cls-12" transform="translate(209.73 1275.77)">ed on </text><text class="cls-34" transform="translate(253.24 1275.77)">f</text></g><text class="cls-15" transform="translate(257.67 1275.77)">r</text><text class="cls-12" transform="translate(262.8 1275.77)">ont page o</text><text class="cls-21" transform="translate(337.69 1275.77)">f</text><text class="cls-12" transform="translate(176.23 1299.77)">Employee Benefit News</text><text class="cls-17" transform="translate(339.03 1299.77)">.</text><text class="cls-2" transform="translate(310.34 1556.71)">APRI</text><text class="cls-35" transform="translate(336.63 1556.71)">L</text><text class="cls-19" transform="translate(56.04 1581.01)">F</text><text class="cls-12" transform="translate(63.84 1581.01)">ujifilm named</text><text class="cls-26" transform="translate(160.5 1581.01)">T</text><text class="cls-12" transform="translate(167.61 1581.01)">op 50 Benefit</text><text class="cls-26" transform="translate(262.92 1581.01)">T</text><text class="cls-12" transform="translate(270.03 1581.01)">echnology</text><text class="cls-12" transform="translate(86.03 1605.01)">Innov</text><text class="cls-13" transform="translate(123.84 1605.01)">a</text><text class="cls-12" transform="translate(131.7 1605.01)">tor by EBN for work with</text><text class="cls-12" transform="translate(300.84 1605.01)">Airb</text><text class="cls-14" transform="translate(330.04 1605.01)">o</text><text class="cls-17" transform="translate(339.03 1605.01)">.</text><line class="cls-7" x1="359.48" y1="465.91" x2="359.48" y2="579.54"/></svg>