
<svg width="32px" height="46px" viewBox="0 0 32 46" version="1.1" xmlns="http://www.w3.org/2000/svg" xmlns:xlink="http://www.w3.org/1999/xlink">
    <!-- Generator: Sketch 51.3 (57544) - http://www.bohemiancoding.com/sketch -->
    <defs>
        <polygon id="path-1" points="0.16310121 0.0534827586 8.97463013 0.0534827586 8.97463013 32.8192207 0.16310121 32.8192207"></polygon>
        <polygon id="path-3" points="0 0.0534827586 16.8661048 0.0534827586 16.8661048 32.8192207 0 32.8192207"></polygon>
        <polygon id="path-5" points="0.0684857143 0.0534827586 16.9358452 0.0534827586 16.9358452 32.8192207 0.0684857143 32.8192207"></polygon>
        <polygon id="path-7" points="0.0259018688 0.0534827586 10.876539 0.0534827586 10.876539 32.8192207 0.0259018688 32.8192207"></polygon>
        <polygon id="path-9" points="0.0630542373 0.0534827586 10.9132738 0.0534827586 10.9132738 32.8192207 0.0630542373 32.8192207"></polygon>
    </defs>
    <g id="Airbo" stroke="none" stroke-width="1" fill="none" fill-rule="evenodd">
        <g id="Homepage-Copy" transform="translate(-1301.000000, -971.000000)">
            <g id="Fujifilm" transform="translate(185.000000, 968.000000)">
                <g id="Visual-Interest" transform="translate(0.000000, 3.000000)">
                    <g id="Ballon-Copy-2" transform="translate(1116.000000, 0.000000)">
                        <path d="M11.1151118,37 C11.1031414,37 11.0910559,36.9971346 11.0792006,36.9910456 C11.0187732,36.9600636 10.9859698,36.8588793 11.005767,36.7650376 L11.7754391,33.123299 C11.7953514,33.0292782 11.8604979,32.9780593 11.9208102,33.0090414 C11.9811224,33.0400235 12.014041,33.1412077 11.9942438,33.2352285 L11.2244565,36.8769671 C11.2085728,36.9521837 11.1634537,37 11.1151118,37" id="Fill-1" fill="#DDE3E9"></path>
                        <path d="M19.8849147,37 C19.836584,37 19.7914752,36.9521837 19.7755951,36.8769671 L19.0057549,33.2352285 C18.9859623,33.1412077 19.0188732,33.0400235 19.0791716,33.0090414 C19.1393549,32.9780593 19.2046015,33.0292782 19.2245092,33.123299 L19.9942344,36.7650376 C20.014027,36.8588793 19.9812311,36.9600636 19.9208176,36.9910456 C19.908965,36.9971346 19.8968824,37 19.8849147,37" id="Fill-3" fill="#DDE3E9"></path>
                        <path d="M11.3719546,37.3945811 L11.3719546,42.3848481 C11.3719546,44.1606603 12.7338665,45.6054189 14.4078482,45.6054189 L16.5919658,45.6054189 C18.2659476,45.6054189 19.6280454,44.1606603 19.6280454,42.3848481 L19.6280454,37.3945811 L11.3719546,37.3945811 Z M16.5919658,46 L14.4078482,46 C12.5287335,46 11,44.3782717 11,42.3848481 L11,37.1972905 C11,37.0881889 11.0831319,37 11.1859773,37 L19.8140227,37 C19.9166822,37 20,37.0881889 20,37.1972905 L20,42.3848481 C20,44.3782717 18.4712665,46 16.5919658,46 Z" id="Fill-5" fill="#DDE3E9"></path>
                        <path d="M15.5,37 C15.2235,37 15,36.9199463 15,36.8209089 L15,33.1790911 C15,33.0800537 15.2235,33 15.5,33 C15.7765,33 16,33.0800537 16,33.1790911 L16,36.8209089 C16,36.9199463 15.7765,37 15.5,37" id="Fill-7" fill="#DDE3E9"></path>
                        <g id="Group-11" transform="translate(12.000000, 0.000000)">
                            <mask id="mask-2" fill="white">
                                <use xlink:href="#path-1"></use>
                            </mask>
                            <g id="Clip-10"></g>
                            <path d="M3.89562955,32.4399103 L5.24235682,32.4399103 C5.43912955,31.5680655 6.44590227,27.1472034 7.17285682,24.6923069 C8.69058409,19.5649793 9.00497045,11.9783931 7.93724318,6.24322069 C7.53612955,4.08513448 6.37533409,0.432755172 4.56919773,0.432755172 C2.76408409,0.432755172 1.60247045,4.08513448 1.20074318,6.24322069 C0.132811364,11.9785828 0.447197727,19.565169 1.96533409,24.6923069 C2.69208409,27.1472034 3.69885682,31.5680655 3.89562955,32.4399103 M5.40844773,32.8192207 L3.72953864,32.8192207 C3.63258409,32.8192207 3.548925,32.7560655 3.52908409,32.6680655 C3.51762955,32.616669 2.372175,27.4993931 1.571175,24.7928241 C0.0385159091,19.6175138 -0.279552273,11.9632207 0.797584091,6.17873793 C0.988015909,5.15592759 2.06474318,0.0534448276 4.56919773,0.0534448276 C5.61135682,0.0534448276 6.52526591,0.9306 7.28597045,2.66044483 C7.929675,4.12401379 8.25551591,5.72337586 8.34019773,6.17873793 C9.41712955,11.963031 9.09926591,19.6173241 7.56722045,24.7928241 C6.76581136,27.4995828 5.62035682,32.616669 5.60890227,32.6680655 C5.58906136,32.7560655 5.50540227,32.8192207 5.40844773,32.8192207" id="Fill-9" fill="#DDE3E9" mask="url(#mask-2)"></path>
                        </g>
                        <g id="Group-14">
                            <mask id="mask-4" fill="white">
                                <use xlink:href="#path-3"></use>
                            </mask>
                            <g id="Clip-13"></g>
                            <path d="M13.407819,32.4399103 L14.0422833,32.4399103 C13.3582357,31.3253069 10.790831,27.1913931 8.92002143,24.8565483 C4.74753333,19.6507034 3.88255714,11.9501345 6.81667619,6.12999655 C7.0599381,5.64713448 8.88622381,2.24927241 12.7796286,0.755548276 C6.08385476,1.91168621 3.0011881,5.80701379 2.62172381,6.31908276 C0.689592857,8.92665172 0.0120214286,11.9034793 0.60742619,15.1668759 C1.1736881,18.2709621 2.92509286,21.5400483 5.6722119,24.6209966 C8.14530714,27.3943241 12.826581,31.884031 13.407819,32.4399103 M14.3911881,32.8192207 L13.322819,32.8192207 C13.268581,32.8192207 13.216569,32.7989276 13.1785214,32.7625138 C13.1269143,32.7133931 7.99837857,27.8212379 5.36155714,24.8641345 C2.5687,21.7319793 0.786938095,18.4008759 0.208330952,15.2307897 C-0.396990476,11.9133414 0.32267619,8.75691034 2.28941429,6.10287586 C2.74800952,5.48365172 7.0492119,0.0534448276 16.6637238,0.0534448276 C16.7756405,0.0534448276 16.8661048,0.138410345 16.8661048,0.2431 C16.8661048,0.34797931 16.7756405,0.432755172 16.6637238,0.432755172 C10.3172595,0.432755172 7.48473571,5.69227241 7.18258095,6.29196207 C4.30998571,11.9903414 5.15735476,19.5306517 9.24383095,24.6285828 C11.4248905,27.3508931 14.5360929,32.4844793 14.5672595,32.5360655 C14.6028786,32.594669 14.6022714,32.6667379 14.5662476,32.7251517 C14.529819,32.7833759 14.4632357,32.8192207 14.3911881,32.8192207" id="Fill-12" fill="#DDE3E9" mask="url(#mask-4)"></path>
                        </g>
                        <g id="Group-17" transform="translate(15.000000, 0.000000)">
                            <mask id="mask-6" fill="white">
                                <use xlink:href="#path-5"></use>
                            </mask>
                            <g id="Clip-16"></g>
                            <path d="M2.89230714,32.4399103 L3.52737857,32.4399103 C4.09161667,31.9043241 8.5367119,27.6716 11.2627833,24.6208069 C14.0115214,21.544031 15.7635333,18.2757034 16.3293905,15.1689621 C16.923581,11.9051862 16.2452,8.9276 14.3124619,6.31908276 C13.9329976,5.80701379 10.8507357,1.91187586 4.15516429,0.755548276 C8.04856905,2.24946207 9.87465238,5.64713448 10.1179143,6.12999655 C13.0512238,11.9505138 12.18645,19.6510828 8.01456905,24.8565483 C6.14315238,27.1913931 3.57615238,31.3253069 2.89230714,32.4399103 M3.61177143,32.8192207 L2.5432,32.8192207 C2.47135476,32.8192207 2.40477143,32.7833759 2.36834286,32.7251517 C2.33211667,32.6667379 2.33150952,32.594669 2.36712857,32.5360655 C2.39849762,32.4844793 5.50929524,27.3508931 7.69075952,24.6285828 C11.7762238,19.531031 12.6239976,11.9907207 9.75200952,6.29196207 C9.44965238,5.69227241 6.61712857,0.432755172 0.270866667,0.432755172 C0.15895,0.432755172 0.0684857143,0.34797931 0.0684857143,0.2431 C0.0684857143,0.138410345 0.15895,0.0534448276 0.270866667,0.0534448276 C9.88517619,0.0534448276 14.1861762,5.48365172 14.6447714,6.10287586 C16.6121167,8.75785862 17.3325929,11.9150483 16.7282833,15.2328759 C16.1504857,18.4056172 14.3677119,21.7361517 11.5732357,24.8643241 C8.66178333,28.1224103 3.80423571,32.7171862 3.7554619,32.7630828 C3.71741429,32.7991172 3.66560476,32.8192207 3.61177143,32.8192207" id="Fill-15" fill="#DDE3E9" mask="url(#mask-6)"></path>
                        </g>
                        <g id="Group-20" transform="translate(5.000000, 0.000000)">
                            <mask id="mask-8" fill="white">
                                <use xlink:href="#path-7"></use>
                            </mask>
                            <g id="Clip-19"></g>
                            <path d="M8.70506441,32.4399103 L9.69543729,32.4399103 C9.48364068,31.4131172 8.59935254,27.1718586 7.95743729,24.7928241 C6.56043729,19.6175138 6.27052203,11.9632207 7.25250508,6.17873793 C7.39475932,5.34046207 8.07955593,1.76261724 9.57835254,0.498375862 C4.51089492,1.10470345 2.21581017,5.73172069 1.95591186,6.29196207 C-0.690613559,11.9903414 0.0902,19.5306517 3.85462373,24.6285828 C5.71157288,27.1445483 8.30048814,31.7199793 8.70506441,32.4399103 M9.92475932,32.8192207 L8.59674237,32.8192207 C8.52962373,32.8192207 8.46772542,32.7826172 8.43453898,32.7230655 C8.40601356,32.6718586 5.55142034,27.5591345 3.55650508,24.8565483 C-0.287342373,19.6507034 -1.08437627,11.9501345 1.61864068,6.12999655 C1.90725085,5.50811724 4.61418305,0.0534448276 10.6900983,0.0534448276 C10.7932,0.0534448276 10.876539,0.138410345 10.876539,0.2431 C10.876539,0.34797931 10.7932,0.432755172 10.6900983,0.432755172 C9.04475932,0.432755172 7.98614915,4.08513448 7.61997966,6.24322069 C6.64638644,11.9785828 6.93294576,19.565169 8.31689492,24.6923069 C9.05053898,27.4106345 10.0968441,32.5394793 10.1072847,32.5910655 C10.1186576,32.6470138 10.104861,32.7050483 10.0692508,32.7492379 C10.0340136,32.7934276 9.98087797,32.8192207 9.92475932,32.8192207" id="Fill-18" fill="#DDE3E9" mask="url(#mask-8)"></path>
                        </g>
                        <g id="Group-23" transform="translate(15.000000, 0.000000)">
                            <mask id="mask-10" fill="white">
                                <use xlink:href="#path-9"></use>
                            </mask>
                            <g id="Clip-22"></g>
                            <path d="M1.24396949,32.4399103 L2.23452881,32.4399103 C2.63929153,31.7194103 5.2278339,27.1443586 7.08496949,24.6285828 C10.8488339,19.531031 11.6296475,11.9907207 8.9838678,6.29196207 C8.72378305,5.73172069 6.42925763,1.10527241 1.36235932,0.498375862 C1.86202034,0.920927586 2.31805424,1.64332414 2.7258,2.66044483 C3.31252881,4.12401379 3.60952881,5.72337586 3.68690169,6.17873793 C4.66832542,11.963031 4.37859661,19.6173241 2.98215593,24.7928241 C2.34005424,27.1718586 1.4557661,31.4131172 1.24396949,32.4399103 M2.34303729,32.8192207 L1.01464746,32.8192207 C0.958528814,32.8192207 0.90539322,32.7934276 0.869969492,32.7492379 C0.834545763,32.7050483 0.820562712,32.6470138 0.831935593,32.5910655 C0.842562712,32.5394793 1.88905424,27.4106345 2.62288475,24.6923069 C4.00608814,19.5649793 4.29264746,11.9783931 3.31942712,6.24322069 C2.95381695,4.08513448 1.8957661,0.432755172 0.249494915,0.432755172 C0.14639322,0.432755172 0.0630542373,0.34797931 0.0630542373,0.2431 C0.0630542373,0.138410345 0.14639322,0.0534448276 0.249494915,0.0534448276 C6.32559661,0.0534448276 9.03234237,5.50811724 9.32095254,6.12999655 C12.0232237,11.9505138 11.2265627,19.6510828 7.38327458,24.8565483 C5.3878,27.5593241 2.5337661,32.6718586 2.50524068,32.7230655 C2.47205424,32.7826172 2.41015593,32.8192207 2.34303729,32.8192207" id="Fill-21" fill="#DDE3E9" mask="url(#mask-10)"></path>
                        </g>
                    </g>
                </g>
            </g>
        </g>
    </g>
</svg>
