<?xml version="1.0" encoding="UTF-8"?>
<svg width="45px" height="51px" viewBox="0 0 45 51" version="1.1" xmlns="http://www.w3.org/2000/svg" xmlns:xlink="http://www.w3.org/1999/xlink">
    <!-- Generator: Sketch 51.3 (57544) - http://www.bohemiancoding.com/sketch -->
    <title>Page 1</title>
    <desc>Created with Sketch.</desc>
    <defs></defs>
    <g id="Page-1" stroke="none" stroke-width="1" fill="none" fill-rule="evenodd">
        <g id="Marketing-Page" transform="translate(-282.000000, -889.000000)" fill="#48BFFF">
            <path d="M299.100285,894.969373 C299.100285,897.396319 300.814731,899.433613 303.090285,899.956873 L303.090285,907.046533 C300.975072,907.351574 299.129241,908.480425 297.889035,910.110283 L291.939375,906.440908 C292.146445,905.884269 292.26,905.285347 292.26,904.659658 C292.26,901.840837 289.948821,899.529658 287.13,899.529658 C284.311179,899.529658 282,901.840837 282,904.659658 C282,907.478479 284.311179,909.789658 287.13,909.789658 C288.503814,909.789658 289.750689,909.235242 290.674716,908.346874 L296.784546,912.10534 C296.452789,912.982627 296.250171,913.928884 296.250171,914.919715 C296.250171,915.903877 296.455018,916.843465 296.784546,917.716249 L290.657046,921.474715 C289.735242,920.595205 288.495036,920.049715 287.130171,920.049715 C284.31135,920.049715 282.000171,922.360894 282.000171,925.179715 C282.000171,927.998536 284.31135,930.309715 287.130171,930.309715 C289.948992,930.309715 292.260171,927.998536 292.260171,925.179715 C292.260171,924.547357 292.135484,923.941732 291.921734,923.380681 L297.889064,919.711306 C299.12927,921.34561 300.968374,922.487833 303.090313,922.79284 L303.090313,929.8825 C300.814759,930.405743 299.100313,932.443054 299.100313,934.87 C299.100313,937.688821 301.411493,940 304.230313,940 C307.049134,940 309.360314,937.688821 309.360314,934.87 C309.360314,932.443054 307.645868,930.40576 305.370314,929.8825 L305.370314,922.79284 C307.492253,922.487799 309.331357,921.345553 310.571563,919.711306 L316.538893,923.380681 C316.325143,923.941778 316.200456,924.547414 316.200456,925.179715 C316.200456,927.998536 318.511635,930.309715 321.330456,930.309715 C324.149277,930.309715 326.460456,927.998536 326.460456,925.179715 C326.460456,922.360894 324.149277,920.049715 321.330456,920.049715 C319.965591,920.049715 318.725385,920.595222 317.803581,921.474715 L311.676081,917.716249 C312.005609,916.843465 312.210456,915.90382 312.210456,914.919715 C312.210456,913.928884 312.007838,912.982627 311.676081,912.10534 L317.785911,908.346874 C318.709938,909.235276 319.956813,909.789658 321.330627,909.789658 C324.149448,909.789658 326.460627,907.478479 326.460627,904.659658 C326.460627,901.840837 324.149448,899.529658 321.330627,899.529658 C318.511806,899.529658 316.200627,901.840837 316.200627,904.659658 C316.200627,905.285347 316.314182,905.884246 316.521252,906.440908 L310.571592,910.110283 C309.331386,908.480425 307.485555,907.351597 305.370342,907.046533 L305.370342,899.956873 C307.645896,899.43363 309.360342,897.396319 309.360342,894.969373 C309.360342,892.150552 307.049163,889.839373 304.230342,889.839373 C301.411464,889.839373 299.100285,892.150552 299.100285,894.969373 Z M304.230285,892.119373 C305.817849,892.119373 307.080285,893.381809 307.080285,894.969373 C307.080285,896.556937 305.817849,897.819373 304.230285,897.819373 C302.642721,897.819373 301.380285,896.556937 301.380285,894.969373 C301.380285,893.381809 302.642721,892.119373 304.230285,892.119373 Z M287.130285,901.809373 C288.717849,901.809373 289.980285,903.071809 289.980285,904.659373 C289.980285,906.246937 288.717849,907.509373 287.130285,907.509373 C285.542721,907.509373 284.280285,906.246937 284.280285,904.659373 C284.280285,903.071809 285.542721,901.809373 287.130285,901.809373 Z M321.330285,901.809373 C322.917849,901.809373 324.180285,903.071809 324.180285,904.659373 C324.180285,906.246937 322.917849,907.509373 321.330285,907.509373 C319.742721,907.509373 318.480285,906.246937 318.480285,904.659373 C318.480285,903.071809 319.742721,901.809373 321.330285,901.809373 Z M304.230285,909.219373 C307.392018,909.219373 309.930285,911.75764 309.930285,914.919373 C309.930285,918.081106 307.392018,920.619373 304.230285,920.619373 C301.068552,920.619373 298.530285,918.081106 298.530285,914.919373 C298.530285,911.75764 301.068552,909.219373 304.230285,909.219373 Z M287.130285,922.329373 C288.717849,922.329373 289.980285,923.591809 289.980285,925.179373 C289.980285,926.766937 288.717849,928.029373 287.130285,928.029373 C285.542721,928.029373 284.280285,926.766937 284.280285,925.179373 C284.280285,923.591809 285.542721,922.329373 287.130285,922.329373 Z M321.330285,922.329373 C322.917849,922.329373 324.180285,923.591809 324.180285,925.179373 C324.180285,926.766937 322.917849,928.029373 321.330285,928.029373 C319.742721,928.029373 318.480285,926.766937 318.480285,925.179373 C318.480285,923.591809 319.742721,922.329373 321.330285,922.329373 Z M304.230285,932.019373 C305.817849,932.019373 307.080285,933.281809 307.080285,934.869373 C307.080285,936.456937 305.817849,937.719373 304.230285,937.719373 C302.642721,937.719373 301.380285,936.456937 301.380285,934.869373 C301.380285,933.281809 302.642721,932.019373 304.230285,932.019373 Z" id="Page-1"></path>
        </g>
    </g>
</svg>