<?xml version="1.0" encoding="UTF-8"?>
<svg width="53px" height="50px" viewBox="0 0 53 50" version="1.1" xmlns="http://www.w3.org/2000/svg" xmlns:xlink="http://www.w3.org/1999/xlink">
    <!-- Generator: Sketch 51.3 (57544) - http://www.bohemiancoding.com/sketch -->
    <title>Page 2</title>
    <desc>Created with Sketch.</desc>
    <defs></defs>
    <g id="Page-1" stroke="none" stroke-width="1" fill="none" fill-rule="evenodd">
        <g id="Marketing-Page" transform="translate(-793.000000, -713.000000)" fill="#48BFFF">
            <path d="M835.559933,719.092224 C835.559933,720.052224 835.814935,721.012224 836.327421,721.779712 L832.934909,725.172224 C832.167421,724.724723 831.207421,724.404736 830.247421,724.404736 C827.367421,724.404736 824.999933,726.772224 824.999933,729.652224 C824.999933,730.612224 825.254935,731.572224 825.767421,732.339712 L822.694909,735.412224 C821.862397,734.837222 820.774909,734.452224 819.687421,734.452224 C818.534909,734.452224 817.447421,734.837222 816.552445,735.477248 L813.544957,732.46976 C814.057457,731.637248 814.312445,730.742272 814.312445,729.717248 C814.312445,726.837248 811.944957,724.46976 809.064957,724.46976 C806.184957,724.46976 803.817469,726.837248 803.817469,729.717248 C803.817469,730.677248 804.072471,731.572224 804.522493,732.342272 L800.934973,735.9248 C800.167485,735.477299 799.207485,735.157312 798.247485,735.157312 C795.367485,735.157312 793,737.5248 793,740.4048 C793,742.899776 794.727485,745.012288 797.094973,745.5248 L797.094973,761.65216 C797.094973,762.357184 797.669975,762.93216 798.374973,762.93216 C799.079972,762.93216 799.654973,762.357158 799.654973,761.65216 L799.654973,745.5248 C801.894973,744.8848 803.559997,742.899776 803.559997,740.469824 C803.559997,739.509824 803.304996,738.549824 802.792509,737.782336 L806.247485,734.32736 C806.694986,734.582362 807.207485,734.839859 807.719997,734.96736 L807.719997,761.72 C807.719997,762.425024 808.294999,763 808.999997,763 C809.705021,763 810.279997,762.424998 810.279997,761.72 L810.279997,734.90016 C810.792497,734.772659 811.239997,734.58016 811.625021,734.325158 L814.825021,737.525158 C814.505021,738.230182 814.312522,738.932646 814.312522,739.765158 C814.312522,742.19767 816.04001,744.310182 818.28001,744.885158 L818.28001,761.652518 C818.28001,762.357542 818.855012,762.932518 819.56001,762.932518 C820.265034,762.932518 820.84001,762.357517 820.84001,761.652518 L820.84001,744.947238 C823.145034,744.372237 824.807498,742.322214 824.807498,739.827238 C824.807498,738.994726 824.614999,738.162214 824.232497,737.45975 L827.432497,734.25975 C827.879997,734.514752 828.327473,734.707251 828.839985,734.834752 L828.839985,761.714752 C828.839985,762.419776 829.414986,762.994752 830.119985,762.994752 C830.825009,762.994752 831.399985,762.41975 831.399985,761.714752 L831.399985,734.834752 C833.705009,734.25975 835.367473,732.209728 835.367473,729.714752 C835.367473,728.754752 835.112471,727.794752 834.599985,727.027264 L837.992497,723.634752 C838.439997,723.889754 838.887473,724.082253 839.399985,724.209754 L839.399985,761.649754 C839.399985,762.354778 839.974986,762.929754 840.679985,762.929754 C841.385009,762.929754 841.959985,762.354752 841.959985,761.649754 L841.959985,724.212314 C844.265009,723.637312 845.927473,721.58729 845.927473,719.092314 C846.054973,716.212314 843.687473,713.844826 840.807473,713.844826 C837.927421,713.844736 835.559933,716.212224 835.559933,719.092224 Z M840.807421,721.844736 C839.334909,721.844736 838.119933,720.62976 838.119933,719.157248 C838.119933,717.684736 839.334909,716.46976 840.807421,716.46976 C842.279933,716.46976 843.494909,717.684736 843.494909,719.157248 C843.494909,720.627264 842.279933,721.844736 840.807421,721.844736 Z M832.870141,729.714816 C832.870141,731.187328 831.655165,732.402304 830.182653,732.402304 C828.710141,732.402304 827.495165,731.187328 827.495165,729.714816 C827.495165,728.242304 828.710141,727.027328 830.182653,727.027328 C831.655165,727.027328 832.870141,728.2448 832.870141,729.714816 Z M822.247421,739.827456 C822.247421,741.299968 821.032445,742.514944 819.559933,742.514944 C818.087421,742.514944 816.872445,741.299968 816.872445,739.827456 C816.872445,738.354944 818.087421,737.139968 819.559933,737.139968 C821.029949,737.139968 822.247421,738.29248 822.247421,739.827456 Z M808.934781,732.532736 C807.462269,732.532736 806.247293,731.31776 806.247293,729.845248 C806.247293,728.372736 807.462269,727.15776 808.934781,727.15776 C810.407293,727.15776 811.622269,728.372736 811.622269,729.845248 C811.622269,731.315264 810.407293,732.532736 808.934781,732.532736 Z M800.934781,740.467456 C800.934781,741.939968 799.719805,743.154944 798.247293,743.154944 C796.774781,743.154944 795.559805,741.939968 795.559805,740.467456 C795.559805,738.994944 796.774781,737.779968 798.247293,737.779968 C799.719805,737.779968 800.934781,738.93248 800.934781,740.467456 Z" id="Page-2"></path>
        </g>
    </g>
</svg>