<?xml version="1.0" encoding="utf-8"?>
<!-- Generator: Adobe Illustrator 19.0.0, SVG Export Plug-In . SVG Version: 6.00 Build 0)  -->
<svg version="1.1" id="Layer_1" xmlns="http://www.w3.org/2000/svg" xmlns:xlink="http://www.w3.org/1999/xlink" x="0px" y="0px"
	 viewBox="0 0 140 140" style="enable-background:new 0 0 140 140;" xml:space="preserve">
<style type="text/css">
	.st0{fill:#FFFFFF;}
</style>
<g>
	<g id="XMLID_62_">
		<path id="XMLID_63_" class="st0" d="M134,102c0-1.9-0.3-2.2-2.2-2.2c-2.4,0-4.8,0-7.3,0v-1.8c0-21.5,0-42.9,0-64.4
			c0-3.9-2.1-6-5.9-6c-32.4,0-64.8,0-97.2,0c-0.7,0-1.5,0-2.2,0.3c-2.4,0.7-3.7,2.8-3.7,5.6c0,21.5,0,43.1,0,64.6v1.7
			c-2.6,0-5.1,0-7.6,0c-1.5,0-1.9,0.4-1.9,1.9c0,1.8,0,3.6,0,5.4c0.1,3.3,2.3,5.5,5.6,5.5c38.9,0,77.7,0,116.6,0
			c3.5,0,5.7-2.2,5.8-5.7C134,105.2,134,103.6,134,102z M18.2,85.2c0-17.2,0-34.4,0-51.6c0-2.5,0.9-3.4,3.4-3.4
			c32.2,0,64.4,0,96.6,0c2.9,0,3.7,0.8,3.7,3.7c0,21.4,0,42.7,0,64.1v1.7h-1.6c-12.6,0-25.2,0-37.9,0c-2.1,0-2.4,0.3-2.4,2.4
			c0,1.7-0.1,1.8-1.7,1.8c-6.7,0-13.4,0-20.1,0c-1.3,0-1.6-0.5-1.6-1.7c0.1-2.3-0.2-2.5-2.5-2.5H18.2C18.2,94.7,18.2,90,18.2,85.2z
			 M131.2,107.6c-0.1,1.4-1.3,2.2-3.1,2.2c-5.2,0-10.5,0-15.7,0c-33.2,0-66.4,0-99.6,0c-0.6,0-1.2,0-1.8-0.1
			c-1.3-0.2-2.3-1.1-2.3-2.4c-0.1-1.6,0-3.1,0-4.8h45c0,0.2,0.1,0.3,0.1,0.5c0.2,2.3,1.5,3.5,3.7,3.6c7.1,0,14.3,0,21.4,0
			c2.3,0,3.3-1.2,3.8-4.1h48.5C131.3,104.3,131.3,106,131.2,107.6z M26,94.5h88.1c2.1,0,2.4-0.2,2.4-2.4c0-18,0-36.1,0-54.1
			c0-2.3-0.2-2.5-2.4-2.5H25.9c-2.1,0-2.4,0.3-2.4,2.4c0,18,0,36.1,0,54.1C23.6,94.3,23.8,94.5,26,94.5z M26.3,38.2h87.3v53.5H26.3
			V38.2z"/>
	</g>
</g>
</svg>
