<svg xmlns="http://www.w3.org/2000/svg" viewBox="0 0 80 40">
<g fill="#48BFFF">
<path class="st0" d="M58,39.7c-0.9-1.5-0.6-2.1,1.2-2.2c6.7-0.5,11.9-5.7,12.2-12.3c0.2-6.6-4.6-12.3-11.2-13.2
	c-2.3-0.3-4.5,0-6.6,0.9c-1.9,0.8-1.8,0.8-2.9-1c-3.7-6.3-9.2-9.6-16.6-9.2C25.4,3.1,18.4,10.3,18,19.2c-0.1,1.7-0.1,1.7-1.9,1.9
	c-4.2,0.4-7.4,3.9-7.4,8.1c0,4.1,3,7.6,7.2,8.2c0.2,0,0.3,0,0.5,0.1c1.7,0.2,2,0.8,1.1,2.2c-0.8,0-1.6,0-2.4,0
	c-0.1-0.1-0.3-0.2-0.4-0.2c-4.4-1.1-7-3.9-8-8.3c0-0.1-0.1-0.3-0.2-0.4c0-1,0-1.9,0-2.9c0.1-0.1,0.2-0.2,0.2-0.3
	c1-4.7,3.8-7.5,8.4-8.5c0.7-0.1,0.8-0.5,0.8-1.1c0.9-8.4,7.1-15.4,15.4-17.2c0.8-0.2,1.5-0.3,2.3-0.5c1.3,0,2.6,0,3.8,0
	c0.2,0.1,0.4,0.2,0.7,0.2c6.1,0.9,10.9,4,14.1,9.3c0.5,0.8,0.8,0.9,1.7,0.6C62.2,7.6,71,12.5,73.2,21c0.1,0.5,0.3,1.1,0.4,1.6
	c0,1.4,0,2.7,0,4.1c-0.1,0.2-0.2,0.4-0.2,0.6c-1.4,6.3-5.2,10.3-11.5,12c-0.4,0.1-0.8,0.2-1.2,0.4C59.8,39.7,58.9,39.7,58,39.7z"/>
<path class="st0" d="M25.6,15.6c0.6,0.2,1,0.9,1.2,1.4c1.5,4.1,3,8.2,4.4,12.3c0.1,0.4,0.1,1.1-0.1,1.2c-0.6,0.2-1.3,0.2-1.5-0.6
	c0-0.1-0.1-0.2-0.1-0.3c-1-2.7-1-2.7-3.9-2.7c0,0-0.1,0-0.1,0c-3,0-3,0-4.1,2.8c-0.2,0.4-0.6,0.8-1,0.9c-0.6,0.2-1-0.2-0.8-0.9
	c1.6-4.3,3.1-8.6,4.7-12.9C24.4,16.3,24.9,15.4,25.6,15.6z M25.4,18c-0.9,2.5-1.7,4.8-2.5,7.1c1.7,0,3.2,0,5,0
	C27.1,22.8,26.3,20.6,25.4,18z"/>
<path class="st0" d="M45.3,29.1c-0.1,0.3-0.1,0.6-0.3,0.7c-0.1,0.3-0.5,0.8-0.8,0.7c-0.3-0.1-0.5-0.6-0.5-0.9c0-2.2,0-4.5,0-6.7
	c0-2.2,0-4.3,0-6.5c0-0.6-0.3-1.5,0.9-1.5c1.1,0,0.7,0.9,0.7,1.4c0,1.3,0,2.6,0,4.1c0.5-0.2,0.8-0.4,1.1-0.5
	c2.5-1.1,4.9-0.1,5.8,2.5c0.5,1.8,0.5,3.6-0.1,5.3c-1,2.8-3.6,3.6-6.1,1.9C45.8,29.5,45.6,29.4,45.3,29.1z M45.4,24.8
	c0,0.6,0,1.2,0,1.8c0,1.2,0.6,1.9,2.1,2.3c1.1,0.3,2.1,0,2.7-1c1-1.8,1-3.8,0.1-5.6c-0.5-1.2-1.8-1.5-3.3-1.2
	c-1.3,0.3-1.8,1.1-1.6,2.4C45.4,23.9,45.4,24.4,45.4,24.8z"/>
<path class="st0" d="M63.3,25.1c-0.1,0.6-0.1,1.3-0.3,1.9c-0.5,2.5-2,3.6-4.6,3.5c-2.5,0-4.1-1.3-4.5-3.6c-0.2-1.2-0.2-2.6,0-3.8
	c0.4-2.4,2.1-3.6,4.6-3.6c2.4,0,3.9,1.2,4.4,3.6C63.2,23.8,63.2,24.5,63.3,25.1z M61.6,25.1c-0.1-0.6-0.1-1.3-0.3-1.9
	C61,21.7,60,21,58.6,21c-1.5,0-2.5,0.6-2.8,2.1c-0.2,1.3-0.2,2.7,0,4c0.2,1.4,1.3,2,2.7,2.1c1.5,0,2.5-0.7,2.8-2.1
	C61.5,26.4,61.5,25.7,61.6,25.1z"/>
<path class="st0" d="M38.6,20.6c1-0.4,1.8-0.8,2.6-1c0.6-0.1,1.1,0.3,1,1c0,0.7-0.4,0.8-1,0.7c-1.4-0.2-2.4,0.7-2.4,2.1
	c0,2,0,4.1,0,6.1c0,0.6-0.1,1-0.8,1c-0.7,0-0.8-0.4-0.8-1c-0.1-3-0.1-6-0.2-9c0-0.2,0.2-0.6,0.4-0.7c0.3-0.1,0.7,0.1,0.9,0.2
	C38.5,20.2,38.5,20.6,38.6,20.6z"/>
<path class="st0" d="M32.6,25c0-1.4,0-2.9,0-4.3c0-0.6,0.1-1,0.8-1c0.8,0,0.9,0.4,0.9,1.1c0,2.9,0,5.7,0,8.6c0,0.6-0.1,1.1-0.9,1.1
	c-0.8,0-0.9-0.5-0.8-1.1C32.7,27.9,32.6,26.5,32.6,25z"/>
<path class="st0" d="M34.6,15.7c-0.1,1-0.5,1.3-1.2,1.3c-0.8,0-0.9-0.4-0.9-1.1c0-0.7,0.3-1.1,1-0.9C34,15,34.3,15.4,34.6,15.7z"/>
</g>
</svg>
