<svg xmlns="http://www.w3.org/2000/svg" viewBox="0 0 140 140">
<style type="text/css">
	.st0{fill:#FFFFFF;}
</style>
<g>
	<g id="XMLID_61_">
		<path id="XMLID_62_" class="st0" d="M102.5,114c0-29.6,0-59.2,0-88.9c0-4.8-2.8-7.6-7.6-7.6c-16.7,0-33.4,0-50.1,0
			c-4.4,0-7.3,2.9-7.3,7.4c0,15,0,30,0,45c0,15.1,0,30.2,0,45.2c0,4.5,2.9,7.4,7.5,7.4c6.3,0,12.6,0,18.9,0c10.5,0,21.1,0,31.6,0
			c3.5,0,6.3-2.3,7-5.6C102.6,115.9,102.5,114.9,102.5,114z M100,114.7c0,3.5-1.7,5.2-5.2,5.2c-16.5,0-33,0-49.5,0
			c-3.6,0-5.3-1.6-5.3-5.3c0-29.8,0-59.6,0-89.4c0-3.6,1.6-5.3,5.3-5.3c16.5,0,33,0,49.5,0c3.5,0,5.2,1.7,5.2,5.2
			c0,14.9,0,29.8,0,44.7C100,84.9,100,99.8,100,114.7z M95.6,27.3c0-2-0.2-2.2-2.2-2.2c-15.4,0-30.8,0-46.2,0c-2,0-2.3,0.3-2.3,2.3
			c0,26,0,52.1,0,78.1c0,2,0.3,2.3,2.3,2.3c15.4,0,30.8,0,46.2,0c2,0,2.2-0.2,2.2-2.2c0-13,0-26.1,0-39.1
			C95.6,53.3,95.6,40.3,95.6,27.3z M93,105.1H47.5V27.7H93V105.1z M70.1,111.9c-1.1,0-2,0.8-2,1.9c0,1,0.9,1.9,1.9,1.9
			c1,0,1.9-0.8,1.9-1.9C72,112.8,71.1,112,70.1,111.9z"/>
	</g>
</g>
</svg>
