<svg xmlns="http://www.w3.org/2000/svg" viewBox="0 0 80 80"><path fill="#4FD4C0" d="M36.9,12l2.1,3.6c-8.2,4.3-13.7,8.2-16.6,11.6c-1.9,2.3-2.8,4.5-2.8,6.5c0,2.1,1.5,4.5,4.5,7.3c3,2.8,5.1,5.2,6.1,7.3c0.8,1.5,1.1,3.2,1.1,5.1c0,3.9-1.4,7.3-4.2,10.1s-6.3,4.2-10.5,4.2c-4.1,0-7.5-1.5-10.3-4.5c-2.8-3-4.2-6.9-4.2-11.6c0-7.3,2.2-13.8,6.7-19.6C14.8,24.4,24.1,17.7,36.9,12z M75.6,12l2.2,3.9c-8.4,4.4-13.9,8.2-16.5,11.3c-1.8,2.2-2.7,4.5-2.7,6.8c0,2.1,1.6,4.6,4.8,7.6c4.5,4,6.8,8,6.8,12c0,3.9-1.4,7.3-4.3,10.2S59.7,68,55.9,68c-4,0-7.5-1.6-10.5-4.8c-3-3.2-4.5-7.1-4.5-11.7c0-7.3,2.5-14,7.4-20.2C54.5,23.3,63.6,16.9,75.6,12z"/></svg>
