<?xml version="1.0" encoding="utf-8"?>
<!-- Generator: Adobe Illustrator 19.0.0, SVG Export Plug-In . SVG Version: 6.00 Build 0)  -->
<svg version="1.1" id="Layer_1" xmlns="http://www.w3.org/2000/svg" xmlns:xlink="http://www.w3.org/1999/xlink" x="0px" y="0px"
	 viewBox="0 0 140 140" style="enable-background:new 0 0 140 140;" xml:space="preserve">
<style type="text/css">
	.st0{fill:#FFFFFF;}
</style>
<g>
	<g id="XMLID_61_">
		<path id="XMLID_62_" class="st0" d="M111.5,24.2c0-4.2-2.6-6.7-6.8-6.7c-23.2,0-46.3,0-69.5,0c-4.1,0-6.7,2.6-6.7,6.7
			c0,15.2,0,30.5,0,45.8c0,15.3,0,30.5,0,45.8c0,4,2.6,6.7,6.4,6.7c23.3,0,46.6,0,69.8,0c4.1,0,6.7-2.6,6.7-6.7
			C111.5,85.2,111.5,54.7,111.5,24.2z M108.9,115.3c0,3.4-1.2,4.7-4.6,4.7c-22.9,0-45.7,0-68.6,0c-3.3,0-4.6-1.3-4.6-4.5
			c0-30.4,0-60.8,0-91.1c0-2.9,1.4-4.3,4.3-4.3c23,0,46.1,0,69.1,0c3.1,0,4.4,1.3,4.4,4.4c0,15.2,0,30.3,0,45.5
			C108.9,85.1,108.9,100.2,108.9,115.3z M100.6,26.4c-20.4,0-40.7,0-61.1,0c-1.9,0-2.1,0.2-2.1,2.1c0,12.5,0,25.1,0,37.6
			c0,12.6,0,25.2,0,37.8c0,1.6,0.3,1.9,1.9,1.9c20.5,0,41,0,61.4,0c1.4,0,1.8-0.3,1.8-1.8c0-25.3,0-50.5,0-75.8
			C102.6,26.7,102.3,26.4,100.6,26.4z M100,103.1H40V29.1H100V103.1z M70,111c-1.1,0-2,0.9-2,2c0,1,0.9,1.8,2,1.8
			c1,0,1.9-0.9,1.9-1.9C71.9,111.8,71.1,111,70,111z"/>
	</g>
</g>
</svg>
