<?xml version="1.0" encoding="UTF-8" standalone="no"?>
<svg width="50px" height="50px" viewBox="0 0 50 50" version="1.1" xmlns="http://www.w3.org/2000/svg" xmlns:xlink="http://www.w3.org/1999/xlink" xmlns:sketch="http://www.bohemiancoding.com/sketch/ns">
    <!-- Generator: Sketch 3.1.1 (8761) - http://www.bohemiancoding.com/sketch -->
    <title>activity-subnav</title>
    <desc>Created with Sketch.</desc>
    <defs></defs>
    <g id="Page-1" stroke="none" stroke-width="1" fill="none" fill-rule="evenodd" sketch:type="MSPage">
        <g id="activity" sketch:type="MSArtboardGroup" fill-opacity="0.25" fill="#FFFFFF">
            <path d="M1.70722476,28.1131756 L5.08148219,28.9673825 L7.62207625,24.8935894 L2.79435347,23.6706929 C1.58544258,23.3631986 0.366630702,24.1122101 0.0671257516,25.3391526 C-0.232874248,26.5655894 0.500789118,27.8071986 1.70722476,28.1131756 L1.70722476,28.1131756 Z M45.7453436,28.7716584 L34.699304,38.9306009 L21.7106901,28.662417 C21.4631654,28.4666929 21.1780168,28.3260952 20.8735614,28.2492216 L19.1438584,27.8107388 L16.6037594,31.8855434 L19.3250465,32.574371 L33.4280168,43.7230607 C33.8359376,44.0452216 34.3225713,44.2045319 34.8082149,44.2045319 C35.3507891,44.2045319 35.8908881,44.0062791 36.3181159,43.6138193 L48.7631654,32.1677503 C49.6854426,31.3206239 49.7567297,29.8726699 48.9240564,28.9350147 C48.0903931,27.9973595 46.6676208,27.9235204 45.7453436,28.7716584 L45.7453436,28.7716584 Z M21.4943535,17.6168998 L33.5918782,25.5288078 C34.6126703,26.1953825 35.969601,25.9197503 36.6597,24.9047159 L49.1057396,6.5916124 C49.8121753,5.55179631 49.5562347,4.12558941 48.5344525,3.40692275 C47.5106901,2.68673884 46.1101951,2.9482101 45.4032644,3.9880262 L34.1953436,20.4799342 L22.0240564,12.520486 C21.520096,12.1907388 20.9082149,12.0809917 20.3220762,12.210463 C19.7374228,12.3419572 19.2280168,12.7050837 18.9072248,13.2199342 L0.350789118,42.9780952 C-0.315052466,44.0462331 -0.0036663276,45.4608078 1.04534357,46.1374975 C1.41910595,46.3787388 1.83593763,46.4945549 2.24831387,46.4945549 C2.99336338,46.4945549 3.72207625,46.1182791 4.15029407,45.4309687 L21.4943535,17.6168998 L21.4943535,17.6168998 Z" id="Imported-Layers" sketch:type="MSShapeGroup"></path>
        </g>
    </g>
</svg>