<?xml version="1.0" encoding="UTF-8" standalone="no"?>
<svg width="50px" height="50px" viewBox="0 0 50 50" version="1.1" xmlns="http://www.w3.org/2000/svg" xmlns:xlink="http://www.w3.org/1999/xlink" xmlns:sketch="http://www.bohemiancoding.com/sketch/ns">
    <!-- Generator: Sketch 3.1.1 (8761) - http://www.bohemiancoding.com/sketch -->
    <title>prizes-subnav</title>
    <desc>Created with Sketch.</desc>
    <defs></defs>
    <g id="Page-1" stroke="none" stroke-width="1" fill="none" fill-rule="evenodd" sketch:type="MSPage">
        <g id="prizes" sketch:type="MSArtboardGroup" fill-opacity="0.25" fill="#FFFFFF">
            <path d="M27.7301758,36.2488495 C27.7301758,32.5818387 30.5093846,30.5552796 35.0446813,27.5513226 C40.590967,23.8777419 47.4945055,19.3056022 47.4945055,8.45315054 C47.4945055,7.47625806 46.6932967,6.68433333 45.7050549,6.68433333 L37.0353187,6.68433333 C35.8094945,4.42125806 32.1593187,2 24.7472527,2 C17.3351868,2 13.685011,4.42125806 12.4586813,6.68433333 L3.78945055,6.68433333 C2.80120879,6.68433333 2,7.47625806 2,8.45315054 C2,19.3056022 8.90353846,23.8777419 14.4498242,27.5513226 C18.9851209,30.5552796 21.7638242,32.5818387 21.7638242,36.2488495 L21.7638242,39.5605806 C17.0015604,40.0897097 13.5015165,41.851957 13.5015165,43.9462366 C13.5015165,46.457957 18.5362418,48.4946237 24.7472527,48.4946237 C30.9577582,48.4946237 35.992989,46.457957 35.992989,43.9462366 C35.992989,41.851957 32.4929451,40.0897097 27.7301758,39.5605806 L27.7301758,36.2488495 L27.7301758,36.2488495 Z M34.747956,23.4779892 C36.1825495,20.4447204 37.3163736,16.3339892 37.4998681,10.2219677 L43.8402857,10.2219677 C43.2377363,17.0435376 39.1366593,20.4886882 34.747956,23.4779892 L34.747956,23.4779892 Z M24.7472527,5.09745161 C31.6528132,5.0934086 34.3501319,7.91694624 34.3465934,8.96358065 C34.3465934,10.0167849 31.6538242,12.8357742 24.7472527,12.8418387 C17.8406813,12.8357742 15.1479121,10.0167849 15.1479121,8.96358065 C15.1443736,7.91694624 17.8416923,5.0934086 24.7472527,5.09745161 L24.7472527,5.09745161 Z M5.65371429,10.2219677 L11.9941319,10.2219677 C12.1781319,16.3339892 13.311956,20.4447204 14.7465495,23.4779892 C10.3578462,20.4886882 6.25676923,17.0435376 5.65371429,10.2219677 L5.65371429,10.2219677 Z" id="Imported-Layers" sketch:type="MSShapeGroup"></path>
        </g>
    </g>
</svg>