<?xml version="1.0" encoding="UTF-8" standalone="no"?>
<svg width="50px" height="50px" viewBox="0 0 50 50" version="1.1" xmlns="http://www.w3.org/2000/svg" xmlns:xlink="http://www.w3.org/1999/xlink" xmlns:sketch="http://www.bohemiancoding.com/sketch/ns">
    <!-- Generator: Sketch 3.1.1 (8761) - http://www.bohemiancoding.com/sketch -->
    <title>share-subnav</title>
    <desc>Created with Sketch.</desc>
    <defs></defs>
    <g id="Page-1" stroke="none" stroke-width="1" fill="none" fill-rule="evenodd" sketch:type="MSPage">
        <g id="share" sketch:type="MSArtboardGroup" fill-opacity="0.25" fill="#FFFFFF">
            <path d="M37.9012346,32.3296703 C36.1625309,32.3296703 34.5650494,32.9200879 33.2844321,33.9027692 L20.0758519,25.9882418 C20.1416543,25.5833407 20.1851852,25.1703516 20.1851852,24.7472527 C20.1851852,24.3231429 20.1416543,23.9111648 20.0758519,23.5057582 L33.2844321,15.5912308 C34.5650494,16.5744176 36.1625309,17.1648352 37.9012346,17.1648352 C42.0943704,17.1648352 45.4938272,13.7694286 45.4938272,9.58241758 C45.4938272,5.3949011 42.0943704,2 37.9012346,2 C33.7086049,2 30.308642,5.3949011 30.308642,9.58241758 C30.308642,10.0055165 30.3521728,10.4185055 30.4194938,10.8234066 L17.2104074,18.7379341 C15.9302963,17.7552527 14.3328148,17.1648352 12.5925926,17.1648352 C8.39996296,17.1648352 5,20.5597363 5,24.7472527 C5,28.9342637 8.39996296,32.3296703 12.5925926,32.3296703 C14.3328148,32.3296703 15.9302963,31.7392527 17.2104074,30.7560659 L30.4194938,38.6705934 C30.3521728,39.0754945 30.308642,39.487978 30.308642,39.9120879 C30.308642,44.0990989 33.7086049,47.4945055 37.9012346,47.4945055 C42.0943704,47.4945055 45.4938272,44.0990989 45.4938272,39.9120879 C45.4938272,35.7245714 42.0943704,32.3296703 37.9012346,32.3296703" id="Imported-Layers" sketch:type="MSShapeGroup"></path>
        </g>
    </g>
</svg>