<?xml version="1.0" encoding="UTF-8" standalone="no"?>
<svg width="50px" height="50px" viewBox="0 0 50 50" version="1.1" xmlns="http://www.w3.org/2000/svg" xmlns:xlink="http://www.w3.org/1999/xlink" xmlns:sketch="http://www.bohemiancoding.com/sketch/ns">
    <!-- Generator: Sketch 3.1.1 (8761) - http://www.bohemiancoding.com/sketch -->
    <title>users-subnav</title>
    <desc>Created with Sketch.</desc>
    <defs></defs>
    <g id="Page-1" stroke="none" stroke-width="1" fill="none" fill-rule="evenodd" sketch:type="MSPage">
        <g id="users" sketch:type="MSArtboardGroup" fill-opacity="0.25" fill="#FFFFFF">
            <path d="M48.5346535,45.5393258 C48.5346535,45.5393258 48.4429802,36.8169213 47.9050396,35.912618 C47.1041782,34.5660674 45.2390693,33.6410337 41.7764257,32.2083371 C38.3254158,30.7797865 37.2220792,29.5751236 37.2220792,26.9953483 C37.2220792,25.4456404 38.2751584,25.952382 38.7386436,23.1169326 C38.9308317,21.9399101 39.8615248,23.0971236 40.0392871,20.4118539 C40.0392871,19.3412472 39.5315941,19.0745169 39.5315941,19.0745169 C39.5315941,19.0745169 39.789396,17.4916404 39.8903762,16.2717753 C40.0160198,14.7529326 39.1169703,10.8289101 34.3271584,10.8289101 C29.5364158,10.8289101 28.638297,14.7529326 28.7639406,16.2717753 C28.8649208,17.4916404 29.1217921,19.0745169 29.1217921,19.0745169 C29.1217921,19.0745169 28.6150297,19.3412472 28.6150297,20.4118539 C28.7932574,23.0971236 29.7230198,21.9399101 29.9156733,23.1169326 C30.3782277,25.952382 31.4322376,25.4456404 31.4322376,26.9953483 C31.4322376,28.7491348 30.9198911,29.8681124 29.5075644,30.8534944 C37.0475743,34.5900225 38.0583069,35.3510562 38.0583069,38.6918652 L38.0583069,45.5393258 L48.5346535,45.5393258 L48.5346535,45.5393258 Z M25.7871188,33.5051348 C21.1848416,31.6007079 19.7143465,29.9943371 19.7143465,26.5554045 C19.7143465,24.4897416 21.1192277,25.1646292 21.7367426,21.3829551 C21.9917525,19.8148202 23.233297,21.3571573 23.4706238,17.7763371 C23.4706238,16.3491685 22.7935446,15.9944494 22.7935446,15.9944494 C22.7935446,15.9944494 23.137901,13.8827191 23.2723861,12.2574607 C23.4399109,10.2318764 22.2416436,5 15.854297,5 C9.46741584,5 8.26868317,10.2318764 8.43667327,12.2574607 C8.57115842,13.8827191 8.9150495,15.9944494 8.9150495,15.9944494 C8.91458416,15.9944494 8.2379703,16.3491685 8.2379703,17.7763371 C8.47576238,21.3571573 9.71637624,19.8148202 9.97278218,21.3829551 C10.5898317,25.1646292 11.9951782,24.4897416 11.9951782,26.5554045 C11.9951782,29.9943371 10.5237525,31.6007079 5.92194059,33.5051348 C4.51938614,34.0851236 2,34.9843596 2,37.1472247 L2,45.5393258 L34.3271584,45.5393258 L34.3271584,39.2469775 C34.3271584,37.2739101 30.4033564,35.4160112 25.7871188,33.5051348 L25.7871188,33.5051348 Z" id="Imported-Layers" sketch:type="MSShapeGroup"></path>
        </g>
    </g>
</svg>