<?xml version="1.0" encoding="UTF-8"?>
<svg width="193px" height="193px" viewBox="0 0 193 193" version="1.1" xmlns="http://www.w3.org/2000/svg" xmlns:xlink="http://www.w3.org/1999/xlink">
    <!-- Generator: sketchtool 43.2 (39069) - http://www.bohemiancoding.com/sketch -->
    <title>30348D20-FF10-4158-9BBD-BFF39D54F661</title>
    <desc>Created with sketchtool.</desc>
    <defs>
        <path d="M114.584615,165.714286 C114.584615,169.028571 111.870769,171.74026 108.553846,171.74026 L6.03076923,171.74026 C2.71384615,171.74026 0,169.028571 0,165.714286 L0,6.02597403 C0,2.71168831 2.71384615,0 6.03076923,0 L108.553846,0 C111.870769,0 114.584615,2.71168831 114.584615,6.02597403 L114.584615,165.714286 L114.584615,165.714286 L114.584615,165.714286 Z" id="path-1"></path>
        <polygon id="path-3" points="0 0 102.523077 0 102.523077 137.844156 0 137.844156"></polygon>
        <polygon id="path-5" points="0 0 101.015385 0 101.015385 136.337662 0 136.337662"></polygon>
        <path d="M0,0 L102.523077,0 L102.523077,137.844156 L0,137.844156 L0,0 L0,0 Z M101.015385,1.50649351 L101.015385,136.337662 L1.50769231,136.337662 L1.50769231,1.50649351 L101.015385,1.50649351 L101.015385,1.50649351 Z" id="path-7"></path>
        <polygon id="path-9" points="47.232121 -7.01314908e-15 94.464242 -7.01314908e-15 94.464242 -2.84217094e-14 43.7801258 137.844156 21.8900629 137.844156 0 137.844156 0 -7.01314908e-15"></polygon>
        <path d="M2.86461538,1.80779221 C3.31692308,1.80779221 3.61846154,2.10909091 3.61846154,2.56103896 C3.61846154,3.01298701 3.31692308,3.31428571 2.86461538,3.31428571 C2.41230769,3.31428571 2.11076923,3.01298701 2.11076923,2.56103896 C2.11076923,2.10909091 2.48769231,1.80779221 2.86461538,1.80779221 L2.86461538,1.80779221 L2.86461538,1.80779221 Z M2.86461538,0.301298701 C1.58307692,0.301298701 0.603076923,1.28051948 0.603076923,2.56103896 C0.603076923,3.84155844 1.58307692,4.82077922 2.86461538,4.82077922 C4.14615385,4.82077922 5.12615385,3.84155844 5.12615385,2.56103896 C5.12615385,1.28051948 4.14615385,0.301298701 2.86461538,0.301298701 L2.86461538,0.301298701 L2.86461538,0.301298701 L2.86461538,0.301298701 Z" id="path-11"></path>
        <path d="M2.86461538,1.88311688 C3.31692308,1.88311688 3.61846154,2.18441558 3.61846154,2.63636364 C3.61846154,3.08831169 3.31692308,3.38961039 2.86461538,3.38961039 C2.41230769,3.38961039 2.11076923,3.08831169 2.11076923,2.63636364 C2.11076923,2.18441558 2.48769231,1.88311688 2.86461538,1.88311688 L2.86461538,1.88311688 L2.86461538,1.88311688 Z M2.86461538,0.376623377 C1.58307692,0.376623377 0.603076923,1.35584416 0.603076923,2.63636364 C0.603076923,3.91688312 1.58307692,4.8961039 2.86461538,4.8961039 C4.14615385,4.8961039 5.12615385,3.91688312 5.12615385,2.63636364 C5.12615385,1.35584416 4.14615385,0.376623377 2.86461538,0.376623377 L2.86461538,0.376623377 L2.86461538,0.376623377 L2.86461538,0.376623377 Z" id="path-13"></path>
        <path d="M2.11076923,1.35584416 C2.41230769,1.35584416 2.63846154,1.58181818 2.63846154,1.88311688 C2.63846154,2.18441558 2.41230769,2.41038961 2.11076923,2.41038961 C1.80923077,2.41038961 1.58307692,2.18441558 1.58307692,1.88311688 C1.58307692,1.58181818 1.88461538,1.35584416 2.11076923,1.35584416 L2.11076923,1.35584416 L2.11076923,1.35584416 Z M2.11076923,0.376623377 C1.28153846,0.376623377 0.603076923,1.05454545 0.603076923,1.88311688 C0.603076923,2.71168831 1.28153846,3.38961039 2.11076923,3.38961039 C2.94,3.38961039 3.61846154,2.71168831 3.61846154,1.88311688 C3.61846154,1.05454545 2.94,0.376623377 2.11076923,0.376623377 L2.11076923,0.376623377 L2.11076923,0.376623377 L2.11076923,0.376623377 Z" id="path-15"></path>
        <polygon id="path-17" points="0 0 50.5076923 0 50.5076923 94.9090909 0 94.9090909"></polygon>
        <path d="M0,0 L52.0153846,0 L52.0153846,95.6623377 L0,95.6623377 L0,0 L0,0 Z M50.5076923,0.753246753 L50.5076923,94.1558442 L1.50769231,94.1558442 L1.50769231,0.753246753 L50.5076923,0.753246753 L50.5076923,0.753246753 Z" id="path-19"></path>
        <polygon id="path-21" points="23.3241733 0 46.6483466 0 11.4341998 95.6623377 5.71709991 95.6623377 0 95.6623377 0 0"></polygon>
        <path d="M0,116.677922 L0,7.23116883 C0,4.74545455 1.96,2.41038961 4.44769231,2.10909091 C9.95076923,1.43116883 19.9769231,0.376623377 30.6061538,0.376623377 C41.16,0.376623377 51.1107692,1.43116883 56.6892308,2.10909091 C59.1769231,2.41038961 61.0615385,4.74545455 61.0615385,7.23116883 L61.0615385,116.677922 C61.0615385,118.335065 59.8553846,120.444156 58.2723077,120.820779 C54.0507692,121.875325 45.0046154,123.306494 30.6061538,123.306494 C16.2076923,123.306494 7.16153846,121.875325 2.94,120.820779 C1.28153846,120.444156 0,118.335065 0,116.677922 L0,116.677922 L0,116.677922 Z" id="path-23"></path>
        <path d="M2.26153846,1.80779221 C2.71384615,1.80779221 3.01538462,2.10909091 3.01538462,2.56103896 C3.01538462,3.01298701 2.71384615,3.31428571 2.26153846,3.31428571 C1.80923077,3.31428571 1.50769231,3.01298701 1.50769231,2.56103896 C1.50769231,2.10909091 1.80923077,1.80779221 2.26153846,1.80779221 L2.26153846,1.80779221 L2.26153846,1.80779221 Z M2.26153846,0.301298701 C0.98,0.301298701 0,1.28051948 0,2.56103896 C0,3.84155844 0.98,4.82077922 2.26153846,4.82077922 C3.54307692,4.82077922 4.52307692,3.84155844 4.52307692,2.56103896 C4.52307692,1.28051948 3.54307692,0.301298701 2.26153846,0.301298701 L2.26153846,0.301298701 L2.26153846,0.301298701 L2.26153846,0.301298701 Z" id="path-25"></path>
        <path d="M1.50769231,1.28051948 C1.80923077,1.28051948 2.03538462,1.50649351 2.03538462,1.80779221 C2.03538462,2.10909091 1.80923077,2.33506494 1.50769231,2.33506494 C1.20615385,2.33506494 0.98,2.10909091 0.98,1.80779221 C0.98,1.50649351 1.20615385,1.28051948 1.50769231,1.28051948 L1.50769231,1.28051948 L1.50769231,1.28051948 Z M1.50769231,0.301298701 C0.678461538,0.301298701 0,0.979220779 0,1.80779221 C0,2.63636364 0.678461538,3.31428571 1.50769231,3.31428571 C2.33692308,3.31428571 3.01538462,2.63636364 3.01538462,1.80779221 C3.01538462,0.979220779 2.33692308,0.301298701 1.50769231,0.301298701 L1.50769231,0.301298701 L1.50769231,0.301298701 L1.50769231,0.301298701 Z" id="path-27"></path>
        <polygon id="path-29" points="0 0 50.5076923 0 50.5076923 94.1558442 0 94.1558442"></polygon>
        <path d="M0,0 L52.0153846,0 L52.0153846,95.6623377 L0,95.6623377 L0,0 L0,0 Z M50.5076923,1.50649351 L50.5076923,94.1558442 L1.50769231,94.1558442 L1.50769231,1.50649351 L50.5076923,1.50649351 L50.5076923,1.50649351 Z" id="path-31"></path>
        <polygon id="path-33" points="23.3995579 0 46.7991158 0 46.7991158 0 11.5849691 95.6623377 5.79248453 95.6623377 0 95.6623377 0 0"></polygon>
    </defs>
    <g id="Page-1" stroke="none" stroke-width="1" fill="none" fill-rule="evenodd">
        <g id="00.02.01_Homepage" transform="translate(-622.000000, -1540.000000)">
            <g id="startup-13" transform="translate(622.000000, 1540.000000)">
                <rect id="Rectangle-21" fill="#FFFFFF" fill-rule="nonzero" x="0" y="0" width="193" height="193"></rect>
                <g id="Page-1" transform="translate(55.415385, 6.000000)">
                    <g id="Group-3">
                        <g id="Fill-1-Clipped">
                            <mask id="mask-2" fill="white">
                                <use xlink:href="#path-1"></use>
                            </mask>
                            <g id="path-1"></g>
                            <polygon id="Fill-1" fill="#FFFFFF" fill-rule="nonzero" mask="url(#mask-2)" points="-3.76923077 -3.76623377 118.353846 -3.76623377 118.353846 175.506494 -3.76923077 175.506494"></polygon>
                        </g>
                    </g>
                    <path d="M114.584615,165.714286 C114.584615,169.028571 111.870769,171.74026 108.553846,171.74026 L6.03076923,171.74026 C2.71384615,171.74026 0,169.028571 0,165.714286 L0,6.02597403 C0,2.71168831 2.71384615,0 6.03076923,0 L108.553846,0 C111.870769,0 114.584615,2.71168831 114.584615,6.02597403 L114.584615,165.714286 L114.584615,165.714286 L114.584615,165.714286 Z" id="Stroke-4" stroke="#1485E0" stroke-width="4"></path>
                    <g id="Group-7" transform="translate(6.030769, 15.818182)">
                        <g id="Fill-5-Clipped">
                            <mask id="mask-4" fill="white">
                                <use xlink:href="#path-3"></use>
                            </mask>
                            <g id="path-3"></g>
                            <polygon id="Fill-5" fill="#C4E1F7" fill-rule="nonzero" mask="url(#mask-4)" points="-3.76923077 -3.76623377 106.292308 -3.76623377 106.292308 141.61039 -3.76923077 141.61039"></polygon>
                        </g>
                    </g>
                    <g id="Group-14" transform="translate(6.030769, 15.818182)">
                        <g id="Group-10" transform="translate(0.753846, 0.753247)">
                            <g id="Fill-8-Clipped">
                                <mask id="mask-6" fill="white">
                                    <use xlink:href="#path-5"></use>
                                </mask>
                                <g id="path-5"></g>
                                <polygon id="Fill-8" fill="#C4E1F7" fill-rule="nonzero" mask="url(#mask-6)" points="-3.76923077 -3.76623377 104.784615 -3.76623377 104.784615 140.103896 -3.76923077 140.103896"></polygon>
                            </g>
                        </g>
                        <g id="Group-13">
                            <g id="Fill-11-Clipped">
                                <mask id="mask-8" fill="white">
                                    <use xlink:href="#path-7"></use>
                                </mask>
                                <g id="path-7"></g>
                                <polygon id="Fill-11" fill="#1485E0" fill-rule="nonzero" mask="url(#mask-8)" points="-3.76923077 -3.76623377 106.292308 -3.76623377 106.292308 141.61039 -3.76923077 141.61039"></polygon>
                            </g>
                        </g>
                    </g>
                    <g id="Group-17" transform="translate(6.030769, 15.818182)">
                        <g id="Fill-15-Clipped">
                            <mask id="mask-10" fill="white">
                                <use xlink:href="#path-9"></use>
                            </mask>
                            <g id="path-9"></g>
                            <polygon id="Fill-15" fill-opacity="0.44" fill="#FFFFFF" fill-rule="nonzero" mask="url(#mask-10)" points="-61.8153846 -10.9220779 100.864615 -10.9220779 100.864615 144.020779 -61.8153846 144.020779"></polygon>
                        </g>
                    </g>
                    <path d="M57.1415385,165.864935 C59.5562977,165.864935 61.5138462,163.908943 61.5138462,161.496104 C61.5138462,159.083265 59.5562977,157.127273 57.1415385,157.127273 C54.7267793,157.127273 52.7692308,159.083265 52.7692308,161.496104 C52.7692308,163.908943 54.7267793,165.864935 57.1415385,165.864935 L57.1415385,165.864935 Z" id="Stroke-18" stroke="#1485E0" stroke-width="2"></path>
                    <g id="Group-21" transform="translate(54.276923, 4.519481)">
                        <g id="Fill-19-Clipped">
                            <mask id="mask-12" fill="white">
                                <use xlink:href="#path-11"></use>
                            </mask>
                            <g id="path-11"></g>
                            <polygon id="Fill-19" fill="#1485E0" fill-rule="nonzero" mask="url(#mask-12)" points="-3.16615385 -3.46493506 8.89538462 -3.46493506 8.89538462 8.58701299 -3.16615385 8.58701299"></polygon>
                        </g>
                    </g>
                </g>
                <g id="Page-1" transform="translate(23.000000, 56.467532)">
                    <g id="Group-3" transform="translate(27.138462, 3.766234)">
                        <g id="Fill-1-Clipped">
                            <mask id="mask-14" fill="white">
                                <use xlink:href="#path-13"></use>
                            </mask>
                            <g id="path-13"></g>
                            <polygon id="Fill-1" fill="#1485E0" fill-rule="nonzero" mask="url(#mask-14)" points="-3.16615385 -3.38961039 8.89538462 -3.38961039 8.89538462 8.66233766 -3.16615385 8.66233766"></polygon>
                        </g>
                    </g>
                    <g id="Group-6" transform="translate(8.292308, 4.519481)">
                        <g id="Fill-4-Clipped">
                            <mask id="mask-16" fill="white">
                                <use xlink:href="#path-15"></use>
                            </mask>
                            <g id="path-15"></g>
                            <polygon id="Fill-4" fill="#1485E0" fill-rule="nonzero" mask="url(#mask-16)" points="-3.16615385 -3.38961039 7.38769231 -3.38961039 7.38769231 7.15584416 -3.16615385 7.15584416"></polygon>
                        </g>
                    </g>
                    <g id="Group-13" transform="translate(4.523077, 12.051948)">
                        <g id="Group-9" transform="translate(0.753846, 0.000000)">
                            <g id="Fill-7-Clipped">
                                <mask id="mask-18" fill="white">
                                    <use xlink:href="#path-17"></use>
                                </mask>
                                <g id="path-17"></g>
                                <polygon id="Fill-7" fill="#C4E1F7" fill-rule="nonzero" mask="url(#mask-18)" points="-3.76923077 -3.76623377 54.2769231 -3.76623377 54.2769231 98.6753247 -3.76923077 98.6753247"></polygon>
                            </g>
                        </g>
                        <g id="Group-12">
                            <g id="Fill-10-Clipped">
                                <mask id="mask-20" fill="white">
                                    <use xlink:href="#path-19"></use>
                                </mask>
                                <g id="path-19"></g>
                                <polygon id="Fill-10" fill="#1485E0" fill-rule="nonzero" mask="url(#mask-20)" points="-3.76923077 -3.76623377 55.7846154 -3.76623377 55.7846154 99.4285714 -3.76923077 99.4285714"></polygon>
                            </g>
                        </g>
                    </g>
                    <g id="Group-16" transform="translate(4.523077, 12.051948)">
                        <g id="Fill-14-Clipped">
                            <mask id="mask-22" fill="white">
                                <use xlink:href="#path-21"></use>
                            </mask>
                            <g id="path-21"></g>
                            <polygon id="Fill-14" fill-opacity="0.44" fill="#FFFFFF" fill-rule="nonzero" mask="url(#mask-22)" points="-82.1692308 -38.4155844 63.1723077 -38.4155844 63.1723077 100.181818 -82.1692308 100.181818"></polygon>
                        </g>
                    </g>
                    <g id="Group-19">
                        <g id="Fill-17-Clipped">
                            <mask id="mask-24" fill="white">
                                <use xlink:href="#path-23"></use>
                            </mask>
                            <g id="path-23"></g>
                            <polygon id="Fill-17" fill="#FFFFFF" fill-rule="nonzero" mask="url(#mask-24)" points="-3.76923077 -3.38961039 64.8307692 -3.38961039 64.8307692 127.072727 -3.76923077 127.072727"></polygon>
                        </g>
                    </g>
                    <path d="M0,116.677922 L0,7.23116883 C0,4.74545455 1.96,2.41038961 4.44769231,2.10909091 C9.95076923,1.43116883 19.9769231,0.376623377 30.6061538,0.376623377 C41.16,0.376623377 51.1107692,1.43116883 56.6892308,2.10909091 C59.1769231,2.41038961 61.0615385,4.74545455 61.0615385,7.23116883 L61.0615385,116.677922 C61.0615385,118.335065 59.8553846,120.444156 58.2723077,120.820779 C54.0507692,121.875325 45.0046154,123.306494 30.6061538,123.306494 C16.2076923,123.306494 7.16153846,121.875325 2.94,120.820779 C1.28153846,120.444156 0,118.335065 0,116.677922 L0,116.677922 L0,116.677922 Z" id="Stroke-20" stroke="#1485E0" stroke-width="4"></path>
                    <g id="Group-23" transform="translate(27.892308, 3.766234)">
                        <g id="Fill-21-Clipped">
                            <mask id="mask-26" fill="white">
                                <use xlink:href="#path-25"></use>
                            </mask>
                            <g id="path-25"></g>
                            <polygon id="Fill-21" fill="#1485E0" fill-rule="nonzero" mask="url(#mask-26)" points="-3.76923077 -3.46493506 8.29230769 -3.46493506 8.29230769 8.58701299 -3.76923077 8.58701299"></polygon>
                        </g>
                    </g>
                    <g id="Group-26" transform="translate(9.046154, 4.519481)">
                        <g id="Fill-24-Clipped">
                            <mask id="mask-28" fill="white">
                                <use xlink:href="#path-27"></use>
                            </mask>
                            <g id="path-27"></g>
                            <polygon id="Fill-24" fill="#1485E0" fill-rule="nonzero" mask="url(#mask-28)" points="-3.76923077 -3.46493506 6.78461538 -3.46493506 6.78461538 7.08051948 -3.76923077 7.08051948"></polygon>
                        </g>
                    </g>
                    <g id="Group-33" transform="translate(4.523077, 11.298701)">
                        <g id="Group-29" transform="translate(0.753846, 0.753247)">
                            <g id="Fill-27-Clipped">
                                <mask id="mask-30" fill="white">
                                    <use xlink:href="#path-29"></use>
                                </mask>
                                <g id="path-29"></g>
                                <polygon id="Fill-27" fill="#C4E1F7" fill-rule="nonzero" mask="url(#mask-30)" points="-3.76923077 -3.76623377 54.2769231 -3.76623377 54.2769231 97.9220779 -3.76923077 97.9220779"></polygon>
                            </g>
                        </g>
                        <g id="Group-32">
                            <g id="Fill-30-Clipped">
                                <mask id="mask-32" fill="white">
                                    <use xlink:href="#path-31"></use>
                                </mask>
                                <g id="path-31"></g>
                                <polygon id="Fill-30" fill="#1485E0" fill-rule="nonzero" mask="url(#mask-32)" points="-3.76923077 -3.76623377 55.7846154 -3.76623377 55.7846154 99.4285714 -3.76923077 99.4285714"></polygon>
                            </g>
                        </g>
                    </g>
                    <g id="Group-36" transform="translate(4.523077, 11.298701)">
                        <g id="Fill-34-Clipped">
                            <mask id="mask-34" fill="white">
                                <use xlink:href="#path-33"></use>
                            </mask>
                            <g id="path-33"></g>
                            <polygon id="Fill-34" fill-opacity="0.44" fill="#FFFFFF" fill-rule="nonzero" mask="url(#mask-34)" points="-82.1692308 -38.4155844 63.3230769 -38.4155844 63.3230769 100.181818 -82.1692308 100.181818"></polygon>
                        </g>
                    </g>
                </g>
            </g>
        </g>
    </g>
</svg>