<?xml version="1.0" encoding="utf-8"?>
<!-- Generator: Adobe Illustrator 19.0.0, SVG Export Plug-In . SVG Version: 6.00 Build 0)  -->
<svg version="1.1" id="Layer_1" xmlns="http://www.w3.org/2000/svg" xmlns:xlink="http://www.w3.org/1999/xlink" x="0px" y="0px"
	 viewBox="0 0 120 64" style="enable-background:new 0 0 120 64;" xml:space="preserve">
<style type="text/css">
	.st0{fill:#fff;}
</style>
<g>
	<path class="st0" d="M120,28.3c-0.2,0-0.3,0.1-0.5,0.1c-0.7,0-1.4,0-2.1,0c-0.1,0-0.2-0.1-0.2-0.2c0-0.1,0.1-0.4,0.2-0.4
		c0.9,0,1.8,0,2.7,0C120,28,120,28.1,120,28.3z"/>
	<path class="st0" d="M14.1,12.6c0.4,0.9,0.8,1.8,0.9,2.7c0,0.6,0,1.3,0,1.9c0,0.5,0,0.9,0,1.4c-0.1,1.1,0.4,2.1,1,3
		c1,1.4,2,2.7,2.9,4.1c0.3,0.4,0.4,0.9,0.5,1.3c0.1,0.7-0.2,1.3-0.8,1.7c-0.3,0.2-0.7,0.5-1.1,0.6c-0.4,0.2-0.6,0.5-0.5,0.9
		c0.1,0.6,0.1,1.2,0.1,1.8c0,0.8-0.3,1.3-1.1,1.5c-0.5,0.1-0.9,0.1-1.4,0.1c-0.1,0-0.3,0.1-0.4,0.2c0.1,0.1,0.1,0.3,0.3,0.4
		c0.2,0.1,0.4,0.2,0.6,0.2c0.3,0.1,0.5,0.2,0.8,0.4c0.6,0.4,0.6,1.1-0.1,1.4c-0.6,0.3-0.9,0.7-0.4,1.6c0.2,0.3,0.5,0.6,0.7,1
		c0.4,0.6,0.5,1.1,0.3,1.8c-0.4,1.3-1.4,2.1-2.6,2.6c-0.5,0.2-0.9,0.3-1.4,0.4c-2.1,0.6-2.6,2.3-2.4,3.9c0.1,0.9,0.3,1.8,0.4,2.6
		c0,0.1,0,0.2,0,0.2C5,47.4-0.5,40.1,0,30.9c0.1,0.2,0.2,0.5,0.2,0.7c0.2,0.4,0.3,0.9,0.5,1.3c0.3,0.6,0.8,0.6,1.2,0
		c0.3-0.5,0.4-1,0.6-1.5c0.1-0.2,0.1-0.4,0.3-0.6C2.9,31.2,3,31.6,3.1,32c0.1,0.4,0.2,0.9,0.4,1.3c0.1,0.2,0.1,0.4,0.3,0.5
		c0.3,0.4,0.8,0.4,1-0.1C5,33.1,5.1,32.6,5.2,32c0.2-0.9,0.3-1.8,0.5-2.7c0.1,1,0.2,2.1,0.4,3.1c0.1,0.8,0.2,1.7,0.4,2.5
		c0,0.2,0.1,0.3,0.1,0.4c0.1,0.2,0.3,0.4,0.5,0.5c0.3,0.1,0.5-0.2,0.6-0.4c0.1-0.5,0.3-1,0.3-1.5c0.1-0.7,0.1-1.3,0.1-2
		c0-0.3-0.1-0.5-0.4-0.5c-0.3,0-0.3,0.2-0.3,0.5c0,0.9-0.1,1.9-0.2,2.8c-0.1,0-0.1,0-0.2,0C7.1,34.4,7,34,6.9,33.6
		c-0.2-1.4-0.4-2.9-0.5-4.3c0-0.3-0.1-0.6-0.2-0.9c-0.1-0.2-0.3-0.5-0.5-0.4c-0.2,0.1-0.4,0.3-0.4,0.4C5,29.2,4.8,30,4.7,30.9
		c-0.1,0.8-0.2,1.5-0.4,2.3c0,0-0.1,0-0.1,0c-0.1-0.5-0.3-1-0.4-1.5c-0.1-0.5-0.3-0.9-0.4-1.3c-0.1-0.2-0.3-0.4-0.5-0.4
		c-0.2,0-0.5,0.2-0.6,0.4c-0.3,0.6-0.4,1.1-0.7,1.7c-0.1,0.2-0.1,0.4-0.3,0.6c-0.2-0.5-0.3-1-0.5-1.6c-0.1-0.4-0.2-0.8-0.7-1
		c-0.1,0-0.1-0.2-0.1-0.3c0.5-4.7,2.4-8.7,5.6-12.2c3.8-4.1,8.5-6.4,14-6.8c10.9-0.9,20.9,6.7,22.8,17.5
		c2.1,11.5-5.2,22.4-16.7,24.9c-3,0.6-6,0.6-8.9,0c-1.4-0.3-1.8-0.7-1.9-2.2c-0.3-3.6,0.6-6.7,3.2-9.3c0.6-0.6,1.3-0.8,2-1
		c0.9-0.2,1.9-0.4,2.8-0.7c0.4-0.1,0.8-0.3,1.1-0.5c1.1-0.6,1.5-1.5,1.2-2.7c-0.1-0.5-0.3-1.1-0.4-1.6c-0.1-0.4-0.1-0.7,0.1-1
		c0.1-0.1,0.1-0.2,0.2-0.4c0.2-0.6,0-1.1-0.6-1.2c-0.4-0.1-0.8-0.2-1.2-0.3C23.2,32,23,31.9,23,31.7c0-0.1,0.2-0.4,0.3-0.5
		c0.3-0.3,0.7-0.5,1.1-0.8c0.4-0.3,0.4-0.4,0.1-0.8c-0.4-0.4-0.8-0.8-1.2-1.2c-0.5-0.6-0.5-0.7-0.2-1.4c0.2-0.5,0.5-0.9,0.7-1.3
		c0.3-0.7,0.1-1.2-0.5-1.6c-0.4-0.2-0.8-0.4-1.3-0.6c-0.4-0.2-0.8-0.4-1.2-0.6c-1.1-0.5-1.8-1.4-2-2.6c-0.2-1.1-0.5-2.2-0.8-3.3
		c-0.3-1.1-0.9-2-1.8-2.8C15.5,13.6,14.8,13.1,14.1,12.6C14.1,12.5,14.1,12.6,14.1,12.6z M31.4,34.9C31.4,34.9,31.4,34.9,31.4,34.9
		c-0.1-0.1-0.1-0.3-0.2-0.4c-0.2-1-0.3-2-0.5-2.9c-0.1-0.7-0.3-1.3-0.5-2c0-0.2-0.3-0.4-0.5-0.4c-0.2,0-0.4,0.2-0.5,0.4
		c-0.1,0.1-0.1,0.4-0.2,0.5c-0.1,0.6-0.2,1.1-0.2,1.7c-0.1,0.7-0.2,1.5-0.3,2.2c0,0-0.1,0-0.1,0c-0.2-0.5-0.3-0.9-0.5-1.4
		c-0.2-0.6-0.3-1.2-0.6-1.8c-0.1-0.2-0.3-0.4-0.4-0.4c-0.2,0-0.4,0.2-0.5,0.3c-0.2,0.4-0.3,0.9-0.4,1.4c-0.1,0.2,0,0.4,0.2,0.5
		c0.3,0.1,0.4-0.1,0.4-0.4c0-0.2,0.1-0.4,0.2-0.7c0.2,0.6,0.4,1.1,0.6,1.7c0.2,0.4,0.3,0.9,0.6,1.3c0.3,0.5,0.8,0.4,1-0.1
		c0.1-0.4,0.2-0.8,0.3-1.3c0.1-0.9,0.2-1.8,0.3-2.7c0.1,0.1,0.1,0.2,0.2,0.3c0.2,1.3,0.4,2.5,0.6,3.8c0.1,0.5,0.2,1,0.4,1.4
		c0.1,0.1,0.3,0.3,0.5,0.3c0.2,0,0.3-0.2,0.4-0.4c0.1-0.1,0.1-0.3,0.1-0.5c0.1-1,0.2-2.1,0.3-3.2c0.1-0.9,0.1-1.8,0.2-2.7
		c0.1,0.1,0.1,0.3,0.1,0.4c0.1,1.7,0.2,3.4,0.4,5c0.1,0.7,0.2,1.4,0.4,2.1c0,0.2,0.3,0.3,0.5,0.4c0.1,0,0.3-0.2,0.4-0.4
		c0.1-0.3,0.2-0.5,0.2-0.8c0.2-2,0.3-4,0.5-6c0.1-0.8,0.1-1.7,0.2-2.5c0.3,2.6,0.6,5.2,0.9,7.8c0,0.3,0.1,0.6,0.2,0.9
		c0.1,0.2,0.3,0.4,0.4,0.4c0.1,0,0.3-0.2,0.4-0.4c0.1-0.1,0.1-0.3,0.1-0.5c0.2-1,0.3-2.1,0.5-3.1c0.1-1,0.3-1.9,0.4-2.9
		c0.1,0.1,0.1,0.2,0.2,0.2c0.1,0.7,0.2,1.3,0.4,2c0.1,0.6,0.3,1.1,0.5,1.7c0.1,0.2,0.3,0.3,0.5,0.3c0.2,0,0.4-0.2,0.5-0.3
		c0.1-0.1,0.1-0.3,0.2-0.5c0.1-0.4,0.2-0.9,0.3-1.3c0.1-0.2,0.1-0.4,0.2-0.7c0,0,0.1,0,0.1,0c0.1,0.2,0.1,0.3,0.2,0.5
		c0.1,0.1,0.3,0.3,0.4,0.3c0.1,0,0.3-0.2,0.3-0.4c0-0.2,0-0.4-0.1-0.5c-0.2-0.4-0.5-0.6-0.9-0.6c-0.4,0-0.6,0.3-0.7,0.6
		c-0.1,0.2-0.2,0.5-0.2,0.7c-0.1,0.4-0.2,0.7-0.2,1.1c-0.2-0.7-0.4-1.5-0.5-2.3c-0.2-0.7-0.3-1.4-0.5-2.1c0-0.2-0.3-0.3-0.5-0.3
		c-0.1,0-0.3,0.2-0.4,0.4c-0.1,0.4-0.2,0.8-0.3,1.2c-0.2,1.5-0.4,3.1-0.7,4.6c-0.1-0.1-0.1-0.3-0.1-0.4c-0.2-2.2-0.4-4.3-0.6-6.5
		c-0.1-0.6-0.2-1.1-0.3-1.7c0-0.2-0.1-0.5-0.5-0.5c-0.3,0-0.4,0.2-0.5,0.5c-0.1,0.3-0.1,0.6-0.1,0.9c-0.2,2.3-0.3,4.7-0.5,7
		c0,0.6-0.1,1.2-0.2,1.8c-0.1-0.1-0.1-0.1-0.1-0.2c-0.2-2.1-0.3-4.2-0.5-6.3c0-0.5-0.2-1-0.3-1.5c0-0.1-0.3-0.3-0.4-0.3
		c-0.1,0-0.3,0.2-0.4,0.3c-0.1,0.2-0.1,0.4-0.2,0.6c-0.1,0.8-0.2,1.7-0.2,2.5C31.6,32.3,31.5,33.6,31.4,34.9z"/>
	<path class="st0" d="M64.9,36.3c0.4,0.6,0.8,1.1,1.2,1.6c0.1,0.1,0.2,0.2,0.3,0.3c0.1,0.1,0.1,0.1,0.2,0.2
		c-0.1,0.1-0.1,0.1-0.2,0.1c-0.3,0-0.5,0-0.8,0c-0.1,0-0.3-0.1-0.3-0.3c-0.3-0.6-0.7-1.1-1-1.7c-0.1-0.2-0.3-0.4-0.6-0.2
		c0,0.5,0,1,0,1.6c0,0.3,0.2,0.3,0.4,0.3c0.1,0,0.1,0.1,0.2,0.2c-0.1,0.1-0.2,0.2-0.2,0.2c-1.2,0-2.5,0-3.7,0
		c-0.1,0-0.2-0.1-0.2-0.1c0.1-0.1,0.1-0.2,0.2-0.2c0.4,0,0.4-0.2,0.3-0.5c-0.2-0.6-0.2-0.6-0.8-0.6c-0.4,0-0.8,0-1.2,0
		c-0.2,0-0.7,0.8-0.5,1c0.1,0.1,0.2,0.1,0.3,0.1c0.1,0,0.1,0.1,0.2,0.2c-0.1,0-0.2,0.1-0.2,0.1c-0.6,0-1.2,0-1.8,0c-1,0-2,0-3,0
		c-0.1,0-0.2-0.1-0.3-0.2c0.1-0.1,0.2-0.2,0.3-0.2c0.3,0,0.4-0.2,0.4-0.4c0-1,0-2,0-3c0-0.3-0.1-0.5-0.4-0.4c-0.1,0-0.1-0.1-0.2-0.2
		c0.1-0.1,0.1-0.2,0.2-0.2c1.1,0,2.2,0,3.4,0c0,0.3,0,0.6,0,0.8c0,0.1-0.1,0.1-0.2,0.2c0-0.1-0.1-0.1-0.1-0.2c0-0.4-0.2-0.5-0.6-0.5
		c-0.4,0-0.7,0-1.1,0c0,0.6,0,1.1,0,1.6c0.3,0,0.6,0,0.9,0c0.3,0,0.5-0.1,0.6-0.4c0-0.1,0.1-0.1,0.2-0.2c0.1,0.1,0.2,0.1,0.2,0.2
		c0,0.4,0,0.8,0,1.2c0,0.1-0.1,0.2-0.2,0.2c-0.1-0.1-0.2-0.1-0.2-0.2c0-0.3-0.2-0.4-0.5-0.4c-0.3,0-0.6,0-0.9,0c0,0.6,0,1.2,0,1.8
		c0.5,0,0.9,0,1.3,0c0.3,0,0.5-0.1,0.5-0.5c0-0.1,0.1-0.2,0.1-0.3c0.1,0.1,0.2,0.2,0.2,0.3c0,0.2,0,0.3,0,0.5c0.4,0,0.6-0.3,0.7-0.5
		c0.5-1,0.9-2,1.4-2.9c0.1-0.2,0.2-0.4,0.3-0.7c0.1-0.1,0.2-0.3,0.3-0.3c0.1,0,0.2,0.1,0.3,0.3c0.5,1,0.9,2,1.4,3
		c0.1,0.3,0.3,0.6,0.4,0.8c0.2,0.3,0.5,0.4,0.9,0.3c0.1,0,0.2-0.2,0.2-0.3c0-1,0-2.1,0-3.1c0-0.3-0.1-0.5-0.4-0.5
		c-0.1,0-0.1-0.1-0.2-0.2c0.1-0.1,0.1-0.2,0.2-0.2c0.8,0,1.7,0,2.5,0c0.7,0.1,1.1,0.5,1.1,1c0.1,0.5-0.2,0.9-0.8,1.2
		C65,36.3,65,36.3,64.9,36.3z M63.6,36c0.5,0,1,0,1.3-0.4c0.2-0.3,0.2-0.6,0-0.9c-0.3-0.4-0.8-0.3-1.2-0.3
		C63.6,35,63.6,35.5,63.6,36z M59.3,35c-0.3,0.6-0.6,1.2-0.8,1.8c0.6,0,1.1,0,1.6,0C59.8,36.2,59.6,35.6,59.3,35z"/>
	<path class="st0" d="M91.6,28.6c0-0.8,0-1.5,0-2.3c0-0.3-0.1-0.4-0.4-0.4c-0.1,0-0.2-0.1-0.3-0.2c0.1-0.1,0.2-0.2,0.3-0.2
		c0.4,0,0.8,0,1.3,0c0.1,0,0.2,0.1,0.2,0.2c-0.1,0.1-0.1,0.2-0.2,0.2c-0.5,0-0.5,0.3-0.5,0.6c0,1.1,0,2.1,0,3.2c0,0.1,0,0.3,0,0.6
		c-0.3-0.1-0.5-0.2-0.6-0.3c-0.9-1-1.8-2.1-2.6-3.1c-0.1-0.1-0.2-0.2-0.3-0.4c0,1.1,0,2,0,3c0,0.3,0.2,0.4,0.4,0.4
		c0.1,0,0.2,0.1,0.2,0.2c-0.1,0-0.2,0.1-0.2,0.1c-1.2,0-2.3,0-3.5,0c-0.1,0-0.2-0.1-0.2-0.1c0.1-0.1,0.1-0.2,0.2-0.2
		c0.5,0,0.4-0.3,0.3-0.6c-0.1-0.4-0.3-0.6-0.8-0.5c-0.3,0-0.5,0-0.8,0c-0.6,0-0.6,0-0.9,0.6c-0.1,0.3-0.1,0.5,0.2,0.5
		c0.1,0,0.1,0.1,0.2,0.2c-0.1,0-0.1,0.1-0.2,0.1c-0.4,0-0.8,0-1.3,0c-0.1,0-0.1-0.1-0.2-0.1c0.1-0.1,0.1-0.2,0.2-0.2
		c0.2-0.2,0.4-0.4,0.6-0.6c0.6-1.2,1.1-2.4,1.7-3.5c0.1-0.1,0.2-0.3,0.3-0.3c0.1,0,0.2,0.2,0.3,0.3c0.6,1.2,1.1,2.4,1.7,3.6
		c0.3,0.6,0.5,0.6,1,0.5c0.1,0,0.3-0.2,0.3-0.3c0-1.1,0-2.1,0-3.2c0-0.3-0.1-0.4-0.4-0.4c-0.1,0-0.2-0.1-0.3-0.2
		c0.1-0.1,0.2-0.2,0.3-0.2c0.3,0,0.7,0,1,0c0.2,0,0.3,0.1,0.4,0.3c0.7,0.8,1.4,1.7,2.1,2.5c0.1,0.1,0.2,0.2,0.3,0.3
		C91.5,28.6,91.6,28.6,91.6,28.6z M84.5,26.5c-0.3,0.6-0.6,1.2-0.8,1.8c0.6,0,1.1,0,1.6,0C85,27.7,84.8,27.1,84.5,26.5z"/>
	<path class="st0" d="M85.1,20.1c0-0.8,0-1.6,0-2.3c0-0.2-0.1-0.4-0.4-0.4c-0.1,0-0.2-0.1-0.3-0.2c0-0.1,0-0.1,0.1-0.2
		c0.5,0,1.1,0,1.6,0c0.1,0,0.1,0.1,0.2,0.2c-0.1,0.1-0.1,0.2-0.2,0.1c-0.4,0-0.5,0.2-0.5,0.6c0,1.1,0,2.2,0,3.2c0,0.1,0,0.3,0,0.4
		c-0.3,0.2-0.5,0-0.7-0.2c-0.8-1-1.6-2-2.5-3c-0.1-0.1-0.2-0.3-0.4-0.4c0,0.1,0,0.2,0,0.3c0,0.8,0,1.7,0,2.5c0,0.3,0.1,0.5,0.4,0.5
		c0.1,0,0.1,0.1,0.2,0.2c-0.1,0-0.1,0.1-0.2,0.1c-1.2,0-2.3,0-3.5,0c-0.1,0-0.1-0.1-0.2-0.1c0.1-0.1,0.1-0.2,0.2-0.2
		c0.4,0,0.4-0.2,0.3-0.5c-0.1-0.4-0.3-0.6-0.8-0.6c-0.4,0.1-0.8,0-1.2,0c-0.5,0-0.4,0.5-0.6,0.8c-0.1,0.3,0.2,0.3,0.3,0.3
		c0.1,0,0.1,0.1,0.2,0.2c-0.1,0-0.1,0.1-0.2,0.1c-0.5,0-0.9,0-1.6,0c0.1-0.2,0.2-0.3,0.2-0.3c0.2-0.2,0.4-0.3,0.5-0.6
		c0.6-1.2,1.2-2.4,1.7-3.6c0.1-0.1,0.2-0.3,0.3-0.3c0.1,0,0.2,0.2,0.3,0.3c0.6,1.2,1.1,2.5,1.7,3.7c0.2,0.4,0.5,0.5,0.9,0.4
		c0.2,0,0.4-0.1,0.4-0.4c0-1.1,0-2.1,0-3.2c0-0.3-0.1-0.4-0.4-0.4c-0.1,0-0.2-0.1-0.2-0.2c0.1-0.1,0.2-0.1,0.2-0.2c0.3,0,0.7,0,1,0
		c0.2,0,0.3,0.1,0.4,0.2C83.4,18.2,84.2,19.2,85.1,20.1C85,20.2,85.1,20.1,85.1,20.1z M78,18c-0.3,0.6-0.6,1.2-0.8,1.8
		c0.6,0,1.1,0,1.6,0C78.5,19.2,78.2,18.6,78,18z"/>
	<path class="st0" d="M47.9,35.8c0,0.6,0,1.2,0,1.8c0,0.5,0.1,0.6,0.6,0.6c0.1,0,0.2,0.1,0.3,0.2c-0.1,0.1-0.2,0.2-0.3,0.2
		c-0.7,0-1.5,0-2.2,0c-0.1,0-0.2-0.1-0.2-0.2c0.1-0.1,0.2-0.2,0.3-0.2c0.6-0.1,0.6-0.1,0.6-0.7c0-1.3,0-2.7,0-4
		c0-0.3-0.1-0.4-0.4-0.4c-0.1,0-0.2,0-0.3,0c-0.1,0-0.1-0.1-0.2-0.2c0,0,0.1-0.1,0.2-0.1c0.8,0,1.6,0,2.4,0c0.1,0,0.2,0.1,0.2,0.1
		c0,0.1-0.1,0.1-0.2,0.2c0,0,0,0,0,0c-0.7,0.1-0.7,0.1-0.7,0.8c0,0.4,0,0.9,0,1.3c1,0,2,0,3,0c0-0.6,0-1.2,0-1.8
		c0-0.3-0.2-0.4-0.5-0.4c-0.1,0-0.2-0.1-0.4-0.2c0.1-0.1,0.3-0.2,0.4-0.2c0.7,0,1.3,0,2,0c0.1,0,0.2,0.1,0.3,0.2
		c-0.1,0.1-0.2,0.2-0.3,0.2c-0.5,0-0.6,0.1-0.6,0.6c0,1.3,0,2.7,0,4c0,0.4,0.2,0.5,0.6,0.5c0.1,0,0.2,0.1,0.3,0.2
		c-0.1,0.1-0.2,0.2-0.3,0.2c-0.7,0-1.4,0-2,0c-0.1,0-0.2-0.1-0.3-0.2c0.1-0.1,0.2-0.2,0.3-0.2c0.5,0,0.6-0.1,0.6-0.6
		c0-0.6,0-1.1,0-1.7c0,0,0-0.1,0-0.1C50,35.8,49,35.8,47.9,35.8z"/>
	<path class="st0" d="M56.3,20.3c0.4-1,0.8-1.9,1.2-2.8c0.1-0.3,0.3-0.5,0.7-0.5c0.3,0,0.6,0,0.9,0c0.1,0,0.2,0.1,0.2,0.2
		c-0.1,0.1-0.2,0.1-0.2,0.1c-0.3,0-0.4,0.2-0.4,0.5c0.1,1,0.2,2,0.2,3c0,0.3,0.1,0.5,0.4,0.5c0.1,0,0.1,0.1,0.2,0.2
		c-0.1,0.1-0.1,0.2-0.2,0.2c-0.6,0-1.3,0-1.9,0c0,0,0-0.1-0.1-0.1c0.1-0.1,0.2-0.2,0.3-0.2c0.4,0,0.5-0.2,0.5-0.6
		c-0.1-0.9-0.1-1.9-0.2-2.8c0,0-0.1,0-0.1,0c-0.5,1.1-0.9,2.2-1.4,3.3c0,0.1-0.1,0.2-0.1,0.3c-0.1,0.1-0.2,0.2-0.2,0.2
		c-0.1,0-0.2-0.1-0.3-0.2c-0.5-1.1-0.9-2.2-1.4-3.3c-0.1-0.1-0.1-0.2-0.2-0.5c-0.1,1.2-0.1,2.2-0.2,3.2c0,0.3,0.1,0.5,0.4,0.5
		c0.1,0,0.2,0.1,0.3,0.1c-0.1,0.1-0.2,0.1-0.3,0.2c-0.4,0-0.8,0-1.2,0c-0.1,0-0.2-0.1-0.3-0.1c0.1-0.1,0.2-0.2,0.2-0.2
		c0.4,0,0.4-0.3,0.4-0.6c0.1-0.7,0.1-1.4,0.2-2.1c0-0.2,0-0.5,0-0.7c0-0.3,0-0.5-0.4-0.5c-0.1,0-0.1-0.1-0.2-0.2
		c0.1-0.1,0.1-0.2,0.2-0.2c0.4,0,0.9,0,1.3,0c0.1,0,0.2,0.2,0.3,0.3c0.4,0.9,0.8,1.8,1.1,2.7C56.2,20.1,56.2,20.2,56.3,20.3z"/>
	<path class="st0" d="M49.3,45.3c-0.2,0-0.3,0-0.5,0c-0.3,0-0.6-0.1-0.8,0.1c-0.2,0.3-0.3,0.7-0.4,1.1c-0.1,0.3,0.2,0.3,0.4,0.3
		c0.1,0,0.2,0.1,0.3,0.2c-0.1,0.1-0.2,0.2-0.3,0.2c-0.5,0-1,0-1.5,0c-0.1,0-0.2-0.1-0.3-0.2c0.1-0.1,0.1-0.2,0.2-0.2
		c0.4-0.1,0.5-0.4,0.6-0.7c0.7-1.5,1.4-3,2.1-4.6c0.1-0.2,0.1-0.4,0.4-0.3c0.1,0,0.3,0.2,0.3,0.3c0.7,1.6,1.4,3.1,2.1,4.7
		c0.1,0.3,0.2,0.6,0.6,0.6c0,0,0.1,0.1,0.1,0.1c0,0.1,0,0.2-0.1,0.2c-0.1,0-0.1,0-0.2,0c-0.6,0-1.3,0-1.9,0c-0.1,0-0.2-0.1-0.3-0.2
		c0.1-0.1,0.2-0.2,0.3-0.2c0.5-0.1,0.6-0.2,0.4-0.6c-0.3-0.9-0.3-0.9-1.2-0.9C49.5,45.3,49.4,45.3,49.3,45.3z M49.3,42.3
		c-0.4,0.9-0.7,1.7-1.1,2.5c0.7,0,1.4,0,2.1,0C50,44,49.7,43.2,49.3,42.3z"/>
	<path class="st0" d="M69.3,27.5c0.7,0,1.5,0,2.2,0c0.1,0,0.2-0.2,0.2-0.2c0-0.3,0-0.5,0-0.8c0-0.3,0-0.6-0.5-0.5
		c0,0-0.2-0.1-0.2-0.2c0-0.1,0.1-0.2,0.1-0.2c0.6,0,1.2,0,1.9,0c0.1,0,0.1,0.1,0.2,0.2c-0.1,0.1-0.1,0.2-0.2,0.2
		c-0.4,0-0.5,0.2-0.5,0.5c0,1,0,2,0,2.9c0,0.3,0.1,0.5,0.4,0.5c0.1,0,0.2,0.1,0.2,0.2C73.1,30,73,30.1,73,30.1c-0.6,0-1.3,0-1.9,0
		c0,0,0-0.1-0.1-0.1c0.1-0.1,0.2-0.2,0.3-0.2c0.3,0,0.4-0.1,0.4-0.4c0-0.5,0-0.9,0-1.4c-0.8,0-1.5,0-2.3,0c0,0.5,0,1,0,1.5
		c0,0.3,0.2,0.4,0.4,0.4c0.1,0,0.2,0.1,0.2,0.2c-0.1,0-0.2,0.1-0.2,0.1c-0.6,0-1.2,0-1.7,0c-0.1,0-0.2-0.1-0.2-0.1
		c0.1-0.1,0.1-0.2,0.2-0.2c0.4,0,0.5-0.3,0.5-0.6c0-0.9,0-1.9,0-2.8c0-0.3-0.1-0.5-0.5-0.5c-0.1,0-0.1-0.1-0.2-0.2
		c0.1-0.1,0.1-0.2,0.2-0.2c0.6,0,1.2,0,1.8,0c0.1,0,0.1,0.1,0.2,0.2c-0.1,0.1-0.1,0.2-0.2,0.2c-0.4-0.1-0.5,0.2-0.5,0.5
		C69.3,26.8,69.3,27.1,69.3,27.5z"/>
	<path class="st0" d="M49.3,19.8c-0.1,0-0.2,0-0.3,0c-1.1,0-1.1,0-1.4,1c-0.1,0.3,0,0.4,0.3,0.5c0.1,0,0.1,0,0.2,0
		c0.1,0.1,0.1,0.1,0.2,0.2c-0.1,0-0.1,0.1-0.2,0.1c-0.6,0-1.1,0-1.7,0c-0.1,0-0.2-0.1-0.2-0.1c0-0.1,0.1-0.2,0.1-0.2
		c0.5,0,0.6-0.5,0.8-0.8c0.7-1.5,1.4-3,2.1-4.5c0.1-0.1,0.2-0.3,0.4-0.3c0.2-0.1,0.3,0.1,0.3,0.3c0.7,1.6,1.4,3.2,2.1,4.8
		c0.1,0.2,0.2,0.5,0.6,0.5c0,0,0.1,0.1,0.1,0.2c0,0.1-0.1,0.2-0.2,0.2c-0.7,0-1.4,0-2.2,0c-0.1,0-0.2-0.1-0.2-0.1
		c0-0.1,0-0.2,0.1-0.2c0.1,0,0.2,0,0.3,0c0.3,0,0.4-0.2,0.3-0.5c-0.1-0.3-0.2-0.5-0.3-0.8c-0.1-0.1-0.2-0.2-0.3-0.2
		C50,19.8,49.6,19.8,49.3,19.8z M50.3,19.4c-0.4-0.8-0.7-1.6-1-2.5c-0.4,0.9-0.7,1.6-1.1,2.5C48.9,19.4,49.6,19.4,50.3,19.4z"/>
	<path class="st0" d="M91.3,43.4c0,1.1,0,2,0,2.9c0,0.3,0.1,0.5,0.5,0.5c0.1,0,0.2,0.1,0.2,0.2c-0.1,0.1-0.2,0.2-0.3,0.2
		c-0.4,0-0.9,0-1.3,0c-0.1,0-0.1-0.1-0.2-0.2c0.1-0.1,0.1-0.2,0.2-0.2c0.4,0,0.5-0.2,0.5-0.6c0-1,0-1.9,0-2.9c0-0.3,0-0.5-0.4-0.5
		c-0.1,0-0.2-0.1-0.2-0.2c0.1-0.1,0.2-0.2,0.2-0.2c0.4,0,0.7,0,1.1,0c0.1,0,0.3,0.1,0.4,0.2c0.8,0.9,1.6,1.9,2.4,2.9
		c0-0.2,0-0.3,0-0.4c0-0.7,0-1.3,0-2c0-0.3-0.1-0.4-0.4-0.4c-0.1,0-0.2-0.1-0.3-0.2c0.1-0.1,0.2-0.2,0.3-0.2c0.4,0,0.8,0,1.3,0
		c0.1,0,0.1,0.1,0.2,0.2c-0.1,0.1-0.1,0.2-0.2,0.2c-0.5,0-0.5,0.3-0.5,0.6c0,1.1,0,2.1,0,3.2c0,0.1,0,0.3,0,0.4
		c-0.3,0.2-0.5,0-0.6-0.2c-0.9-1-1.7-2.1-2.6-3.1C91.6,43.7,91.5,43.6,91.3,43.4z"/>
	<path class="st0" d="M65.6,19.5c0,0.5,0,0.9,0,1.4c0,0.3,0.1,0.4,0.4,0.4c0.1,0,0.2,0.1,0.2,0.2c-0.1,0-0.2,0.1-0.2,0.1
		c-0.6,0-1.2,0-1.7,0c-0.1,0-0.2-0.1-0.2-0.1c0.1-0.1,0.1-0.2,0.2-0.2c0.4,0,0.5-0.2,0.5-0.6c0-1,0-1.9,0-2.9c0-0.3-0.1-0.5-0.5-0.5
		c-0.1,0-0.2-0.1-0.3-0.2c0,0,0-0.1,0.1-0.1c0.1,0,0.3,0,0.4,0c0.7,0,1.4,0,2.2,0c0.8,0,1.4,0.5,1.2,1.3c0,0.2-0.2,0.5-0.4,0.7
		c-0.1,0.1-0.3,0.2-0.6,0.3c0.5,0.6,0.8,1.5,1.5,2c0,0,0.1,0.1,0.1,0.2c0,0.1-0.1,0.1-0.2,0.1c-0.3,0-0.6,0-0.9,0
		c-0.1,0-0.2-0.1-0.3-0.2c-0.3-0.6-0.7-1.1-1-1.7c-0.1-0.2-0.3-0.2-0.5-0.4C65.7,19.4,65.7,19.5,65.6,19.5z M65.7,19.1
		c0.9,0,1.4-0.3,1.4-0.9c0-0.6-0.5-0.8-1.4-0.7C65.7,18,65.7,18.5,65.7,19.1z"/>
	<path class="st0" d="M73.9,38.7c-0.2-0.1-0.4-0.2-0.5-0.3c-1-1.1-1.9-2.3-2.9-3.5c0,0.1,0,0.2,0,0.3c0,0.8,0,1.7,0,2.5
		c0,0.3,0.1,0.6,0.5,0.6c0.1,0,0.1,0.1,0.2,0.2c-0.1,0.1-0.2,0.2-0.2,0.2c-0.4,0-0.9,0-1.3,0c-0.1,0-0.2-0.1-0.2-0.1
		c0.1-0.1,0.1-0.2,0.2-0.2c0.3,0,0.4-0.2,0.4-0.5c0-1,0-2,0-3c0-0.3-0.1-0.5-0.4-0.5c-0.1,0-0.2-0.1-0.2-0.2
		c0.1-0.1,0.2-0.1,0.3-0.2c0,0,0.1,0,0.1,0c1.1,0,1.1,0,1.9,0.9c0.6,0.7,1.2,1.5,1.9,2.2c0-0.1,0.1-0.2,0.1-0.3c0-0.7,0-1.4,0-2
		c0-0.3-0.1-0.5-0.4-0.5c-0.1,0-0.2-0.1-0.2-0.2c0.1-0.1,0.2-0.2,0.2-0.2c0.4,0,0.9,0,1.3,0c0.1,0,0.2,0.1,0.2,0.1
		c-0.1,0.1-0.1,0.2-0.2,0.2c-0.5,0-0.5,0.3-0.5,0.6c0,1.1,0,2.1,0,3.2c0,0.1,0,0.3,0,0.4C74,38.6,74,38.7,73.9,38.7z"/>
	<path class="st0" d="M49.9,24.4c0,0.5,0,0.9,0,1.3c-0.3,0.1-0.3-0.1-0.4-0.3c0-0.4-0.1-0.7-0.5-0.9c-0.5-0.1-1-0.2-1.4,0.2
		c-0.4,0.4-0.5,1,0,1.4c0.3,0.3,0.7,0.4,1.1,0.7c0.3,0.2,0.7,0.4,1,0.6c0.7,0.6,0.8,1.5,0.1,2.1c-0.3,0.3-0.7,0.5-1.1,0.6
		c-0.7,0.2-1.4,0.1-2.1-0.2c-0.1,0-0.2-0.2-0.2-0.3c0-0.3,0-0.7,0-1c0-0.1,0.1-0.2,0.1-0.2c0.1,0.1,0.2,0.1,0.2,0.2c0,0,0,0.1,0,0.1
		c0.1,0.3,0.1,0.7,0.5,0.9c0.5,0.2,1,0.3,1.6,0c0.7-0.3,0.8-1.1,0.2-1.6c-0.3-0.2-0.7-0.4-1.1-0.6c-0.3-0.1-0.6-0.3-0.8-0.4
		c-0.9-0.6-0.9-1.8,0-2.5c0.7-0.5,1.4-0.5,2.2-0.4C49.5,24.3,49.7,24.3,49.9,24.4z"/>
	<path class="st0" d="M87.3,47.2c-1.4,0-2.3-0.9-2.3-2.4c0-1.5,1-2.5,2.5-2.5c1.3,0,2.3,1,2.3,2.4C89.9,46.2,88.9,47.2,87.3,47.2z
		 M86,44.8c0.1,0.4,0.2,0.9,0.4,1.3c0.2,0.5,0.6,0.8,1.2,0.8c0.6,0,0.9-0.3,1.1-0.8c0.3-0.8,0.3-1.7,0-2.5c-0.2-0.5-0.6-0.8-1.2-0.8
		c-0.6,0-1,0.4-1.2,0.9C86.1,44,86.1,44.3,86,44.8z"/>
	<path class="st0" d="M60.3,44.8c0-1.5,1.1-2.5,2.5-2.5c1.3,0,2.3,1,2.3,2.4c0,1.5-1,2.5-2.5,2.5C61.2,47.2,60.3,46.3,60.3,44.8z
		 M61.3,44.7c0,0.6,0.1,1.1,0.4,1.6c0.5,0.8,1.6,0.8,2.1,0c0.5-1,0.5-2-0.1-3c-0.5-0.8-1.4-0.8-2-0.1C61.3,43.6,61.3,44.2,61.3,44.7
		z"/>
	<path class="st0" d="M112.3,28.3c0,0.4,0,0.9,0,1.3c0,0.3-0.1,0.4-0.3,0.4c-0.8,0.2-1.6,0.3-2.4,0.1c-1-0.3-1.5-0.9-1.7-1.9
		c-0.1-1,0.3-2,1.1-2.5c1-0.6,2-0.5,3-0.3c0.1,0,0.2,0.1,0.2,0.1c0,0.4,0,0.8,0,1.2c0,0-0.1,0.1-0.2,0.1c-0.1-0.1-0.1-0.1-0.2-0.2
		c-0.1-0.5-0.5-0.8-1-0.9c-0.6-0.2-1.3,0.1-1.6,0.7c-0.5,0.8-0.5,2,0.1,2.8c0.4,0.5,1.1,0.8,1.8,0.5c0.1,0,0.2-0.2,0.2-0.3
		c0-0.2,0-0.4,0-0.6c0-0.4,0-0.7-0.5-0.7c-0.1,0-0.1-0.1-0.2-0.2c0.1-0.1,0.1-0.2,0.2-0.2c0.6,0,1.2,0,1.8,0c0.1,0,0.1,0.1,0.2,0.2
		c0,0-0.1,0.1-0.1,0.1C112.6,28.3,112.4,28.3,112.3,28.3z"/>
	<path class="st0" d="M77.7,36.7c0.1-0.1,0.2-0.3,0.3-0.3c0.6,0,1.2,0,1.7,0c0.1,0,0.1,0.1,0.2,0.2c-0.1,0.1-0.1,0.2-0.2,0.2
		c-0.3,0-0.4,0.2-0.4,0.5c0,0.3,0,0.7,0,1c0,0.1-0.1,0.3-0.2,0.3c-0.8,0.2-1.6,0.3-2.4,0.2c-0.9-0.2-1.6-0.9-1.7-1.8
		c-0.1-1,0.1-1.9,1-2.5c1-0.6,2-0.6,3-0.3c0.1,0,0.2,0.2,0.2,0.3c0,0.4-0.1,0.7-0.1,1.1c-0.1,0-0.2-0.1-0.2-0.1
		c-0.1-0.7-0.6-1-1.3-1.1c-0.7,0-1.2,0.3-1.5,0.9c-0.4,0.8-0.4,1.6,0.1,2.4c0.4,0.7,1.2,1,1.9,0.7c0.1,0,0.2-0.2,0.2-0.3
		c0-0.2,0-0.3,0-0.5C78.4,36.8,78.4,36.8,77.7,36.7z"/>
	<path class="st0" d="M96.8,27.9c0.3,0,0.6,0,0.8,0c0.1,0,0.1,0.1,0.2,0.2c-0.1,0.1-0.1,0.2-0.2,0.2c-0.3,0-0.4,0.2-0.4,0.5
		c0,0.3,0,0.7,0,1c0,0.1-0.1,0.3-0.2,0.3c-0.8,0.2-1.7,0.4-2.5,0.1c-0.9-0.2-1.6-1-1.6-1.8c-0.1-1.1,0.2-2,1.1-2.5
		c0.9-0.5,1.9-0.5,2.9-0.2c0.1,0,0.2,0.1,0.2,0.1c0,0.4,0,0.8,0,1.2c0,0-0.1,0.1-0.1,0.1c-0.1,0-0.1-0.1-0.1-0.2
		c-0.1-0.7-0.6-1-1.2-1c-0.6,0-1.1,0.3-1.4,0.8c-0.5,0.9-0.4,1.8,0.1,2.6c0.4,0.6,1.1,0.8,1.8,0.6c0.1,0,0.2-0.1,0.2-0.1
		c0-0.5,0-0.9,0-1.4c0-0.1-0.2-0.1-0.4-0.2c-0.1,0-0.1-0.1-0.2-0.2c0.1-0.1,0.2-0.1,0.3-0.2C96.3,27.9,96.6,27.9,96.8,27.9z"/>
	<path class="st0" d="M78.6,29.7c0.7,0,1.3-0.1,2-0.1c0.4,0,0.5-0.2,0.5-0.6c0-0.1,0-0.3,0-0.4c0-0.1,0.1-0.2,0.2-0.2
		c0,0,0.1,0,0.1,0.1c0,0.5,0,1.1,0,1.6c-1.6,0-3.2,0-4.7,0c-0.1-0.2,0-0.3,0.2-0.4c0.7-0.1,0.7-0.1,0.8-0.8c0-1.1,0-2.2,0-3.2
		c0-1,0-1-1-1.1c-0.1-0.2-0.1-0.3,0.2-0.3c0.8,0,1.6,0,2.4,0c0.1,0,0.2,0.1,0.2,0.2c-0.1,0.1-0.1,0.2-0.2,0.2
		c-0.7,0.1-0.7,0.1-0.7,0.7C78.6,26.8,78.6,28.3,78.6,29.7z"/>
	<path class="st0" d="M56.4,25.9c0,0.6,0,1.1,0,1.6c0.3,0,0.7,0,1,0c0.2,0,0.4-0.1,0.4-0.4c0-0.1,0.1-0.2,0.2-0.2
		c0.1,0.1,0.2,0.2,0.2,0.3c0,0.4,0,0.7,0,1.1c0,0.1-0.1,0.2-0.2,0.3c-0.1-0.1-0.2-0.2-0.2-0.2c0-0.3-0.2-0.4-0.4-0.4
		c-0.3,0-0.6,0-1,0c0,0.6,0,1.2,0,1.8c0.5,0,1,0,1.4,0c0.3,0,0.3-0.2,0.3-0.5c0-0.1,0.1-0.2,0.1-0.3c0.1,0.1,0.2,0.2,0.2,0.3
		c0.1,0.9,0.1,0.9-0.8,0.9c-0.8,0-1.7,0-2.5,0c-0.1,0-0.2-0.1-0.3-0.1c0.1-0.1,0.2-0.2,0.3-0.2c0.3,0,0.3-0.2,0.3-0.5c0-1,0-2,0-3
		c0-0.3-0.1-0.4-0.4-0.4c-0.1,0-0.2-0.1-0.2-0.2c0.1-0.1,0.2-0.2,0.2-0.2c1,0,2.1,0,3.1,0c0.1,0,0.2,0.1,0.2,0.2c0,0.2,0,0.4,0,0.7
		c0,0.1-0.1,0.1-0.2,0.2c0-0.1-0.1-0.1-0.1-0.2c0-0.4-0.2-0.5-0.6-0.5C57.1,25.9,56.8,25.9,56.4,25.9z"/>
	<path class="st0" d="M77.2,47.1c-0.3,0-0.5,0-0.8,0c-0.1,0-0.2-0.1-0.2-0.2c0.1-0.1,0.2-0.2,0.2-0.2c0.4,0,0.4-0.2,0.3-0.5
		c0-0.1-0.1-0.2-0.1-0.4c-0.1-0.2-0.2-0.3-0.4-0.3c-0.4,0-0.9,0-1.4,0c-0.3,0-0.4,0.1-0.5,0.3c0,0.1-0.1,0.3-0.2,0.4
		c-0.1,0.2,0,0.3,0.2,0.3c0.1,0,0.2,0.1,0.3,0.2c-0.1,0.1-0.2,0.2-0.3,0.2c-0.4,0-0.8,0-1.2,0c-0.1,0-0.2-0.1-0.2-0.1
		c0-0.1,0.1-0.2,0.1-0.2c0.4-0.1,0.5-0.4,0.6-0.7c0.5-1.1,1.1-2.3,1.6-3.4c0.1-0.1,0.2-0.3,0.4-0.3c0.1,0,0.3,0.2,0.3,0.3
		c0.5,1.1,1,2.2,1.5,3.2c0.2,0.3,0.3,0.8,0.7,0.9c0,0,0.1,0.1,0.1,0.2c0,0.1-0.1,0.1-0.2,0.1C77.8,47.1,77.5,47.1,77.2,47.1
		C77.2,47.1,77.2,47.1,77.2,47.1z M76.2,45.3c-0.3-0.6-0.5-1.2-0.8-1.8c-0.3,0.6-0.6,1.2-0.8,1.8C75.1,45.3,75.6,45.3,76.2,45.3z"/>
	<path class="st0" d="M107,30.1c-0.3,0-0.6,0-0.8,0c-0.1,0-0.2-0.1-0.2-0.1c0.1-0.1,0.1-0.2,0.2-0.2c0.5,0,0.4-0.3,0.3-0.6
		c-0.1-0.4-0.3-0.6-0.8-0.6c-0.3,0-0.7,0-1,0c-0.4,0-0.8,0.5-0.7,0.9c0,0.1,0.2,0.1,0.3,0.2c0.1,0.1,0.1,0.1,0.2,0.2
		c-0.1,0-0.1,0.1-0.2,0.1c-0.4,0-0.8,0-1.3,0c-0.1,0-0.1-0.1-0.2-0.1c0-0.1,0.1-0.2,0.1-0.2c0.4-0.1,0.5-0.4,0.7-0.7
		c0.5-1.1,1.1-2.2,1.6-3.4c0.1-0.1,0.2-0.3,0.4-0.3c0.1,0,0.3,0.2,0.3,0.3c0.5,1.1,1,2.2,1.5,3.3c0.1,0.3,0.3,0.7,0.7,0.8
		c0,0,0.1,0.1,0.1,0.2c0,0.1-0.1,0.1-0.2,0.1C107.6,30.2,107.3,30.1,107,30.1z M106,28.3c-0.3-0.6-0.5-1.2-0.8-1.8
		c-0.3,0.6-0.6,1.2-0.8,1.8C104.9,28.3,105.4,28.3,106,28.3z"/>
	<path class="st0" d="M60.7,25.9c0,0.6,0,1.1,0,1.6c0.3,0,0.5,0,0.8,0c0.3,0,0.6,0,0.6-0.5c0-0.1,0.1-0.1,0.2-0.2
		c0.1,0.1,0.2,0.1,0.2,0.2c0,0.4,0,0.8,0,1.3c0,0.1-0.1,0.1-0.2,0.2c-0.1-0.1-0.2-0.1-0.2-0.2c0-0.4-0.2-0.4-0.5-0.4
		c-0.3,0-0.6,0-0.9,0c0,0.6,0,1.2,0,1.8c0.5,0,0.9,0,1.4,0c0.3,0,0.5-0.2,0.4-0.5c0-0.1,0.1-0.2,0.2-0.2c0.1,0.1,0.1,0.2,0.2,0.2
		c0,0,0,0.1,0,0.1c0,1,0.1,0.8-0.8,0.8c-0.9,0-1.7,0-2.6,0c-0.1,0-0.2-0.1-0.3-0.2c0.1-0.1,0.2-0.2,0.3-0.2c0.3,0,0.4-0.2,0.4-0.4
		c0-1,0-2.1,0-3.1c0-0.3-0.1-0.4-0.4-0.4c-0.1,0-0.2-0.1-0.3-0.2c0.1-0.1,0.2-0.2,0.3-0.2c1,0,2,0,3,0c0.2,0,0.3,0.1,0.3,0.3
		c0,0.2,0,0.4,0,0.6c0,0.1-0.1,0.1-0.2,0.2c-0.1-0.1-0.1-0.1-0.1-0.2c0-0.4-0.3-0.5-0.6-0.5C61.4,25.9,61.1,25.9,60.7,25.9z"/>
	<path class="st0" d="M114.7,28c0,0.6,0,1.2,0,1.8c0.5,0,0.9,0,1.3,0c0.5,0,0.5-0.4,0.5-0.7c0,0,0.1,0,0.1,0
		c0.4,0.2,0.1,0.6,0.2,0.9c0,0.2,0,0.3-0.2,0.3c-1.1,0-2.2,0-3.2,0c-0.1,0-0.1-0.1-0.2-0.2c0.1-0.1,0.1-0.2,0.2-0.2
		c0.4,0,0.5-0.3,0.5-0.6c0-0.9,0-1.9,0-2.8c0-0.3,0-0.6-0.4-0.5c-0.1,0-0.2-0.1-0.2-0.2c0.1-0.1,0.2-0.2,0.3-0.2c0.3,0,0.6,0,1,0
		c0.6,0,1.3,0,1.9,0c0.4,0,0.5,0.1,0.5,0.5c0,0.1,0,0.3,0,0.4c0,0.1-0.1,0.1-0.2,0.2c-0.1-0.1-0.2-0.1-0.2-0.2
		c0-0.4-0.3-0.5-0.6-0.5c-0.3,0-0.5,0-0.8,0c-0.2,0-0.3,0.1-0.3,0.3c0,0.4,0,0.8,0,1.3c0.4,0,0.8,0,1.2,0c0.1,0,0.2-0.3,0.3-0.4
		c0-0.1,0.1-0.1,0.1-0.2c0.1,0.1,0.2,0.1,0.2,0.2c0,0.4,0,0.8,0,1.3c0,0.1-0.1,0.1-0.2,0.2c-0.1-0.1-0.2-0.1-0.2-0.2
		c0-0.4-0.3-0.4-0.6-0.4C115.3,28,115,28,114.7,28z"/>
	<path class="st0" d="M52.3,28.2c0,0.4,0,0.8,0,1.2c0,0.3,0.1,0.4,0.4,0.4c0.1,0,0.2,0.1,0.3,0.2c-0.1,0-0.2,0.1-0.3,0.1
		c-0.6,0-1.1,0-1.7,0c-0.1,0-0.2-0.1-0.3-0.1c0.1-0.1,0.2-0.2,0.3-0.2c0.3,0,0.4-0.2,0.4-0.5c0-1,0-2,0-3c0-0.3-0.1-0.4-0.4-0.4
		c-0.1,0-0.2-0.1-0.3-0.2c0.1-0.1,0.2-0.2,0.3-0.2c0.9,0,1.7,0,2.6,0.1c0.6,0,1.1,0.5,1.1,1.1c0.1,0.5-0.3,1.1-0.9,1.3
		C53.4,28.1,52.8,28.1,52.3,28.2z M52.3,25.9c0,0.6,0,1.2,0,1.8c0.5,0,1.1,0.1,1.4-0.4c0.2-0.3,0.2-0.7,0-1
		C53.4,25.8,52.8,25.9,52.3,25.9z"/>
	<path class="st0" d="M98.8,27.6c0-0.4,0-0.8,0-1.2c0-0.3-0.1-0.6-0.5-0.5c-0.1,0-0.1-0.1-0.2-0.1c0.1-0.1,0.1-0.2,0.2-0.2
		c0.6,0,1.2,0,1.9,0c0.1,0,0.1,0.1,0.2,0.2c-0.1,0.1-0.1,0.2-0.2,0.2c-0.4,0-0.5,0.3-0.5,0.6c0,0.7,0,1.4,0,2c0,0.8,0.4,1.3,1.1,1.4
		c0.7,0,1.2-0.4,1.2-1.3c0-0.8,0-1.6,0-2.4c0-0.2-0.1-0.4-0.4-0.4c-0.1,0-0.2-0.1-0.3-0.2c0.1-0.1,0.2-0.2,0.3-0.2
		c0.4,0,0.8,0,1.3,0c0.1,0,0.2,0.1,0.2,0.2c-0.1,0.1-0.2,0.2-0.2,0.2c-0.4,0-0.4,0.2-0.4,0.5c0,0.7,0,1.5,0,2.2c0,1-0.6,1.5-1.6,1.7
		c-0.9,0.1-1.8-0.4-2-1.2C98.8,28.6,98.9,28.1,98.8,27.6C98.9,27.6,98.9,27.6,98.8,27.6z"/>
	<path class="st0" d="M61.5,17.5c0,0.6,0,1.1,0,1.6c0.3,0,0.6,0,1,0c0.3,0,0.5-0.1,0.5-0.5c0-0.1,0.1-0.1,0.2-0.2
		c0.1,0.1,0.2,0.1,0.2,0.2c0,0.4,0,0.8,0,1.3c0,0.1-0.1,0.1-0.2,0.2C63,20,62.9,20,62.9,19.9c0-0.4-0.2-0.4-0.5-0.4
		c-0.3,0-0.6,0-0.9,0c0,0.6,0,1.2,0,1.8c0.5,0,1,0,1.4,0c0.3,0,0.4-0.2,0.4-0.5c0-0.1,0.1-0.2,0.2-0.2c0.1,0.1,0.1,0.2,0.1,0.3
		c0.1,0.9,0.1,0.9-0.8,0.9c-0.8,0-1.7,0-2.5,0c-0.1,0-0.2-0.1-0.3-0.1c0.1-0.1,0.2-0.1,0.3-0.2c0.3,0,0.4-0.2,0.4-0.4
		c0-1,0-2.1,0-3.1c0-0.3-0.1-0.4-0.4-0.4c-0.1,0-0.2-0.1-0.3-0.2c0,0,0-0.1,0.1-0.1c0.1,0,0.2,0,0.4,0c1,0,1.9,0,2.9,0
		c0.3,0,0.4,0.1,0.4,0.4c0,0.2,0,0.3,0,0.5c0,0.1-0.1,0.1-0.2,0.2c-0.1-0.1-0.2-0.1-0.2-0.2c0-0.4-0.3-0.5-0.6-0.5
		C62.2,17.5,61.9,17.5,61.5,17.5z"/>
	<path class="st0" d="M56.6,46.4c0-0.1,0-0.3,0-0.4c0-0.1,0.1-0.1,0.2-0.2c0.1,0.1,0.2,0.1,0.2,0.2c0.1,0.8,1.2,1.2,1.8,0.7
		c0.4-0.3,0.4-0.8,0-1.1c-0.2-0.2-0.5-0.3-0.7-0.4c-0.3-0.2-0.6-0.3-0.9-0.5c-0.7-0.5-0.7-1.4,0-1.9c0.7-0.5,1.5-0.5,2.4-0.3
		c0.1,0,0.1,0.2,0.1,0.2c0,0.2,0,0.4,0,0.7c0,0.1-0.1,0.2-0.1,0.3c-0.1-0.1-0.2-0.1-0.2-0.2c-0.2-0.6-0.4-0.7-1-0.7
		c-0.4,0-0.6,0.2-0.7,0.5c-0.1,0.3,0,0.6,0.3,0.8c0.3,0.2,0.7,0.3,1,0.5c0.3,0.2,0.6,0.3,0.8,0.6c0.5,0.5,0.4,1.3-0.2,1.7
		c-0.8,0.5-1.7,0.4-2.6,0.1C56.6,47,56.6,46.6,56.6,46.4C56.6,46.4,56.6,46.4,56.6,46.4z"/>
	<path class="st0" d="M63.2,27.8c0-1.3,0.9-2.3,2.2-2.4c0.5,0,1.1,0,1.6,0.1c0.1,0,0.3,0.1,0.3,0.2c0.1,0.3,0.1,0.7,0.1,1
		c0,0.1-0.1,0.2-0.1,0.3c-0.1-0.1-0.2-0.1-0.2-0.2c-0.2-0.4-0.4-0.8-0.8-1c-0.7-0.3-1.4,0-1.7,0.7c-0.4,0.8-0.4,1.7,0,2.5
		c0.5,0.9,1.4,1.1,2.3,0.5c0.1,0,0.1-0.1,0.2-0.1c0.1,0,0.2,0,0.3,0c0,0.1,0,0.3-0.1,0.3c-0.5,0.6-1.2,0.8-2,0.6
		C64,30.1,63.2,29.1,63.2,27.8z"/>
	<path class="st0" d="M69.9,46.4c-0.5,0.7-1.2,0.9-2,0.8c-1-0.1-1.7-0.6-2-1.6c-0.6-2,0.8-3.5,3.1-3.3c1,0.1,0.9,0,0.9,1.1
		c0,0.2-0.1,0.4-0.1,0.5c-0.1-0.1-0.2-0.3-0.3-0.4c-0.2-0.5-0.5-0.8-1.1-0.8c-0.6,0-1.1,0.2-1.4,0.8c-0.4,0.7-0.4,1.5-0.1,2.2
		c0.5,1.1,1.5,1.4,2.5,0.7C69.5,46.3,69.7,46.1,69.9,46.4z"/>
	<path class="st0" d="M75.6,20.9c-0.6,0.7-1.3,0.9-2.1,0.9c-0.9-0.1-1.5-0.6-1.9-1.5c-0.6-1.7,0.4-3.2,2.1-3.4c0.5,0,1,0,1.5,0.1
		c0.1,0,0.3,0.2,0.3,0.3c0.1,0.3,0.1,0.6,0.1,0.8c0,0.1-0.1,0.2-0.1,0.4c-0.1-0.1-0.2-0.2-0.3-0.3c-0.2-0.4-0.4-0.8-0.9-0.9
		c-0.6-0.2-1.3,0-1.6,0.6c-0.5,0.9-0.5,1.7,0,2.6c0.5,0.9,1.5,1,2.3,0.4C75.3,20.7,75.3,20.7,75.6,20.9z"/>
	<path class="st0" d="M56,43.6c-0.4,0.1-0.4-0.1-0.4-0.3c0-0.4-0.3-0.5-0.6-0.6c-0.4-0.1-0.8,0-1,0.3c-0.2,0.2-0.3,0.5-0.1,0.7
		c0.2,0.2,0.4,0.4,0.7,0.5c0.3,0.2,0.6,0.3,0.8,0.4c0.6,0.4,0.9,0.8,0.8,1.3c-0.1,0.6-0.6,1-1.3,1.1c-0.6,0-1.1-0.1-1.7-0.1
		c-0.2,0-0.3-0.2-0.3-0.4c0-0.2,0-0.4,0-0.7c0-0.1,0.1-0.2,0.2-0.2c0.1,0.1,0.2,0.1,0.2,0.2c0.2,0.8,0.9,1.1,1.6,0.8
		c0.5-0.3,0.6-0.9,0.1-1.2c-0.2-0.1-0.4-0.2-0.6-0.3c-0.3-0.2-0.7-0.3-1-0.6c-0.6-0.5-0.6-1.4,0-1.8c0.7-0.5,1.5-0.5,2.4-0.3
		c0.1,0,0.1,0.1,0.1,0.2C56.1,43,56,43.3,56,43.6z"/>
	<path class="st0" d="M80.4,43c0,1.1,0,2.3,0,3.4c0,0.3,0.1,0.4,0.4,0.4c0.1,0,0.2,0.1,0.3,0.2c-0.1,0.1-0.2,0.2-0.3,0.2
		c-0.6,0-1.1,0-1.7,0C79,47.1,79,47,78.9,47c0.1-0.1,0.2-0.2,0.2-0.2c0.4,0,0.4-0.2,0.4-0.5c0-1.1,0-2.2,0-3.3c-0.3,0-0.6,0-0.9,0
		c-0.3,0-0.4,0.2-0.4,0.5c0,0.2,0,0.4-0.4,0.3c0-0.4,0-0.7,0-1.1c0-0.1,0.1-0.2,0.2-0.2c1.3,0,2.6,0,3.9,0c0.1,0,0.2,0.1,0.2,0.2
		c0,0.3,0,0.6,0,0.9c0,0.1-0.1,0.2-0.1,0.2c-0.1,0-0.2-0.1-0.2-0.1c-0.1-0.2-0.1-0.6-0.2-0.6c-0.3-0.1-0.7-0.1-1-0.1
		C80.5,43,80.5,43,80.4,43z"/>
	<path class="st0" d="M71.4,42.5c0.3,0,0.5,0,0.8,0c0.1,0,0.2,0.1,0.2,0.2c-0.1,0.1-0.2,0.2-0.2,0.2c-0.3,0-0.4,0.2-0.4,0.4
		c0,1,0,2,0,3c0,0.3,0.1,0.5,0.4,0.5c0.1,0,0.2,0.1,0.2,0.2c-0.1,0.1-0.2,0.2-0.2,0.2c-0.6,0-1.1,0-1.7,0c-0.1,0-0.2-0.1-0.3-0.2
		c0.1-0.1,0.2-0.2,0.3-0.2c0.3,0,0.4-0.2,0.4-0.4c0-1,0-2,0-3c0-0.3-0.1-0.4-0.4-0.4c-0.1,0-0.2-0.1-0.2-0.2
		c0.1-0.1,0.2-0.2,0.3-0.2C70.9,42.5,71.2,42.5,71.4,42.5z"/>
	<path class="st0" d="M83.6,47.1c-0.3,0-0.6,0-0.8,0c-0.1,0-0.2-0.1-0.3-0.2c0.1-0.1,0.2-0.2,0.2-0.2c0.4,0,0.4-0.2,0.4-0.5
		c0-1,0-2,0-3c0-0.3-0.1-0.4-0.4-0.4c-0.1,0-0.2-0.1-0.2-0.2c0.1-0.1,0.2-0.2,0.2-0.2c0.6,0,1.1,0,1.7,0c0.1,0,0.2,0.1,0.2,0.2
		c-0.1,0.1-0.2,0.2-0.2,0.2c-0.3,0-0.4,0.2-0.4,0.5c0,1,0,2,0,3c0,0.3,0.1,0.4,0.4,0.4c0.1,0,0.2,0.1,0.2,0.2
		c-0.1,0.1-0.2,0.1-0.3,0.1C84.1,47.1,83.8,47.1,83.6,47.1z"/>
	<path class="st0" d="M67.9,38.6c-0.3,0-0.5,0-0.8,0c-0.1,0-0.2-0.1-0.3-0.2c0.1-0.1,0.2-0.1,0.2-0.2c0.3,0,0.4-0.1,0.4-0.4
		c0-1,0-2.1,0-3.1c0-0.3-0.1-0.5-0.4-0.4c-0.1,0-0.1-0.1-0.2-0.2c0.1-0.1,0.2-0.2,0.2-0.2c0.6,0,1.1,0,1.7,0c0.1,0,0.2,0.1,0.2,0.2
		c-0.1,0.1-0.2,0.2-0.2,0.2c-0.3,0-0.4,0.1-0.4,0.4c0,1,0,2.1,0,3.1c0,0.3,0.1,0.4,0.4,0.4c0.1,0,0.2,0.1,0.3,0.2
		c-0.1,0-0.2,0.1-0.3,0.1C68.4,38.7,68.1,38.6,67.9,38.6z"/>
	<path class="st0" d="M69.9,21.7c-0.3,0-0.6,0-0.9,0c-0.1,0-0.1-0.1-0.2-0.2c0.1,0,0.1-0.1,0.2-0.1c0.4,0,0.5-0.2,0.5-0.6
		c0-0.9,0-1.9,0-2.8c0-0.3,0-0.6-0.5-0.6c-0.1,0-0.1-0.1-0.2-0.2c0.1-0.1,0.1-0.2,0.2-0.2c0.6,0,1.2,0,1.8,0c0.1,0,0.2,0.1,0.2,0.1
		c-0.1,0.1-0.2,0.2-0.2,0.2c-0.4,0-0.4,0.2-0.4,0.5c0,1,0,2,0,3c0,0.3,0.1,0.5,0.5,0.5c0.1,0,0.1,0.1,0.2,0.2
		c-0.1,0-0.2,0.1-0.2,0.1C70.5,21.7,70.2,21.7,69.9,21.7C69.9,21.7,69.9,21.7,69.9,21.7z"/>
	<path class="st0" d="M34.3,51.2c0-0.9,0.7-1.6,1.6-1.6c0.9,0,1.6,0.7,1.6,1.6c0,0.9-0.7,1.6-1.6,1.6C35.1,52.9,34.4,52.1,34.3,51.2
		z M36,52.5c0.7,0,1.3-0.6,1.3-1.3c0-0.7-0.6-1.3-1.3-1.3c-0.7,0-1.3,0.6-1.3,1.3C34.7,52,35.3,52.5,36,52.5z"/>
	<path class="st0" d="M76.3,28.4c-0.9,0-1.7,0-2.6,0c-0.1,0-0.2-0.2-0.2-0.3c0-0.1,0.1-0.3,0.2-0.3c0.8,0,1.6,0,2.4,0
		c0.1,0,0.2,0.3,0.3,0.5C76.4,28.3,76.4,28.3,76.3,28.4z"/>
	<path class="st0" d="M36.3,51.4c0.2,0.3,0.3,0.5,0.5,0.8c-0.3,0.1-0.4-0.1-0.5-0.3c-0.2-0.2-0.2-0.6-0.6-0.5c0,0.2,0,0.5,0,0.7
		c-0.2,0.1-0.3,0.1-0.3-0.2c0-0.5,0-1.1,0-1.6c0.3,0,0.5,0,0.7,0c0.3,0,0.6,0,0.6,0.4C36.8,51,36.7,51.2,36.3,51.4z M35.7,51.1
		c0.3-0.1,0.5-0.1,0.7-0.2c0,0,0-0.2,0-0.3c-0.2-0.1-0.4-0.1-0.7-0.2C35.7,50.7,35.7,50.9,35.7,51.1z"/>
</g>
</svg>
