<?xml version="1.0" encoding="utf-8"?>
<!-- Generator: Adobe Illustrator 19.0.0, SVG Export Plug-In . SVG Version: 6.00 Build 0)  -->
<svg version="1.1" id="Layer_1" xmlns="http://www.w3.org/2000/svg" xmlns:xlink="http://www.w3.org/1999/xlink" x="0px" y="0px"
	 viewBox="0 0 120 64" style="enable-background:new 0 0 120 64;" xml:space="preserve">
<style type="text/css">
	.st0{fill:#C1C1C1;}
</style>
<g>
	<path class="st0" d="M14.5,19.8c5.1,8.5,10.2,16.9,15.3,25.4c-1.9,0-3.7,0-5.5,0c0-0.3,0-0.6,0-0.9c-0.7,0-1.3,0-2,0
		c0-0.9,0-1.8,0-2.7c0.6,0,1.1,0,1.7,0c0-0.3,0-0.6,0-0.9c-0.5,0-1.1,0-1.7,0c0-0.8,0-1.6,0-2.4c0.6,0,1.2,0,1.8,0
		c0-0.3,0-0.6,0-0.9c-0.9,0-1.9,0-2.8,0c0,2.6,0,5.2,0,7.9c-7.1,0-14.2,0-21.4,0C4.8,36.7,9.7,28.2,14.5,19.8z"/>
	<path class="st0" d="M75.5,25.8c0,2.9,0,5.8,0,8.7c-1.3,0-2.5,0-3.8,0c0-5.2,0-10.4,0-15.6c0.1,0,0.1,0,0.2,0c1.3,0,2.7,0,4,0
		c0.2,0,0.3,0,0.3,0.2c0.7,1.3,1.3,2.7,2,4c0.6,1.3,1.2,2.5,1.9,3.8c0,0.1,0.1,0.2,0.2,0.4c0.1-0.1,0.1-0.2,0.1-0.2
		c0.7-1.3,1.3-2.7,2-4.1c0.6-1.3,1.2-2.5,1.8-3.8c0.1-0.2,0.2-0.2,0.4-0.2c1.3,0,2.6,0,3.9,0c0.1,0,0.2,0,0.3,0c0,5.2,0,10.4,0,15.6
		c-1.3,0-2.5,0-3.8,0c0-2.9,0-5.8,0-8.7c0,0,0,0-0.1,0c-1.6,3.1-3.1,6.3-4.7,9.4C78.7,32,77.1,28.9,75.5,25.8
		C75.5,25.8,75.5,25.8,75.5,25.8z"/>
	<path class="st0" d="M110.1,25.8c0,2.9,0,5.8,0,8.7c-1.3,0-2.5,0-3.8,0c0-5.2,0-10.4,0-15.6c0.1,0,0.2,0,0.2,0c1.1,0,2.2,0,3.3,0
		c0.2,0,0.3,0,0.4,0.2c1.1,1.7,2.3,3.5,3.4,5.2c0.8,1.3,1.7,2.6,2.5,3.9c0-3.1,0-6.2,0-9.3c1.3,0,2.5,0,3.8,0c0,5.2,0,10.4,0,15.6
		c-0.1,0-0.2,0-0.3,0c-1.2,0-2.4,0-3.6,0c-0.2,0-0.4-0.1-0.5-0.3c-0.7-1.1-1.4-2.2-2.1-3.2c-0.9-1.4-1.8-2.9-2.7-4.3
		C110.6,26.4,110.4,26.1,110.1,25.8C110.2,25.8,110.1,25.8,110.1,25.8z"/>
	<path class="st0" d="M50.8,26.8c0,1.2-0.3,2.3-0.8,3.4c-1.2,2.4-3.1,3.9-5.8,4.5c-0.6,0.1-1.2,0.2-1.8,0.2c-1.8-0.1-3.5-0.6-5-1.7
		c-1-0.8-1.8-1.7-2.4-2.8c-0.5-0.9-0.7-1.9-0.8-2.9c-0.1-1.6,0.2-3.1,0.9-4.5c0.7-1.4,1.7-2.4,3.1-3.2c1-0.6,2-0.9,3.1-1
		c1.8-0.2,3.6,0,5.2,0.9c0.5,0.3,0.9,0.6,1.3,1c0.9,0.7,1.5,1.6,2,2.6c0.4,0.8,0.6,1.6,0.7,2.5C50.8,26.2,50.8,26.5,50.8,26.8z
		 M47,26.9c0-0.3,0-0.6-0.1-0.9c-0.2-1.2-0.7-2.2-1.7-2.9c-1.1-0.8-2.3-1.1-3.6-0.8c-1,0.2-1.9,0.8-2.5,1.7c-0.8,1.1-1,2.3-0.8,3.6
		c0.2,1.1,0.7,2.1,1.6,2.8c1,0.8,2,1.1,3.3,0.9c0.8-0.1,1.6-0.4,2.2-1C46.4,29.4,47,28.3,47,26.9z"/>
	<path class="st0" d="M105,34.4c-1.4,0-2.8,0-4.2,0c-0.2-0.7-0.4-1.3-0.6-2c0-0.1-0.1-0.2-0.2-0.2c-1.8,0-3.5,0-5.3,0
		c-0.2,0.7-0.4,1.4-0.6,2c0,0.1-0.1,0.2-0.2,0.2c-1.3,0-2.6,0-3.9,0c1.7-5.2,3.4-10.4,5.1-15.6c1.6,0,3.2,0,4.8,0
		C101.6,24.1,103.3,29.2,105,34.4z M99.3,29.3c-0.6-2.1-1.3-4.3-1.9-6.4c0,0,0,0-0.1,0c-0.7,2.1-1.3,4.2-2,6.4
		C96.7,29.3,98,29.3,99.3,29.3z"/>
	<path class="st0" d="M34.6,21.2c-0.7,0.8-1.5,1.6-2.3,2.4c-0.5-0.3-0.9-0.6-1.4-0.9c-1.6-0.8-3.2-0.6-4.6,0.5
		c-0.7,0.6-1.1,1.4-1.3,2.3c-0.3,1.6-0.1,3.1,0.9,4.4c0.6,0.8,1.5,1.2,2.5,1.4c0.8,0.1,1.5,0.1,2.2-0.1c0.6-0.2,1.1-0.5,1.5-0.9
		c0.1-0.2,0.2-0.2,0.4,0c0.6,0.7,1.2,1.4,1.8,2.1c0.3,0.3,0.3,0.3,0,0.6c-1.1,0.9-2.3,1.5-3.7,1.8c-0.8,0.2-1.7,0.2-2.6,0.1
		c-1.5-0.1-2.9-0.6-4.1-1.5c-0.7-0.6-1.2-1.3-1.7-2c-0.6-1-0.9-2-1.1-3.1c0-0.2-0.1-0.5-0.1-0.8c0-0.6,0-1.3,0.1-1.9
		c0.1-0.9,0.4-1.7,0.7-2.5c0.4-0.9,1-1.7,1.7-2.3c1-0.9,2.2-1.5,3.6-1.8c0.8-0.1,1.6-0.2,2.3-0.2c1.8,0.1,3.4,0.7,4.7,1.8
		c0.1,0.1,0.2,0.2,0.3,0.2C34.5,21,34.6,21.1,34.6,21.2z"/>
	<path class="st0" d="M51.8,18.8c3,0,5.9,0,8.9,0c0,1.1,0,2.2,0,3.4c-1.7,0-3.4,0-5.1,0c0,1,0,2,0,3c1.7,0,3.4,0,5.1,0c0,1,0,2,0,3
		c-1.7,0-3.4,0-5.1,0c0,2.1,0,4.3,0,6.4c-1.3,0-2.5,0-3.8,0C51.8,29.3,51.8,24,51.8,18.8z"/>
	<path class="st0" d="M62,18.8c3,0,6,0,8.9,0c0,1.1,0,2.2,0,3.3c-1.7,0-3.4,0-5.1,0c0,1,0,2,0,3c1.7,0,3.4,0,5.1,0c0,1,0,2,0,3
		c-1.7,0-3.4,0-5.1,0c0,2.2,0,4.3,0,6.4c-1.3,0-2.5,0-3.8,0C62,29.3,62,24,62,18.8z"/>
	<path class="st0" d="M72.8,45.3c-0.3,0-0.5,0-0.8,0c-0.1,0-0.1-0.1-0.2-0.2c-0.4-1.1-0.8-2.1-1.1-3.2c-0.2-0.6-0.4-1.1-0.6-1.8
		c0,1.7,0,3.4,0,5.1c-0.3,0-0.6,0-0.9,0c0-2.7,0-5.4,0-8.2c0.3,0,0.5,0,0.8,0c0.1,0,0.1,0.1,0.1,0.2c0.3,0.9,0.7,1.8,1,2.8
		c0.2,0.7,0.5,1.4,0.8,2.1c0-1.7,0-3.3,0-5c0.3,0,0.6,0,0.9,0C72.8,39.8,72.8,42.5,72.8,45.3z"/>
	<path class="st0" d="M33.3,37.1c0.3,0,0.5,0,0.7,0c0.1,0,0.2,0.1,0.2,0.2c0.4,1.1,0.8,2.2,1.1,3.2c0.2,0.5,0.4,1.1,0.6,1.6
		c0-1.7,0-3.3,0-5c0.3,0,0.6,0,0.9,0c0,2.7,0,5.4,0,8.1c-0.3,0-0.5,0-0.8,0c-0.1,0-0.2-0.1-0.2-0.2c-0.6-1.6-1.1-3.2-1.7-4.8
		c0,0,0,0,0-0.1c0,1.7,0,3.4,0,5c-0.3,0-0.6,0-0.9,0C33.3,42.5,33.3,39.8,33.3,37.1z"/>
	<path class="st0" d="M106.2,37c0.6,0.1,1.1,0,1.7,0.2c0.6,0.1,1,0.6,1.2,1.2c0.2,0.7,0.2,1.4-0.2,2.1c-0.1,0.2-0.3,0.4-0.5,0.6
		c0.7,0.6,0.8,1.4,1,2.2c0.1,0.6,0.3,1.2,0.4,1.8c0,0,0,0.1,0,0.2c-0.3,0-0.7,0-1,0c-0.1-0.5-0.2-0.9-0.3-1.4
		c-0.2-0.6-0.4-1.3-0.6-1.9c0-0.1-0.2-0.3-0.3-0.3c-0.1-0.1-0.2-0.1-0.3-0.1c0,0-0.1,0.2-0.1,0.2c0,1.1,0,2.1,0,3.2
		c0,0.1,0,0.2,0,0.3c-0.4,0-0.7,0-1,0C106.2,42.5,106.2,39.8,106.2,37z M107.2,38.1c0,0.8,0,1.6,0,2.4c0.3,0,0.6-0.1,0.7-0.3
		c0.3-0.5,0.2-1.1,0-1.6C107.8,38.3,107.6,38.1,107.2,38.1z"/>
	<path class="st0" d="M49.5,38.8c-0.3-0.2-0.5-0.4-0.7-0.5c-0.9-0.4-1.6-0.1-1.9,0.8c-0.2,0.5-0.3,1-0.3,1.5c0,0.7,0,1.4,0.1,2.1
		c0.1,0.5,0.3,1.1,0.7,1.4c0.3,0.2,0.6,0.2,0.9,0.1c0,0,0.1-0.1,0.1-0.1c0-0.8,0-1.6,0-2.4c-0.2,0-0.4,0-0.7,0c0-0.3,0-0.6,0-0.9
		c0.5,0,1.1,0,1.6,0c0,0.1,0,0.2,0,0.2c0,1.2,0,2.3,0,3.5c0,0.2-0.1,0.3-0.2,0.4c-1,0.6-2.5,0.3-3.1-0.9c-0.4-0.7-0.6-1.5-0.6-2.3
		c0-0.6,0-1.2,0.1-1.8c0.1-0.8,0.3-1.7,1-2.3c0.4-0.3,0.8-0.5,1.3-0.6c0.6,0,1.1,0.1,1.5,0.4c0.1,0,0.1,0.1,0.1,0.2
		C49.5,38.1,49.5,38.4,49.5,38.8z"/>
	<path class="st0" d="M82.3,37.1c1,0,1.9,0,2.9,0c0,0.3,0,0.6,0,1c-0.6,0-1.2,0-1.8,0c0,0.8,0,1.6,0,2.4c0.6,0,1.1,0,1.7,0
		c0,0.3,0,0.6,0,1c-0.6,0-1.1,0-1.7,0c0,0.9,0,1.8,0,2.7c0.6,0,1.3,0,1.9,0c0,0.3,0,0.7,0,1c-1,0-2,0-3,0
		C82.3,42.5,82.3,39.8,82.3,37.1z"/>
	<path class="st0" d="M94.3,37.1c1,0,1.9,0,2.9,0c0,0.3,0,0.6,0,1c-0.6,0-1.2,0-1.9,0c0,0.8,0,1.6,0,2.4c0.6,0,1.1,0,1.7,0
		c0,0.3,0,0.6,0,1c-0.6,0-1.1,0-1.7,0c0,0.9,0,1.9,0,2.8c0.7,0,1.3,0,2,0c0,0.3,0,0.7,0,1c-1,0-2,0-3,0
		C94.3,42.5,94.3,39.8,94.3,37.1z"/>
	<path class="st0" d="M117.3,43.8c0.2,0.1,0.3,0.2,0.5,0.3c0.3,0.1,0.6,0.2,0.8,0c0.3-0.2,0.4-0.6,0.3-0.9c-0.2-0.5-0.4-1-0.6-1.4
		c-0.4-0.8-0.9-1.7-1.1-2.6c-0.1-0.6,0-1.3,0.6-1.7c0.5-0.4,1.1-0.4,1.7-0.2c0.1,0.1,0.3,0.1,0.2,0.3c0,0.2,0,0.5,0,0.7
		c-0.2-0.1-0.3-0.1-0.4-0.2c-0.3-0.1-0.6-0.1-0.8,0.1c-0.2,0.2-0.3,0.5-0.2,0.8c0.1,0.7,0.6,1.3,0.8,2c0.3,0.6,0.5,1.2,0.7,1.8
		c0.3,1-0.2,2.1-1.1,2.4c-0.5,0.1-0.9,0.1-1.3-0.2c-0.1,0-0.1-0.1-0.1-0.2C117.3,44.5,117.3,44.2,117.3,43.8z"/>
	<path class="st0" d="M59.8,45.2c-0.3,0-0.6,0-1,0c0-2.7,0-5.4,0-8.1c0.3,0,0.6,0,1,0C59.8,39.8,59.8,42.5,59.8,45.2z"/>
</g>
</svg>
