<?xml version="1.0" encoding="utf-8"?>
<!-- Generator: Adobe Illustrator 19.0.0, SVG Export Plug-In . SVG Version: 6.00 Build 0)  -->
<svg version="1.1" id="Layer_1" xmlns="http://www.w3.org/2000/svg" xmlns:xlink="http://www.w3.org/1999/xlink" x="0px" y="0px"
	 viewBox="-9 39 120 64" style="enable-background:new -9 39 120 64;" xml:space="preserve">
<style type="text/css">
	.st0{fill:#fff;}
</style>
<g>
	<path class="st0" d="M29.1,72.3c4.1,0,8,0,12.1,0c1,0,2,0.2,2.9,0.7c2.3,1.4,2.8,4.7,0.7,6.6c-0.9,0.8-1.9,1.1-3.1,1.1
		c-8.2,0-16.4,0-24.5,0c-1.1,0-2-0.1-2.9-0.6c-0.8-0.5-1.4-1.2-1.8-2c-0.8-2,0.2-4.7,2.5-5.4c0.7-0.2,1.4-0.3,2.2-0.3
		C21,72.3,25,72.3,29.1,72.3z"/>
	<path class="st0" d="M29,55.6c-4.3,0-8.5,0-12.8,0c-2.3,0-4.1-1.8-4.2-4.1c0-1.9,1.2-3.6,3-4.1c0.7-0.2,1.4-0.3,2-0.3
		c8,0,16,0,24,0c1.1,0,2,0.2,2.9,0.7c1.3,0.8,2.1,2.2,2,3.8c-0.1,1.3-0.7,2.3-1.7,3.1c-0.7,0.5-1.5,0.8-2.5,0.8
		C37.5,55.5,33.3,55.6,29,55.6z"/>
	<path class="st0" d="M29,59.9c4.3,0,8.5,0,12.8,0c2.6,0,4.7,2.3,4.1,5.1c-0.4,1.7-1.6,2.6-3.2,3.1c-0.5,0.2-1.1,0.2-1.5,0.2
		c-8.1,0-16.2,0-24.3,0c-1.1,0-2.1-0.2-3-0.8c-1.5-1.1-2.2-2.9-1.6-4.7c0.5-1.4,1.4-2.3,2.9-2.8c0.4-0.2,0.8-0.2,1.1-0.2
		C20.5,59.9,24.8,59.9,29,59.9z"/>
	<path class="st0" d="M50.2,63.9c0-4.2,0-8.4,0-12.5c0-1.7,0.8-3,2.2-3.8c1.2-0.7,2.5-0.8,3.8-0.2c1.6,0.8,2.4,2.1,2.4,3.9
		c0,8.3,0,16.6,0,24.8c0,1-0.2,1.8-0.6,2.6c-0.8,1.2-1.8,2-3.2,2c-1.6,0.2-2.8-0.5-3.7-1.7c-0.6-0.8-0.8-1.7-0.8-2.7
		C50.2,72.3,50.2,68.1,50.2,63.9L50.2,63.9z"/>
	<path class="st0" d="M62.7,63.9c0-4.2,0-8.5,0-12.7c0-1.9,1.1-3.5,2.9-4.1c2.6-0.8,5,0.9,5.4,3.3c0.1,0.5,0.1,1,0.1,1.4
		c0,8.1,0,16.1,0,24.2c0,1-0.2,2-0.7,2.8c-0.8,1.1-1.8,1.9-3.2,2c-1.4,0.1-2.6-0.4-3.5-1.5c-0.6-0.8-1-1.7-1-2.6
		C62.7,72.5,62.7,68.2,62.7,63.9z"/>
	<path class="st0" d="M83.6,63.9c0,4,0,8,0,12c0,0.7,0,1.4-0.2,2c-0.5,1.6-1.7,2.6-3.3,2.9c-2.2,0.3-3.9-0.9-4.6-2.9
		c-0.2-0.5-0.2-1-0.2-1.5c0-8.3,0-16.7,0-25.1c0-1.7,0.7-2.9,2-3.8c1.1-0.7,2.3-0.8,3.5-0.5c1.5,0.5,2.4,1.7,2.8,3.2
		c0.2,0.5,0.1,1.1,0.1,1.7C83.6,56,83.6,60,83.6,63.9z"/>
	<path class="st0" d="M20.4,92.4c-0.6,1.8-2.3,2.9-4.5,2.6c-2-0.2-3.6-2-3.6-4.1c0-2.1,1.7-3.8,3.8-4.1c2-0.2,3.9,1.1,4.4,3.2
		c-2.1,0.8-4.2,1.7-6.4,2.6c0.2,0.6,0.8,0.8,1.2,1.1c1.3,0.5,2.9,0.3,3.8-1c0.1-0.1,0.2-0.2,0.3-0.2C19.7,92.4,20,92.4,20.4,92.4z
		 M18.8,89.4c-0.5-1.1-2-1.7-3.3-1.3c-1.4,0.5-2.3,2.1-1.8,3.3C15.4,90.7,17.1,90,18.8,89.4z"/>
	<path class="st0" d="M60,95c-2.3,0-4.2-1.8-4.2-4.1c0-2.3,1.9-4.1,4.1-4.1c2.3,0,4.3,1.9,4.2,4.1C64.1,93.2,62.3,95,60,95z
		 M62.8,90.9c0-1.7-1.3-3-2.9-3c-1.6,0-2.9,1.4-2.9,3c0,1.6,1.4,2.9,2.9,2.9C61.5,93.8,62.8,92.4,62.8,90.9z"/>
	<path class="st0" d="M66.3,94.8c0-1.8-0.1-3.5,0-5.2c0.2-2,2.3-3.3,4.4-2.8c1.7,0.5,2.6,1.6,2.6,3.3c0,1.5,0,3.1,0,4.7
		c-0.4,0-0.8,0-1.1,0c-0.1,0-0.2-0.2-0.2-0.4c0-1.4,0-2.9,0-4.3c0-0.5-0.1-1.1-0.5-1.5c-0.5-0.6-1.7-0.8-2.6-0.5
		c-0.8,0.3-1.3,1-1.3,1.9c0,1.4,0,2.9,0,4.4c0,0.4-0.1,0.6-0.5,0.5C66.8,94.8,66.6,94.8,66.3,94.8z"/>
	<path class="st0" d="M29.4,94.8c-0.4,0-0.8,0-1.2,0c0-0.2,0-0.3,0-0.5c0-1.4,0-2.9,0-4.3c0-0.8-0.2-1.5-1-1.9
		c-0.8-0.5-1.6-0.5-2.3,0c-0.8,0.4-1,1.1-1,1.9c0,1.4,0,2.9,0,4.3c0,0.2,0,0.3,0,0.5c-0.4,0-0.7,0-1.1,0c-0.1,0-0.2-0.2-0.2-0.3
		c0-1.7-0.1-3.3,0.1-5c0.1-1.3,0.9-2.3,2.4-2.6c1.5-0.4,3.1,0.1,3.9,1.3c0.3,0.5,0.5,1.1,0.6,1.7c0.1,1.6,0,3.2,0,4.7
		C29.4,94.6,29.4,94.7,29.4,94.8z"/>
	<path class="st0" d="M31,87C31.1,87,31.1,87,31,87c1.3-0.1,1.3-0.1,1.7,1.1c0.6,1.6,1.2,3.2,1.8,4.8c0,0.1,0.1,0.2,0.2,0.4
		c0.3-0.8,0.5-1.4,0.8-2.1c0.5-1.3,1-2.6,1.4-3.8c0.1-0.3,0.2-0.4,0.5-0.3c0.3,0,0.6,0,1,0c-0.3,0.7-0.5,1.4-0.8,2
		c-0.8,1.9-1.4,3.7-2.1,5.6c-0.1,0.2-0.2,0.3-0.5,0.3c-1.1,0-1.1,0-1.4-1c-0.8-2.3-1.7-4.4-2.6-6.7C31.1,87.1,31.1,87,31,87z"/>
	<path class="st0" d="M80.1,85.3c0.5,0,0.8,0,1.3,0c0,0.5,0,0.8,0,1.2c0,0.3,0.1,0.5,0.5,0.5c0.5,0,1,0,1.5,0c0,0.4,0,0.8,0,1.2
		c-0.5,0-1,0-1.5,0c-0.3,0-0.5,0.1-0.5,0.5c0,1.1,0,2.2,0,3.3c0,1.4,0.5,1.8,1.8,1.9c0.1,0,0.1,0,0.2,0.1c0,0.2,0,0.3,0,0.5
		s0,0.4,0,0.5c-1.4,0.5-2.9-0.5-3.2-2c-0.1-0.3-0.1-0.6-0.1-0.9c0-2,0-4.1,0-6.2C80.1,85.5,80.1,85.5,80.1,85.3z"/>
	<path class="st0" d="M44.1,94.8c0-0.4,0-0.8,0-1.1c0.2,0,0.3-0.1,0.5-0.1c1.4-0.2,1.7-1,1.8-2.1c0.1-0.8,0.1-1.7,0.3-2.5
		c0.3-1.4,1.7-2.2,3.3-2c0,0.4,0,0.8,0,1.1c-0.2,0-0.3,0-0.5,0c-1.1,0.1-1.7,0.7-1.8,1.8c-0.1,0.6-0.1,1.3-0.1,1.9
		C47.6,93.7,46.1,95,44.1,94.8z"/>
	<path class="st0" d="M75.9,94.8c0-2.6,0-5.2,0-7.8c0.4,0,0.8,0,1.1,0c0.1,0,0.2,0.2,0.2,0.2c0,2.4,0,4.9,0,7.3c0,0.1,0,0.2,0,0.3
		C76.8,94.8,76.4,94.8,75.9,94.8z"/>
	<path class="st0" d="M53.4,94.8c-0.5,0-0.8,0-1.3,0c0-0.2,0-0.3,0-0.5c0-2.3,0-4.6,0-6.9c0-0.5,0.2-0.5,0.5-0.5c0.2,0,0.5,0,0.8,0
		C53.4,89.6,53.4,92.1,53.4,94.8z"/>
	<path class="st0" d="M40.9,87c0.5,0,0.8,0,1.2,0c0,2.6,0,5.2,0,7.8c-0.4,0-0.8,0-1.2,0C40.9,92.1,40.9,89.6,40.9,87z"/>
	<path class="st0" d="M88,52.1c-1.1,0-2-0.9-2-2c0-1.1,0.9-2,2-2c1.1,0,1.9,0.9,1.9,2C90,51.3,89.2,52.1,88,52.1z M86.5,50.1
		c0,1.1,0.6,1.7,1.6,1.7c0.9,0,1.5-0.8,1.5-1.7s-0.7-1.7-1.6-1.7C87.1,48.5,86.5,49.2,86.5,50.1z"/>
	<path class="st0" d="M76.5,84.1c0.4,0,0.7,0.3,0.7,0.7c0,0.3-0.3,0.6-0.6,0.6c-0.4,0-0.7-0.3-0.7-0.6
		C75.9,84.4,76.2,84.1,76.5,84.1z"/>
	<path class="st0" d="M52.7,85.3c-0.3,0-0.6-0.3-0.6-0.7c0-0.3,0.4-0.6,0.7-0.6c0.4,0,0.6,0.3,0.6,0.7C53.4,85.1,53,85.3,52.7,85.3z
		"/>
	<path class="st0" d="M41.5,85.3c-0.3,0-0.7-0.3-0.7-0.6s0.4-0.7,0.7-0.7c0.3,0,0.7,0.3,0.7,0.6C42.1,85,41.8,85.3,41.5,85.3z"/>
	<path class="st0" d="M87.3,49.1c0.2,0,0.5,0,0.8,0c0.4,0,0.7,0,0.8,0.5s-0.1,0.7-0.5,0.8c0.2,0.3,0.4,0.6,0.5,0.9l-0.1,0.1
		c-0.2-0.1-0.3-0.2-0.4-0.2c-0.2-0.2-0.2-0.4-0.4-0.6c-0.1-0.1-0.2-0.2-0.4-0.2c-0.3,0.3,0.1,0.8-0.5,1.1
		C87.3,50.5,87.3,49.8,87.3,49.1z M87.6,50c0,0.1,0.1,0.1,0.1,0.2c0.3-0.1,0.5-0.2,0.8-0.3c0,0,0-0.4-0.1-0.4
		c-0.2-0.1-0.5-0.2-0.8-0.1C87.6,49.4,87.6,49.8,87.6,50z"/>
</g>
</svg>
