<?xml version="1.0" encoding="utf-8"?>
<!-- Generator: Adobe Illustrator 19.0.0, SVG Export Plug-In . SVG Version: 6.00 Build 0)  -->
<svg version="1.1" id="Layer_1" xmlns="http://www.w3.org/2000/svg" xmlns:xlink="http://www.w3.org/1999/xlink" x="0px" y="0px"
	 viewBox="0 0 120 64" style="enable-background:new 0 0 120 64;" xml:space="preserve">
<style type="text/css">
	.st0{fill:#fff;}
</style>
<g>
	<path class="st0" d="M102.8,25.7c0,0.1,0,0.3,0,0.4c0,4.9,0,9.7,0,14.6c0,0.6-0.1,0.7-0.7,0.7c-0.5,0-1.1,0-1.6,0
		c0-0.2,0-0.3,0-0.4c0-5.9,0-11.8,0-17.7c0-0.9,0.3-1.2,1.2-1.2c1.4,0,2.7,0,4.1,0c0.2,0,0.3,0.1,0.4,0.3c1,4.7,2.1,9.3,3.1,14
		c0,0.1,0.1,0.2,0.2,0.3c0-0.1,0.1-0.2,0.1-0.4c1-4.2,2-8.5,3-12.7c0.3-1.2,0.8-1.6,2-1.6c1.7,0,3.4,0,5.1,0c0.1,0,0.3,0,0.4,0
		c0,0.2,0,0.3,0,0.4c0,5.9,0,11.7,0,17.6c0,1-0.3,1.3-1.3,1.3c-1,0-2,0-3,0c-0.1,0-0.2,0-0.4,0c0-5.2,0-10.4,0-15.6
		c-0.3-0.1-0.3,0-0.4,0.2c-0.5,1.8-0.9,3.7-1.4,5.5c-0.7,2.9-1.4,5.7-2.2,8.6c-0.1,0.2-0.1,0.5-0.2,0.7c-0.2,0.4-0.5,0.6-0.9,0.7
		c-1,0-1.9,0-2.9,0c-0.1,0-0.2-0.2-0.3-0.4c-0.5-1.8-0.9-3.5-1.4-5.3c-0.8-3.2-1.6-6.4-2.5-9.7C103.1,25.9,103.1,25.6,102.8,25.7z"
		/>
	<path class="st0" d="M20.7,22c0,0.2,0,0.3,0,0.5c0,4.6,0,9.2,0,13.9c0,0.5,0,1.1,0.1,1.6c0.1,0.8,0.6,1.3,1.3,1.6
		c1.2,0.5,2.5,0.5,3.7,0c1-0.4,1.4-1.2,1.5-2.2c0-0.2,0-0.3,0-0.5c0-4.5,0-9.1,0-13.6c0-0.1,0-0.2,0-0.4c0.1-0.5,0.3-0.8,0.8-0.8
		c0.8,0,1.5,0,2.3,0c0.6,0,1.2,0,1.9,0c0,0.2,0,0.3,0,0.5c0,4.6,0,9.2,0,13.8c0,2.8-1.3,4.6-4,5.3c-2.8,0.7-5.5,0.7-8.3,0
		c-1.1-0.3-2.1-0.8-2.9-1.6c-0.9-0.9-1.3-2.1-1.3-3.4c0-4.5,0-9,0-13.6c0-0.6,0.2-0.9,0.7-0.9C17.9,22,19.3,22,20.7,22z"/>
	<path class="st0" d="M66,32.6c0,0.2,0,0.3,0,0.5c0,2.4,0,4.8,0,7.2c0,0.8-0.2,1.1-1,1.1c-1.4,0-2.7,0-4.1,0c0-2.9,0-5.9,0-8.8
		c-1.1,0-2.3,0-3.4,0c0,0,0-0.1,0-0.1c0.5-0.4,1-0.8,1.4-1.1c0.5-0.4,1.1-0.9,1.7-1.3c0.2-0.2,0.3-0.3,0.3-0.6c0-1.7,0-3.4,0-5
		c0-1.7,0.6-2.3,2.3-2.3c2.1,0,4.2,0,6.4,0c1.4,0,2.7,0,4.1,0c0.1,0,0.2,0,0.3,0c0,0.6,0,1.3,0,1.9c0,0.1-0.2,0.2-0.3,0.2
		c-0.4,0-0.8,0-1.2,0c-1.6,0-3.2,0-4.8,0c-0.2,0-0.3,0-0.5,0c-0.6,0.1-1,0.4-1,1.1c0,1.4,0,2.8,0,4.2c0,0.3,0,0.6,0,0.9
		c2.5,0,5,0,7.5,0c0,0.7,0,1.3,0,2c0,0.3-0.2,0.2-0.4,0.2c-1,0-2,0-3,0c-1.2,0-2.5,0-3.7,0C66.3,32.6,66.2,32.6,66,32.6z"/>
	<path class="st0" d="M13,22c0,0.6,0,1.3,0,1.9c0,0.1-0.1,0.2-0.2,0.2c-0.2,0-0.3,0-0.5,0c-1.9,0-3.8,0-5.7,0c-0.2,0-0.3,0-0.5,0
		c-0.6,0.1-1,0.4-1,1c0,0.6,0,1.2,0,1.7c0,1.1,0,2.2,0,3.3c0,0,0,0.1,0,0.1c2.5,0,4.9,0,7.5,0c0,0.5,0,0.9,0,1.4
		c0,0.9,0.1,0.8-0.8,0.8c-2.1,0-4.1,0-6.2,0c-0.1,0-0.3,0-0.4,0c0,0.2,0,0.3,0,0.4c0,2.4,0,4.7,0,7.1c0,0.1,0,0.2,0,0.4
		c-0.1,0.6-0.3,0.9-0.9,0.9c-0.8,0-1.5,0-2.3,0c-0.6,0-1.3,0-2,0c0-0.2,0-0.3,0-0.4c0-5.5,0-11,0-16.5c0-0.3,0-0.7,0.1-1
		c0.1-0.8,0.5-1.2,1.3-1.4C1.7,22,2,22,2.3,22c3.5,0,7,0,10.5,0C12.8,22,12.9,22,13,22z"/>
	<path class="st0" d="M91.4,22.1c0,0.2,0,0.3,0,0.5c0,4.9,0,9.8,0,14.7c0,0.1,0,0.2,0,0.3c0,1.2,0.5,1.7,1.7,1.7c1.5,0,3,0,4.5,0
		c0.1,0,0.3,0,0.4,0c0,0.6,0,1.2,0,1.8c0,0.1-0.2,0.2-0.3,0.3c-0.1,0-0.2,0-0.3,0c-2.6,0-5.2,0-7.9,0c-0.3,0-0.7,0-1-0.1
		c-1.4-0.2-2.1-1-2.1-2.5c0-5.3,0-10.5,0-15.8c0-0.7,0.3-1,0.9-1c1.3,0,2.6,0,3.9,0C91.3,22.1,91.3,22.1,91.4,22.1z"/>
	<path class="st0" d="M34.3,39.9c0.9,0,1.8,0,2.7,0c0.6,0,1.1-0.1,1.7-0.1c1.8-0.3,2.7-1.3,2.8-3.1c0-0.2,0-0.5,0-0.7
		c0-4.3,0-8.6,0-12.9c0-0.8,0.3-1.1,1.1-1.1c1.1,0,2.3,0,3.4,0c0.1,0,0.2,0,0.4,0c0,0.2,0,0.3,0,0.4c0,4.2,0,8.4,0,12.6
		c0,1.3-0.1,2.5-0.8,3.7c-0.9,1.6-2.4,2.5-4.2,2.9C39.7,42,38,42,36.3,42c-0.5,0-1.1-0.1-1.6-0.1c-0.3,0-0.4-0.2-0.4-0.5
		C34.3,40.9,34.3,40.4,34.3,39.9z"/>
	<path class="st0" d="M76.8,41.4c0-0.1,0-0.3,0-0.4c0-6,0-11.9,0-17.9c0-0.7,0.2-1,0.9-1c1.3,0,2.6,0,3.9,0c0,0,0.1,0,0.1,0
		c0,0.1,0,0.2,0,0.4c0,5.9,0,11.8,0,17.7c0,0.1,0,0.2,0,0.3c-0.1,0.6-0.2,0.9-0.9,0.9C79.6,41.4,78.2,41.4,76.8,41.4z"/>
	<path class="st0" d="M50.8,41.3c0-2.9,0-5.9,0-8.8c1.6,0,3.3,0,4.9,0c0,0.1,0,0.2,0,0.3c0,2.5,0,5,0,7.5c0,0.7-0.2,1-0.9,1
		C53.6,41.3,52.2,41.3,50.8,41.3z"/>
	<path class="st0" d="M55.8,22c0,0.1,0,0.2,0,0.3c0,1.9,0,3.8,0,5.7c0,0.3-0.1,0.5-0.3,0.7c-1.5,1.2-3,2.3-4.5,3.5
		c0,0-0.1,0-0.1,0.1c0-0.1,0-0.2,0-0.3c0-3,0-5.9,0-8.9c0-0.8,0.3-1.1,1.1-1.1c1.2,0,2.4,0,3.6,0C55.6,22,55.7,22,55.8,22z"/>
</g>
</svg>
