<?xml version="1.0" encoding="utf-8"?>
<!-- Generator: Adobe Illustrator 19.0.0, SVG Export Plug-In . SVG Version: 6.00 Build 0)  -->
<svg version="1.1" id="Layer_1" xmlns="http://www.w3.org/2000/svg" xmlns:xlink="http://www.w3.org/1999/xlink" x="0px" y="0px"
	 viewBox="-9 39 120 64" style="enable-background:new -9 39 120 64;" xml:space="preserve">
<style type="text/css">
	.st0{fill:#fff;}
</style>
<g>
	<path class="st0" d="M27.4,51c1.3,0.2,2.6,0.4,4,0.7c5.4,1.2,7.9,5.7,6.2,11c-0.9,2.6-2.9,4-5.4,4.8c-0.3,0.1-0.6,0.1-0.9,0.2
		c-0.1,0-0.1,0.1-0.2,0.1c2.9,3.9,5.7,7.7,8.7,11.8c-2.9,0-5.6,0-8.2-0.1c-0.3,0-0.7-0.5-0.9-0.8c-2.3-3.2-4.5-6.3-6.8-9.5
		c-0.2-0.3-0.6-0.7-1-0.7c-2.8-0.1-5.5,0-8.4,0c0,3.7,0,7.3,0,11.1c-2.6,0-5.1,0-7.6,0c0-9.6,0-19.1,0-28.7C13.8,51,20.6,51,27.4,51
		z M14.5,56.4c0,2.4,0,4.7,0,7.1c3,0,5.9,0,8.7,0c1.5,0,2.9-0.1,4.3-0.4c2.1-0.4,2.9-1.4,2.8-3.4c0-1.9-0.7-2.7-2.8-3.2
		c-0.7-0.1-1.4-0.2-2.1-0.3c-3.5,0-7,0-10.4,0C14.9,56.3,14.7,56.4,14.5,56.4z"/>
	<path class="st0" d="M94.9,51c0,1.6,0,3.2,0,5c-0.5,0-1,0-1.5,0c-4.5,0.1-9,0-13.4,0.2c-3.4,0.1-5.6,2.1-6.2,4.9
		c-0.1,0.4-0.1,1-0.1,1.5c7.1,0,14,0,21.1,0c0,1.8,0,3.3,0,5.1c-7.1,0-14,0-21,0c-0.4,3.9,1.8,6.6,5.8,6.8c4.4,0.2,8.7,0.1,13.2,0.2
		c0.7,0,1.2,0,2,0c0,1.6,0,3.2,0,4.9c-0.3,0-0.7,0.1-1,0.1c-4.6,0-9.2,0.1-13.7,0c-2.7-0.1-5.4-0.6-7.9-1.7
		c-4.3-1.9-6.7-5.3-7.1-9.8c-0.2-2.5,0-5.2,0.5-7.6c1.2-5,4.7-7.6,9.6-8.7c1-0.2,1.8-0.4,2.8-0.7C83.6,51,89.3,51,94.9,51z"/>
	<path class="st0" d="M48.3,51c0,2.5,0.1,4.9,0.1,7.4c0.1,3.7,0,7.5,0.1,11.2c0.1,3.2,1.6,4.9,4.9,5.1c3.6,0.2,7.3,0.1,11,0.2
		c0.4,0,1,0,1.5,0c0,1.5,0,3.1,0,4.6c-0.1,0.1-0.4,0.1-0.5,0.1c-4.9-0.1-9.8-0.1-14.8-0.3c-1.4-0.1-2.9-0.4-4.2-1
		c-3.7-1.4-5.4-4.5-5.5-8.2c-0.2-6.4-0.1-12.9-0.1-19.3C43.3,51,45.8,51,48.3,51z"/>
	<path class="st0" d="M6.9,83.9c1.9-0.1,3.8-0.1,5.7-0.3c0.1,0.9,0.1,0.9-1.8,1.1c0,1.5,0,3,0,4.6c-0.7,0-1.2,0-1.8,0
		c0-1.5,0-3,0-4.6c-0.8-0.1-1.5-0.1-2.1-0.1C6.9,84.4,6.9,84.1,6.9,83.9z"/>
	<path class="st0" d="M68.6,90.5c1.2-1,3,0.3,4.5-1c-0.6-0.1-1-0.1-1.3-0.1c-0.8-0.1-1.5-0.1-2.4-0.2c-0.9-0.1-1.6-0.7-1.6-1.7
		c0-1,0.7-1.5,1.5-1.7c0.9-0.1,1.8-0.2,2.6-0.3c0.8-0.1,1.6,0,2.6,0c0,1.5,0.1,2.9-0.1,4.3c-0.1,0.4-0.7,1.1-1.2,1.1
		c-1.5,0.1-3.2,0.1-4.8,0.1C68.7,90.8,68.7,90.7,68.6,90.5z M72.9,88.9c0-0.7,0.1-1.2,0-1.8c-0.1-0.3-0.4-0.7-0.7-0.7
		c-0.6,0-1.2,0.1-1.8,0.3c-0.3,0.1-0.7,0.7-0.7,1c0.1,0.4,0.4,0.8,0.8,1C71.3,88.8,72.1,88.8,72.9,88.9z"/>
	<path class="st0" d="M31.2,86.4c0,1,0,1.9,0,2.9c-0.6,0-1,0-1.6,0c0-1.7,0-3.4,0-5.2c0.5,0,1,0,1.5,0c0.1,0.4,0.1,0.8,0.1,1.3
		c0.7,0.1,1.5,0.1,2.3,0.1c1.8,0.1,2.1,0.4,2.1,2.3c0,0.4,0,1,0,1.5c-0.6,0-1,0-1.8,0c0-0.4,0-1,0-1.4c0-1.5-0.1-1.6-1.6-1.6
		C32,86.4,31.6,86.4,31.2,86.4z"/>
	<path class="st0" d="M62.4,90c-1-0.3-1.9-0.4-2.7-0.8c-1.2-0.7-1.2-2.1,0-2.8c1.8-1,3.7-1,5.5,0.1c1.1,0.6,1.2,2,0.1,2.6
		C64.3,89.4,63.3,89.7,62.4,90z M62.3,89c0.8-0.1,1.8-0.1,1.8-1.2s-0.9-1.2-1.8-1.2c-0.9,0-1.8,0.1-1.8,1.2
		C60.5,88.8,61.4,88.9,62.3,89z"/>
	<path class="st0" d="M49.3,89.8c-1-0.3-1.8-0.4-2.6-0.8c-1.2-0.7-1.2-2.1-0.1-2.8c1.3-0.9,4.2-0.9,5.5,0c1.1,0.7,1.2,2.1-0.1,2.7
		C51.3,89.4,50.3,89.6,49.3,89.8z M49.3,86.4c-1,0-1.8,0.6-1.8,1.3c0.1,1.1,1,1.2,1.8,1.2s1.7-0.1,1.8-1.2
		C51.3,86.9,50.4,86.4,49.3,86.4z"/>
	<path class="st0" d="M43.8,89.4c-0.7,0-1.1,0-1.8,0c0-0.6-0.1-1.1,0-1.6c0.1-1.1-0.4-1.5-1.4-1.5c-0.4,0-0.8,0-1.3,0c0,1.1,0,2,0,3
		c-0.6,0-1,0-1.6,0c0-1.2,0-2.5,0-3.7c1.5,0,3.1-0.1,4.6,0c1,0.1,1.6,0.7,1.5,1.8C43.8,88.1,43.8,88.7,43.8,89.4z"/>
	<path class="st0" d="M90.2,86.9c0.4,0.1,0.8,0.1,1.2,0.2c0.9,0.1,1.8,0,2.6,0.2c0.4,0.1,0.7,0.6,1.1,0.9c-0.3,0.4-0.6,0.7-1,1
		c-0.2,0.1-0.5,0.1-0.8,0.2c-1.4,0-2.8,0-4.2,0c-0.2,0-0.4-0.1-0.7-0.2c0-0.1,0-0.2,0-0.4c1.6-0.1,3.2-0.1,4.8-0.2
		c0-0.1,0-0.3,0-0.5c-0.4-0.1-0.7-0.2-1.1-0.2c-1-0.1-1.9,0-2.8-0.1c-0.4-0.1-0.9-0.5-0.9-0.8c-0.1-0.3,0.4-1,0.7-1
		c1.8-0.1,3.6-0.1,5.4-0.1c0,0,0.1,0.1,0.1,0.5c-1.5,0.1-3,0.1-4.5,0.2C90.2,86.6,90.2,86.8,90.2,86.9z"/>
	<path class="st0" d="M19.7,86.1c-1.5,0.6-3-0.2-4.5,1c1.5,0.4,3-0.1,4.3,0.4c0,0.1-0.1,0.4-0.1,0.5c-1.3,0-2.6,0-4,0
		c0.4,1.1,1.2,0.9,1.9,0.9c0.7,0.1,1.5,0,2.2,0c0,0.1,0.1,0.2,0.1,0.3c-0.1,0.1-0.4,0.4-0.5,0.4c-1.3,0-2.6,0-4-0.2
		c-0.9-0.1-1.6-0.7-1.6-1.8c0-1,0.7-1.5,1.6-1.7c1.3-0.1,2.7-0.1,4-0.1C19.4,85.7,19.4,85.8,19.7,86.1z"/>
	<path class="st0" d="M82.5,87.2c1.1,0,2.2,0,3.2,0c0.2,0,0.4,0.2,0.7,0.3c-0.2,0.1-0.4,0.4-0.7,0.4c-1.1,0.1-2.2,0-3.3,0.2
		c1.1,1.2,2.7,0.3,4,0.9c-0.1,0.2-0.3,0.4-0.4,0.4c-1.4-0.1-2.8,0-4.2-0.2c-0.9-0.1-1.5-0.7-1.5-1.7c0-1,0.6-1.5,1.5-1.7
		c1.3-0.2,2.6-0.2,4-0.3c0.1,0,0.4,0.3,0.5,0.4c-0.1,0.1-0.4,0.3-0.5,0.3c-0.7,0.1-1.5,0-2.2,0.1c-0.4,0.1-0.9,0.2-1.2,0.4
		C82.4,86.9,82.5,87,82.5,87.2z"/>
	<path class="st0" d="M27.6,86.3c-1.1,0.1-2.1,0-2.9,0.2c-0.5,0.1-1.2,0.6-1.2,1c-0.2,0.8,0.6,1.1,1.2,1.2c0.7,0.1,1.4,0,2.1,0.1
		c0.2,0,0.5,0.2,0.7,0.5c-1.7,0.1-3.4,0.5-4.9-0.3c-0.4-0.2-0.9-0.9-1-1.4c-0.1-0.4,0.4-1.3,0.7-1.4c1.6-0.3,3.2-0.4,4.9-0.6
		C27.3,85.6,27.4,86,27.6,86.3z"/>
	<path class="st0" d="M54.9,89.4c0-1.8,0-3.4,0-5.1c0.6,0,1.1,0,1.7,0c0,1.7,0,3.4,0,5.1C56.1,89.4,55.6,89.4,54.9,89.4z"/>
	<path class="st0" d="M76.8,85.8c0.6,0,1.1,0,1.7,0c0,1.2,0,2.4,0,3.7c-0.6,0-1.1,0-1.7,0C76.8,88.3,76.8,87.1,76.8,85.8z"/>
	<path class="st0" d="M76.8,85.3c0.1-1,0.1-1.2,1-1c0.2,0,0.4,0.3,0.7,0.4C77.9,84.9,77.3,85.1,76.8,85.3z"/>
</g>
</svg>
