<svg xmlns="http://www.w3.org/2000/svg" width="46" height="28" viewBox="0 0 46 28">
    <g fill="none" fill-rule="evenodd">
        <path fill="#42B2EE" d="M24 22l2 4h4s2-4 0-4h-6zM18.889 22l-2 4h-4s-2-4 0-4h6z"/>
        <path fill="#B49667" d="M4 16l6-2V6l4-4h16s4 2 4 6v6l2 4-12 2-20-4z"/>
        <g fill="#000" fill-rule="nonzero">
            <path d="M34.763 20.018c-.859.136-1.747.272-2.606.38a99.43 99.43 0 0 1-2.547.3c-.858.08-1.69.163-2.548.216a76.93 76.93 0 0 1-2.517.136 75.697 75.697 0 0 1-5.005 0c-.828-.028-1.689-.081-2.517-.136a95.458 95.458 0 0 1-2.547-.217 71.61 71.61 0 0 1-2.548-.299 84.667 84.667 0 0 1-2.605-.38c-.593-.108-1.185.272-1.303.815-.118.543.296 1.086.889 1.195.444.08.888.135 1.332.216-.06.38-.06.787-.03 1.195.088.678.296 1.33.653 1.928a5.32 5.32 0 0 0 1.393 1.494 5.95 5.95 0 0 0 1.895.895 6.473 6.473 0 0 0 1.598.216c.209 0 .415 0 .593-.027.74-.08 1.45-.272 2.133-.598a6.039 6.039 0 0 0 1.66-1.25c.473-.516.8-1.086 1.006-1.71.148-.407.208-.815.236-1.222h1.244c.03.407.088.842.236 1.25.209.623.563 1.194 1.007 1.71.444.515 1.006.922 1.659 1.25.652.326 1.363.515 2.133.597.208.028.414.028.593.028.532 0 1.096-.08 1.598-.216a5.997 5.997 0 0 0 1.895-.896 5.355 5.355 0 0 0 1.393-1.493c.357-.599.593-1.25.653-1.929.06-.407.03-.787-.03-1.194.444-.056.888-.136 1.332-.217.593-.108 1.007-.624.889-1.194-.033-.571-.595-.923-1.217-.843zm-16.29 4.78c-.265.3-.622.571-1.006.76-.384.191-.828.327-1.302.352-.445.055-.919 0-1.333-.108-.414-.108-.8-.3-1.155-.543a3.095 3.095 0 0 1-.828-.895c-.208-.353-.356-.735-.384-1.142a2.565 2.565 0 0 1 0-.679c.592.08 1.185.136 1.777.191.858.08 1.747.163 2.605.217.77.055 1.569.08 2.34.108-.03.216-.06.462-.149.679-.09.41-.298.734-.564 1.06zm13.18-1.574c-.06.408-.178.787-.384 1.142a2.781 2.781 0 0 1-.828.895c-.357.244-.74.435-1.155.543-.444.108-.888.164-1.333.108a4.46 4.46 0 0 1-1.302-.352 3.35 3.35 0 0 1-1.007-.76 3.416 3.416 0 0 1-.622-1.03c-.088-.217-.118-.463-.148-.68.77-.027 1.568-.08 2.339-.108a89.783 89.783 0 0 0 2.605-.216c.592-.055 1.185-.136 1.777-.19.058.186.088.402.058.648z"/>
            <path d="M45.202 14.911l-8.518-2.4V9.028c0-.323-.153-.615-.398-.819-.244-.205-.581-.292-.919-.263a84.455 84.455 0 0 1-21.574.38c-.644-.06-1.195.352-1.288.965-.063.615.368 1.14 1.01 1.23a87.326 87.326 0 0 0 20.87-.206v2.165c-7.445 1.696-15.232 1.669-22.677 0V6.51c0-1.316.644-2.546 1.747-3.335a4.862 4.862 0 0 1 4.047-.79l2.82.701a11.46 11.46 0 0 0 5.454 0l2.82-.702c1.348-.322 2.79-.087 3.893.672 1.073.732 1.777 1.873 1.87 3.103a1.117 1.117 0 0 0 1.226.994c.644-.06 1.104-.585 1.042-1.17-.154-1.873-1.195-3.599-2.82-4.742A7.278 7.278 0 0 0 27.982.218l-2.82.702a8.973 8.973 0 0 1-4.322 0l-2.82-.702a7.247 7.247 0 0 0-6.038 1.17c-1.655 1.23-2.636 3.103-2.636 5.092v5.999l-8.519 2.37c-.49.147-.828.586-.828 1.054 0 .499.338.908.857 1.054C8.734 18.976 15.874 20 23.013 20c7.14 0 14.282-1.024 22.128-3.043.49-.116.857-.555.857-1.054.033-.436-.304-.875-.795-.992zm-39.593.965l4.965-1.377a54.24 54.24 0 0 0 12.475 1.464c4.199 0 8.365-.499 12.442-1.464l4.966 1.377c-12.11 2.633-22.712 2.633-34.848 0z"/>
        </g>
    </g>
</svg>
