<svg xmlns="http://www.w3.org/2000/svg" width="140" height="43" viewBox="0 0 140 43">
    <g fill="#40BEFF" fill-rule="evenodd">
        <g fill-rule="nonzero">
            <path d="M124 39.7c-.9-1.5-.6-2.1 1.2-2.2 6.7-.5 11.9-5.7 12.2-12.3.2-6.6-4.6-12.3-11.2-13.2-2.3-.3-4.5 0-6.6.9-1.9.8-1.8.8-2.9-1-3.7-6.3-9.2-9.6-16.6-9.2-8.7.4-15.7 7.6-16.1 16.5-.1 1.7-.1 1.7-1.9 1.9-4.2.4-7.4 3.9-7.4 8.1 0 4.1 3 7.6 7.2 8.2.2 0 .3 0 .5.1 1.7.2 2 .8 1.1 2.2h-2.4c-.1-.1-.3-.2-.4-.2-4.4-1.1-7-3.9-8-8.3 0-.1-.1-.3-.2-.4v-2.9c.1-.1.2-.2.2-.3 1-4.7 3.8-7.5 8.4-8.5.7-.1.8-.5.8-1.1C82.8 9.6 89 2.6 97.3.8c.8-.2 1.5-.3 2.3-.5h3.8c.2.1.4.2.7.2 6.1.9 10.9 4 14.1 9.3.5.8.8.9 1.7.6 8.3-2.8 17.1 2.1 19.3 10.6.1.5.3 1.1.4 1.6v4.1c-.1.2-.2.4-.2.6-1.4 6.3-5.2 10.3-11.5 12-.4.1-.8.2-1.2.4H124z"/>
            <path d="M91.6 15.6c.6.2 1 .9 1.2 1.4 1.5 4.1 3 8.2 4.4 12.3.1.4.1 1.1-.1 1.2-.6.2-1.3.2-1.5-.6 0-.1-.1-.2-.1-.3-1-2.7-1-2.7-3.9-2.7h-.1c-3 0-3 0-4.1 2.8-.2.4-.6.8-1 .9-.6.2-1-.2-.8-.9 1.6-4.3 3.1-8.6 4.7-12.9.1-.5.6-1.4 1.3-1.2zm-.2 2.4c-.9 2.5-1.7 4.8-2.5 7.1h5c-.8-2.3-1.6-4.5-2.5-7.1zM111.3 29.1c-.1.3-.1.6-.3.7-.1.3-.5.8-.8.7-.3-.1-.5-.6-.5-.9V16.4c0-.6-.3-1.5.9-1.5 1.1 0 .7.9.7 1.4v4.1c.5-.2.8-.4 1.1-.5 2.5-1.1 4.9-.1 5.8 2.5.5 1.8.5 3.6-.1 5.3-1 2.8-3.6 3.6-6.1 1.9-.2-.1-.4-.2-.7-.5zm.1-4.3v1.8c0 1.2.6 1.9 2.1 2.3 1.1.3 2.1 0 2.7-1 1-1.8 1-3.8.1-5.6-.5-1.2-1.8-1.5-3.3-1.2-1.3.3-1.8 1.1-1.6 2.4v1.3zM129.3 25.1c-.1.6-.1 1.3-.3 1.9-.5 2.5-2 3.6-4.6 3.5-2.5 0-4.1-1.3-4.5-3.6-.2-1.2-.2-2.6 0-3.8.4-2.4 2.1-3.6 4.6-3.6 2.4 0 3.9 1.2 4.4 3.6.3.7.3 1.4.4 2zm-1.7 0c-.1-.6-.1-1.3-.3-1.9-.3-1.5-1.3-2.2-2.7-2.2-1.5 0-2.5.6-2.8 2.1-.2 1.3-.2 2.7 0 4 .2 1.4 1.3 2 2.7 2.1 1.5 0 2.5-.7 2.8-2.1.2-.7.2-1.4.3-2zM104.6 20.6c1-.4 1.8-.8 2.6-1 .6-.1 1.1.3 1 1 0 .7-.4.8-1 .7-1.4-.2-2.4.7-2.4 2.1v6.1c0 .6-.1 1-.8 1-.7 0-.8-.4-.8-1-.1-3-.1-6-.2-9 0-.2.2-.6.4-.7.3-.1.7.1.9.2.2.2.2.6.3.6zM98.6 25v-4.3c0-.6.1-1 .8-1 .8 0 .9.4.9 1.1v8.6c0 .6-.1 1.1-.9 1.1s-.9-.5-.8-1.1c.1-1.5 0-2.9 0-4.4zM100.6 15.7c-.1 1-.5 1.3-1.2 1.3-.8 0-.9-.4-.9-1.1 0-.7.3-1.1 1-.9.5 0 .8.4 1.1.7z"/>
        </g>
        <text font-family="AvenirNext-DemiBold, Avenir Next" font-size="10" font-weight="500">
            <tspan x="0" y="39">Powered By</tspan>
        </text>
    </g>
</svg>
