<?xml version="1.0" encoding="utf-8"?>
<!-- Generator: Adobe Illustrator 21.1.0, SVG Export Plug-In . SVG Version: 6.00 Build 0)  -->
<svg version="1.1" id="Layer_1" xmlns="http://www.w3.org/2000/svg" xmlns:xlink="http://www.w3.org/1999/xlink" x="0px" y="0px"
	 viewBox="0 0 162 162" style="enable-background:new 0 0 162 162;" xml:space="preserve">
<style type="text/css">
	.st0{fill:#4756A0;}
	.st1{fill:#FFFFFF;}
</style>
<circle class="st0" cx="81" cy="81" r="81"/>
<g>
	<g>
		<path class="st1" d="M103.3,82.9c0-6.5-5.3-11.8-11.9-11.8h-2c3-2.4,5-6.1,5-10.3v-7.3c0-4.9-4-8.8-8.9-8.8h-8.9
			c-4.9,0-8.9,4-8.9,8.8v7.3c0,4.2,1.9,7.9,5,10.3h-2c-6.5,0-11.9,5.3-11.9,11.8v17.6h10.4h1.5h20.8h1.5h10.4V82.9z M89.6,77.7
			l-6,2.6l4.1-6.1h1L89.6,77.7z M73.3,74.1h1l4.1,6.1l-6-2.6L73.3,74.1z M84.2,74.1L81,78.8l-3.2-4.7H84.2z M76.5,47.7h8.9
			c3.3,0,5.9,2.6,5.9,5.9v2l-0.8-1.4c-0.8-1.3-2.3-2.1-3.8-2.1h-0.9c-1.7,0-3.2,0.9-4,2.4c-0.3,0.6-1.3,0.6-1.6,0
			c-0.8-1.5-2.3-2.4-4-2.4h-0.9c-1.6,0-3,0.8-3.8,2.1l-0.8,1.4v-2C70.6,50.3,73.3,47.7,76.5,47.7z M70.6,61.3l3.4-5.5
			c0.3-0.4,0.8-0.7,1.3-0.7h0.9c0.6,0,1.1,0.3,1.3,0.8c0.7,1.3,2,2.1,3.5,2.1s2.8-0.8,3.5-2.1c0.3-0.5,0.8-0.8,1.3-0.8h0.9
			c0.5,0,1,0.3,1.3,0.7l3.4,5.5c-0.2,5.5-4.8,9.9-10.4,9.9S70.8,66.8,70.6,61.3z M61.7,97.6v-2.9h5.9v2.9H61.7z M70.6,97.6V82.9h-3
			v8.8h-5.9v-8.8c0-4.7,3.8-8.6,8.5-8.8l-1.3,5.2L81,84.5l12.1-5.1l-1.3-5.2c4.7,0.2,8.5,4.1,8.5,8.8v8.8h-5.9v-8.8h-3v14.7H70.6z
			 M94.4,97.6v-2.9h5.9v2.9H94.4z"/>
		<path class="st1" d="M49.8,65.3c8.2,0,14.8-6.6,14.8-14.7S58,35.9,49.8,35.9S35,42.5,35,50.6S41.7,65.3,49.8,65.3z M49.8,38.9
			c6.5,0,11.9,5.3,11.9,11.8s-5.3,11.8-11.9,11.8S38,57.1,38,50.6S43.3,38.9,49.8,38.9z"/>
		<path class="st1" d="M49.8,97.6c-8.2,0-14.8,6.6-14.8,14.7S41.7,127,49.8,127s14.8-6.6,14.8-14.7S58,97.6,49.8,97.6z M49.8,124.1
			c-6.5,0-11.9-5.3-11.9-11.8s5.3-11.8,11.9-11.8s11.9,5.3,11.9,11.8S56.4,124.1,49.8,124.1z"/>
		<path class="st1" d="M112.2,65.3c8.2,0,14.8-6.6,14.8-14.7s-6.7-14.7-14.8-14.7s-14.8,6.6-14.8,14.7S104,65.3,112.2,65.3z
			 M112.2,38.9c6.5,0,11.9,5.3,11.9,11.8s-5.3,11.8-11.9,11.8c-6.5,0-11.9-5.3-11.9-11.8S105.6,38.9,112.2,38.9z"/>
		<path class="st1" d="M112.2,97.6c-8.2,0-14.8,6.6-14.8,14.7S104,127,112.2,127s14.8-6.6,14.8-14.7S120.3,97.6,112.2,97.6z
			 M112.2,124.1c-6.5,0-11.9-5.3-11.9-11.8s5.3-11.8,11.9-11.8c6.5,0,11.9,5.3,11.9,11.8S118.7,124.1,112.2,124.1z"/>
		<path class="st1" d="M117.3,109.3l2.3-2.2l-2.1-2.1l-2.3,2.2c-0.5-0.3-1-0.5-1.5-0.6v-3.1h-3v3.1c-0.5,0.1-1,0.3-1.5,0.6l-2.3-2.2
			l-2.1,2.1l2.3,2.2c-0.3,0.5-0.5,1-0.6,1.5h-3.2v2.9h3.2c0.1,0.5,0.4,1,0.6,1.5l-2.3,2.2l2.1,2.1l2.3-2.2c0.5,0.3,1,0.5,1.5,0.6
			v3.1h3V118c0.5-0.1,1-0.3,1.5-0.6l2.3,2.2l2.1-2.1l-2.3-2.2c0.3-0.5,0.5-1,0.6-1.5h3.2v-2.9h-3.2
			C117.7,110.3,117.5,109.8,117.3,109.3z M112.2,115.2c-1.6,0-3-1.3-3-2.9s1.3-2.9,3-2.9s3,1.3,3,2.9S113.8,115.2,112.2,115.2z"/>
		<path class="st1" d="M45.4,60.9h8.9V55h5.9v-8.8h-5.9v-5.9h-8.9v5.9h-5.9V55h5.9V60.9z M42.4,52.1v-2.9h5.9v-5.9h3v5.9h5.9v2.9
			h-5.9v5.9h-3v-5.9H42.4z"/>
		<path class="st1" d="M113.6,55h-3c-0.8,0-1.5-0.7-1.5-1.5h-3c0,2.4,2,4.4,4.5,4.4v2.9h3v-2.9c2.5,0,4.5-2,4.5-4.4s-2-4.4-4.5-4.4
			h-3c-0.8,0-1.5-0.7-1.5-1.5c0-0.8,0.7-1.5,1.5-1.5h3c0.8,0,1.5,0.7,1.5,1.5h3c0-2.4-2-4.4-4.5-4.4v-2.9h-3v2.9
			c-2.5,0-4.5,2-4.5,4.4c0,2.4,2,4.4,4.5,4.4h3c0.8,0,1.5,0.7,1.5,1.5C115.1,54.4,114.5,55,113.6,55z"/>
		<path class="st1" d="M53.1,105c-1.2,0-2.3,0.3-3.2,1c-0.9-0.6-2.1-1-3.2-1c-3.1,0-5.7,2.5-5.7,5.6c0,1.5,0.6,2.9,1.7,4l7.2,7.2
			l7.2-7.2c1.1-1.1,1.7-2.5,1.7-4C58.7,107.5,56.2,105,53.1,105z M55,112.5l-5.1,5.1l-5.1-5.1c-0.5-0.5-0.8-1.2-0.8-1.9
			c0-1.5,1.2-2.7,2.7-2.7c0.7,0,1.4,0.3,1.9,0.8l1.3,1.3l1.3-1.3c0.5-0.5,1.2-0.8,1.9-0.8c1.5,0,2.7,1.2,2.7,2.7
			C55.8,111.3,55.5,112,55,112.5z"/>
	</g>
</g>
</svg>
