<svg xmlns="http://www.w3.org/2000/svg" width="162" height="162" viewBox="0 0 162 162">
    <g fill="none" fill-rule="evenodd">
        <circle cx="81" cy="81" r="81" fill="#E3AF61"/>
        <g fill="#FFF" fill-rule="nonzero">
            <path d="M121.477 50.312a2.5 2.5 0 1 0-3.945 3.07C123.727 61.34 127 70.89 127 81a44.817 44.817 0 0 1-3.044 16.305 2.498 2.498 0 0 0 1.426 3.235c.297.117.606.172.907.172 1 0 1.945-.606 2.332-1.594A49.932 49.932 0 0 0 132 81c0-11.23-3.64-21.844-10.523-30.688zM57.18 43.457C64.543 38.578 73.129 36 82 36c8.93 0 17.559 2.61 24.953 7.547a2.494 2.494 0 0 0 3.469-.691 2.503 2.503 0 0 0-.692-3.47C101.511 33.903 91.921 31 82 31c-9.86 0-19.395 2.867-27.582 8.29a2.5 2.5 0 1 0 2.762 4.167zM50.656 48.711a2.5 2.5 0 1 0-3.48-3.59c-9.786 9.5-15.177 22.242-15.177 35.88 0 1.382 1.118 2.5 2.5 2.5 1.383 0 2.5-1.118 2.5-2.5 0-12.274 4.852-23.739 13.656-32.29h.001zM118.297 97.414a2.508 2.508 0 0 0-2.934 1.977c-1.59 8.14-4.207 14.445-7.78 18.734a2.494 2.494 0 0 0 .32 3.52c.468.39 1.035.577 1.601.577.715 0 1.426-.304 1.922-.898 4.121-4.942 7.098-12.004 8.852-20.98a2.511 2.511 0 0 0-1.98-2.93h-.001z"/>
            <path d="M98.703 44.645a2.5 2.5 0 1 0-2.09 4.543C108.996 54.888 117 67.372 117 81.055c0 1 0 3.082-.144 5.84a2.5 2.5 0 0 0 2.363 2.629 2.496 2.496 0 0 0 2.625-2.363C122 84.27 122 82.097 122 81c0-15.575-9.144-29.845-23.297-36.356zM47 81c0-19.301 15.699-35 35-35 1.383 0 2.5-1.117 2.5-2.5S83.383 41 82 41c-22.055 0-40 17.945-40 40 0 5.246-.496 11.602-4.375 14.152a2.501 2.501 0 0 0 2.75 4.18C46.246 95.46 47 87.504 47 81z"/>
            <path d="M82 51a29.96 29.96 0 0 0-15.168 4.113 2.5 2.5 0 1 0 2.531 4.313A24.954 24.954 0 0 1 82 56c13.785 0 25 11.215 25 25 0 10.82-1.836 30.859-14.125 43.492a2.496 2.496 0 0 0 .051 3.535 2.497 2.497 0 0 0 3.535-.05c13.52-13.899 15.54-35.399 15.54-46.978 0-16.543-13.458-30-30-30L82 51zM58.859 61.906A30.057 30.057 0 0 0 51.999 81c0 1.383 1.118 2.5 2.5 2.5 1.383 0 2.5-1.117 2.5-2.5a25.033 25.033 0 0 1 5.715-15.91 2.499 2.499 0 1 0-3.855-3.184zM56.156 90.305a2.5 2.5 0 1 0-4.922-.875c-.734 4.14-3.11 13.957-9.308 15.664a2.499 2.499 0 0 0 .664 4.91c.218 0 .441-.027.664-.09 6.39-1.758 10.973-8.722 12.902-19.609z"/>
            <path d="M99.402 86.758a2.51 2.51 0 0 0-2.695 2.29c-.961 11.77-4.828 27.811-17.812 37.413a2.5 2.5 0 0 0 2.972 4.024c14.492-10.72 18.777-28.227 19.82-41.027a2.49 2.49 0 0 0-2.285-2.7zM67 81c0-8.27 6.73-15 15-15 5.762 0 11.082 3.363 13.559 8.57a2.5 2.5 0 1 0 4.516-2.148C96.774 65.484 89.68 61 82 61c-11.027 0-20 8.973-20 20 0 4.867-.653 29.266-13.531 31.629a2.5 2.5 0 0 0 .902 4.918C65.73 114.543 67 88.813 67 81H67zM81.586 111.445a2.5 2.5 0 0 0-3.395.988c-2.918 5.32-6.94 9.02-12.3 11.305a2.5 2.5 0 0 0 .984 4.801c.328 0 .66-.066.98-.2 6.43-2.741 11.242-7.155 14.723-13.5.66-1.21.22-2.73-.992-3.394z"/>
            <path d="M83.133 107.652c.336.152.688.227 1.035.227.95 0 1.856-.543 2.278-1.465C91.602 95.09 92 84.098 92 81c0-5.516-4.484-10-10-10-5.515 0-10 4.484-10 10 0 1.383 1.117 2.5 2.5 2.5S77 82.383 77 81c0-2.758 2.242-5 5-5s5 2.242 5 5c0 2.844-.367 12.934-5.11 23.34a2.503 2.503 0 0 0 1.243 3.312zM75.844 95.152a2.502 2.502 0 0 0-2.086-2.855 2.503 2.503 0 0 0-2.855 2.085c-1.645 10.574-5.622 23.273-15.223 23.742a2.499 2.499 0 0 0 .12 4.997c.04 0 .083 0 .126-.004 10.258-.496 17.145-10.168 19.918-27.965z"/>
        </g>
    </g>
</svg>
