<svg xmlns="http://www.w3.org/2000/svg" width="162" height="162" viewBox="0 0 162 162">
    <g fill="none" fill-rule="evenodd">
        <circle cx="81" cy="81" r="81" fill="#6C71BA"/>
        <g stroke="#FFF" stroke-width="3.846">
            <path d="M96.345 46.383h13.504a3.848 3.848 0 0 1 3.848 3.848v71.153a3.848 3.848 0 0 1-3.848 3.847H52.152a3.848 3.848 0 0 1-3.848-3.847V50.23a3.848 3.848 0 0 1 3.848-3.848h13.461"/>
            <path d="M56 69.462l3.848 3.848 11.535-9.617M56 88.693l3.848 3.848 11.535-9.617M56 107.922l3.848 3.848 11.535-9.617M81 65h25M81 84h25M81 104h25M81 73h25M81 92h25M81 111h25M92.54 40.617h-5.458c-1.164 0-2.129-.734-2.664-1.765a3.847 3.847 0 1 0-6.836-.004c-.535 1.03-1.504 1.765-2.664 1.765l-5.457.004a3.848 3.848 0 0 0-3.848 3.848v7.691h30.77v-7.695a3.841 3.841 0 0 0-3.844-3.844z"/>
        </g>
    </g>
</svg>
