<?xml version="1.0" encoding="utf-8"?>
<!-- Generator: Adobe Illustrator 21.1.0, SVG Export Plug-In . SVG Version: 6.00 Build 0)  -->
<svg version="1.1" id="Layer_1" xmlns="http://www.w3.org/2000/svg" xmlns:xlink="http://www.w3.org/1999/xlink" x="0px" y="0px"
	 viewBox="0 0 162 162" style="enable-background:new 0 0 162 162;" xml:space="preserve">
<style type="text/css">
	.st0{fill:#EB974E;}
	.st1{fill:#FFFFFF;stroke:#FFFFFF;stroke-miterlimit:10;}
</style>
<circle class="st0" cx="81" cy="81" r="81"/>
<g>
	<g>
		<path class="st1" d="M123.5,72.2c2.1-2.7,3.3-6.2,3.3-10.1c0-8.6-6.3-15.6-14-15.6s-14,7-14,15.6c0,3.8,1.3,7.4,3.3,10.1
			c-3,2.3-5.5,5.5-7.1,9.2c-0.8-0.8-1.6-1.5-2.5-2.2c2.4-3,3.8-6.9,3.8-11.2c0-9.5-6.9-17.2-15.4-17.2S65.6,58.5,65.6,68
			c0,4.3,1.4,8.2,3.8,11.2c-0.9,0.7-1.7,1.4-2.5,2.2c-1.7-3.7-4.2-6.9-7.1-9.2c2.1-2.7,3.3-6.2,3.3-10.1c0-8.6-6.3-15.6-14-15.6
			s-14,7-14,15.6c0,3.8,1.3,7.4,3.3,10.1C32.9,76.5,29,84,29,92.2v5.7c0,0.9,0.7,1.7,1.5,1.7c0.8,0,1.5-0.7,1.5-1.7v0.1v-5.7
			c0-7.4,3.6-14.1,8.7-17.8c2.4,2,5.3,3.3,8.6,3.3c3.2,0,6.2-1.2,8.6-3.3c3.1,2.2,5.6,5.5,7.1,9.4c-3,3.9-5.1,8.8-5.8,14.1
			c-0.1,1.2-0.2,2.4-0.2,3.6v6.4c0,0.9,0.7,1.7,1.5,1.7s1.5-0.7,1.5-1.7v0.2v-6.6c0-8.3,4.1-16,9.9-20.1c2.6,2.3,6,3.7,9.6,3.7
			s6.9-1.4,9.6-3.7c5.8,4.1,9.9,11.8,9.9,20.1v6.4l0,0c0,0.9,0.7,1.7,1.5,1.7s1.5-0.7,1.5-1.7v-6.9c0-1.2-0.1-2.3-0.2-3.4
			c-0.6-5.1-2.6-9.8-5.6-13.6c1.5-3.8,3.9-7,6.9-9.1c2.3,2,5.1,3.1,8.2,3.1c3.1,0,6-1.2,8.2-3.1c4.9,3.5,8.4,10,8.4,17.1v5.8l0,0
			c0,0.9,0.7,1.7,1.5,1.7s1.5-0.7,1.5-1.7v-5.7C133,84,129.1,76.5,123.5,72.2z M102.2,62.1c0-6.8,5-12.3,11.1-12.3
			c6.1,0,11.1,5.5,11.1,12.3s-5,12.3-11.1,12.3S102.2,68.9,102.2,62.1z M69,68c0-7.7,5.6-13.9,12.5-13.9C88.4,54.1,94,60.3,94,68
			s-5.6,13.9-12.5,13.9C74.6,81.9,69,75.6,69,68z M38.5,62.1c0-6.8,5-12.3,11.1-12.3s11.1,5.5,11.1,12.3s-5,12.3-11.1,12.3
			S38.5,68.9,38.5,62.1z"/>
	</g>
</g>
</svg>
