<?xml version="1.0" encoding="utf-8"?>
<!-- Generator: Adobe Illustrator 21.1.0, SVG Export Plug-In . SVG Version: 6.00 Build 0)  -->
<svg version="1.1" id="Layer_1" xmlns="http://www.w3.org/2000/svg" xmlns:xlink="http://www.w3.org/1999/xlink" x="0px" y="0px"
	 viewBox="0 0 162 162" style="enable-background:new 0 0 162 162;" xml:space="preserve">
<style type="text/css">
	.st0{fill:#BF52E8;}
	.st1{fill:#FFFFFF;}
</style>
<circle class="st0" cx="81" cy="81" r="81"/>
<g>
	<title>89all</title>
	<path class="st1" d="M95.1,34.8c-1.7-1.5-3.8-2.3-6.1-2.3H72.9c-5,0-9.1,4.1-9.1,9.1l0,0v0.9h-13c-3.9,0-7,3.1-7,7v69
		c0,3.9,3.1,7,7,7h60.3c3.9,0,7-3.1,7-7v-69c0-3.9-3.1-7-7-7h-13v-0.9C98.2,39,97.1,36.6,95.1,34.8z M65.8,41.6
		c0-3.9,3.2-7.1,7.1-7.1c0,0,0,0,0,0H89c3.9,0,7.1,3.2,7.1,7.1v12.9H65.8V41.6z M64.8,56.5h32.3c0.6,0,1-0.4,1-1v-2.1h4.3
		c1.1,0,2,0.9,2,2v39H91.2c-2.2,0-4,1.8-4,4v14.3H59.5c-1.1,0-2-0.9-2-2V55.4c0-1.1,0.9-2,2-2h4.3v2.1
		C63.8,56.1,64.3,56.5,64.8,56.5z M103.8,96.4l-14.6,14.9V98.4c0-1.1,0.9-2,2-2H103.8z M111.2,44.5c2.8,0,5,2.2,5,5v69
		c0,2.8-2.2,5-5,5H50.8c-2.8,0-5-2.2-5-5v-69c0-2.8,2.2-5,5-5h13v6.9h-4.3c-2.2,0-4,1.8-4,4v55.3c0,2.2,1.8,4,4,4h29.2l17.7-18.1
		V55.4c0-2.2-1.8-4-4-4h-4.3v-6.9H111.2z"/>
	<path class="st1" d="M67.3,72h11.6c0.6,0,1-0.4,1-1s-0.4-1-1-1H67.3c-0.6,0-1,0.4-1,1S66.7,72,67.3,72z"/>
	<path class="st1" d="M67.3,84h26.6c0.6,0,1-0.4,1-1s-0.4-1-1-1H67.3c-0.6,0-1,0.4-1,1S66.7,84,67.3,84z"/>
</g>
</svg>
