<svg xmlns="http://www.w3.org/2000/svg" width="162" height="162" viewBox="0 0 162 162">
    <g fill="none" fill-rule="evenodd">
        <circle cx="81" cy="81" r="81" fill="#BF65AA"/>
        <path fill="#FFF" fill-rule="nonzero" d="M111.383 99.168c-1.918 0-3.68.648-5.094 1.727l-10.633-9.032A16.757 16.757 0 0 0 98.57 82.4c0-3-.793-5.813-2.172-8.254l8.352-5.961a9.58 9.58 0 0 0 6.637 2.664c5.312 0 9.617-4.309 9.617-9.617a9.62 9.62 0 0 0-19.238 0c0 1.437.32 2.797.886 4.02l-8.355 5.968a16.856 16.856 0 0 0-7.813-4.96l.918-5.106c2.957-.38 5.254-2.875 5.254-5.938a6.012 6.012 0 0 0-12.023 0c0 2.309 1.316 4.29 3.226 5.297l-.921 5.113c-.395-.027-.793-.058-1.192-.058a16.74 16.74 0 0 0-9.914 3.25l-14.238-15.66a7.176 7.176 0 0 0 1.184-3.953 7.219 7.219 0 0 0-7.215-7.22 7.216 7.216 0 1 0 3.363 13.598l14.238 15.66a16.73 16.73 0 0 0-4.219 10.512l-19.87 1.372a7.212 7.212 0 0 0-6.84-4.934 7.216 7.216 0 1 0 7.074 8.535l19.863-1.37c.867 4.897 3.851 9.054 7.972 11.511l-3.886 8.508a8.536 8.536 0 0 0-1.774-.192 8.42 8.42 0 0 0-8.422 8.422c0 4.649 3.77 8.414 8.422 8.414a8.415 8.415 0 0 0 8.414-8.414 8.393 8.393 0 0 0-3.363-6.722l3.887-8.508c1.672.555 3.449.867 5.308.867 4.493 0 8.559-1.77 11.578-4.637l10.637 9.036a8.42 8.42 0 0 0 7.438 12.367c4.644 0 8.414-3.77 8.414-8.418 0-4.653-3.77-8.422-8.414-8.422v-.001zM82.945 90.68v2.757h-2.648v-2.57c-1.813-.078-3.57-.566-4.598-1.16l.812-3.164c1.137.621 2.735 1.191 4.493 1.191 1.539 0 2.597-.593 2.597-1.675 0-1.028-.867-1.676-2.867-2.356-2.894-.977-4.871-2.324-4.871-4.95 0-2.378 1.68-4.245 4.57-4.812v-2.57h2.653v2.379c1.812.082 3.03.46 3.921.894l-.785 3.059c-.703-.3-1.945-.922-3.894-.922-1.758 0-2.324.758-2.324 1.516 0 .894.945 1.46 3.246 2.324 3.219 1.137 4.515 2.625 4.515 5.059-.004 2.402-1.707 4.457-4.82 5z"/>
    </g>
</svg>
