<svg xmlns="http://www.w3.org/2000/svg" width="162" height="162" viewBox="0 0 162 162">
    <g fill="none" fill-rule="evenodd">
        <circle cx="81" cy="81" r="81" fill="#7D4BA1"/>
        <g fill="#FFF" fill-rule="nonzero">
            <path d="M83.047 88.863H72.713V99.52h-10.62v10.37h10.62v10.658h10.334V109.89h10.62V99.52h-10.62V88.862zm8.327 12.964v5.762h-10.62v10.658h-5.742v-10.658h-10.62v-5.762h10.62V91.17h5.742v10.657h10.62z"/>
            <path d="M127.98 66.102c-6.606-3.747-11.053 3.888-12.92 7.203-2.3 4.034-4.593 8.068-6.746 12.097-.146.287-.286.574-.432.867v-47.97c0-5.908-4.306-8.93-8.326-9.216-2.3-.147-4.879.574-6.746 2.307v-2.015c0-5.188-4.16-9.363-9.33-9.363s-9.331 4.175-9.331 9.363v1.728c-1.582-1.294-3.59-2.015-5.888-2.015-5.31 0-9.763 4.322-9.763 9.364v1.294c-1.721-1.294-3.874-1.874-6.173-1.587-4.02.433-8.467 3.747-9.045 9.217-.286 2.734-.146 5.475-.146 8.21 0 1.293.146 2.593.146 3.887V110.471c0 3.747.286 8.21 2.153 12.677 4.307 10.23 14.501 15.992 28.71 16.132h1.867c12.056 0 25.121-1.44 33.588-10.23 12.347-12.818 17.511-33.418 21.678-49.843v-.287c.578-2.876 2.305-9.65-3.297-12.818zm-23.686-13.825l-10.195-8.21h10.195v8.21zm-1.576 1.727H92.524v-8.21l10.194 8.21zM92.67 57.892l9.902 7.49H92.67v-7.49zm1.721-1.586h9.903v7.489l-9.903-7.49zm4.878-23.768c2.3.146 5.17 1.727 5.17 5.762v3.6H92.81v-3.6c.287-4.175 3.59-5.903 6.46-5.762zm28.57 45.234v.287c-4.021 16.131-9.045 36.158-20.815 48.255-8.041 8.356-21.1 9.217-33.016 9.217-7.324-.146-20.53-2.014-25.553-13.971-1.582-3.888-1.868-7.923-1.868-11.378V59.185c0-1.294 0-2.594-.145-4.034-.146-2.594-.146-5.329.145-7.777.432-3.6 3.303-5.908 6.028-6.195 1.29-.146 4.307 0 5.742 3.888v33.131c0 1.007.718 1.728 1.722 1.728 1.003 0 1.721-.72 1.721-1.728l.006-40.04c0-3.169 2.87-5.909 6.314-5.909 3.156 0 5.887 2.594 5.887 5.908v40.187c0 1.007.718 1.727 1.722 1.727 1.003 0 1.721-.72 1.721-1.727V29.227c0-3.167 2.585-5.908 5.888-5.908 3.157 0 5.888 2.594 5.888 5.909v49.117c0 1.007.717 1.727 1.721 1.727s1.722-.72 1.722-1.727V67.688h11.63v25.208c0 .72.571 1.44 1.289 1.727.718.147 1.581-.146 2.007-.866 1.29-2.16 2.44-4.468 3.735-6.629 2.299-4.034 4.452-8.069 6.746-11.957 2.87-4.895 5.17-7.635 8.18-5.908 2.3 1.16 2.726 3.753 1.582 8.508z"/>
        </g>
    </g>
</svg>
