<svg xmlns="http://www.w3.org/2000/svg" width="162" height="162" viewBox="0 0 162 162">
    <g fill="none" fill-rule="evenodd">
        <circle cx="81" cy="81" r="81" fill="#48A1CA"/>
        <path fill="#FFF" fill-rule="nonzero" d="M130 31v2.078H30V31h100zm0 84.664V131H99.012v-15.336c0-3.313 1.781-8.977 9.602-10.871a9.644 9.644 0 0 1-3.758-7.637c0-3.926 2.36-7.312 5.734-8.816l-26.676.004c3.375 1.504 5.735 4.89 5.735 8.816 0 3.106-1.477 5.867-3.758 7.637 7.82 1.894 9.605 7.562 9.605 10.87L95.492 131H64.508v-15.336c0-3.313 1.782-8.977 9.602-10.871a9.633 9.633 0 0 1-3.758-7.637c0-3.926 2.36-7.312 5.735-8.816H69.14v.039l-18.219.004a9.017 9.017 0 0 1-.62.414c2.89 1.668 4.843 4.789 4.843 8.36a9.639 9.639 0 0 1-3.758 7.636c7.82 1.894 9.602 7.562 9.602 10.87L60.993 131H30.005v-15.336c0-3.313 1.78-8.977 9.601-10.871a9.633 9.633 0 0 1-3.757-7.637c0-3.926 2.359-7.312 5.734-8.816l-7.281.004V34.532h91.402V88.34h-7.281c3.375 1.504 5.734 4.89 5.734 8.816 0 3.106-1.477 5.867-3.758 7.637 7.82 1.894 9.602 7.562 9.602 10.87H130zm-84.504-7.828c-6.523 0-11.812 2.016-11.812 7.828v11.652H38v-10.867c0-.434.356-.781.79-.781.437 0 .789.351.789.781l.003 10.867H51.41l.004-10.867c0-.434.356-.781.79-.781.437 0 .788.351.788.781v10.867h4.313l.004-11.652c0-5.813-5.285-7.828-11.812-7.828h-.001zm0-16.645a5.968 5.968 0 1 0 0 11.938 5.968 5.968 0 1 0 0-11.938zM70.391 76.05l10.406 4.762c1.867.656 2.887-.243 3.324-1.059.598-1.11.215-2.77-.8-3.23l-9.844-4.567-2.957-9.203c-.188-.582-.63-1.098-1.11-1.398-1.484-.891-4.476-2.07-7.66-2.297l-2.04 2.879 2.06 16.75-2.297 2.68-2.297-2.68 2.058-16.75-2.039-2.88c-3.183.227-6.195 1.434-7.676 2.321-.445.305-.882.82-1.062 1.375 0 0-3.422 10.801-3.414 11.082l.242 10.18a2.5 2.5 0 0 0 2.5 2.441h.063a2.499 2.499 0 0 0 2.44-2.562l-.233-9.758 2.082-6.433c.5 0 .593.601.593 1.097l.008 16.652h13.477l.008-16.652c0-.492.11-1.097.605-1.097h.004l2.227 6.835a2.458 2.458 0 0 0 1.332 1.512zM59.469 57.804a6.805 6.805 0 1 0 0-13.61 6.805 6.805 0 0 0 0 13.61zm40.359 2.21a.65.65 0 0 0 0-.925.651.651 0 0 0-.922 0L84.082 73.913l1.168.68 14.578-14.578zM80 107.835c-6.523 0-11.812 2.016-11.812 7.829v11.652h4.316v-10.867c0-.434.356-.781.79-.781.437 0 .789.351.789.78l.003 10.868h11.828l.004-10.867c0-.434.356-.781.79-.781.437 0 .788.351.788.78l-.003 10.868h4.316l.004-11.652c0-5.813-5.29-7.828-11.812-7.828H80zm0-16.644a5.968 5.968 0 1 0 0 11.937 5.968 5.968 0 1 0 0-11.937zm42.773-5.778V37.463H37.23v47.95h5.336a5.689 5.689 0 0 1-.215-1.329s-.437-10.523-.121-11.465l3.434-10.766c.902-3.144 4.648-4.191 6.257-4.71a9.699 9.699 0 0 1-2.187-6.145c0-5.367 4.367-9.734 9.734-9.734s9.735 4.367 9.735 9.734c0 2.324-.82 4.46-2.184 6.137 1.606.515 5.238 1.496 6.285 4.718l2.563 7.977 5.594 2.559 15.37-15.371c2.22-2.032 4.395-.676 5.067 0a3.584 3.584 0 0 1 0 5.066L87.05 76.936c.441 1.367.355 2.887-.348 4.2-.953 1.777-3.406 3.773-7.07 2.363l-10.461-4.786c-.012-.004-.02-.011-.031-.015l-.004 6.715h53.637zm-8.27 17.711a5.968 5.968 0 1 0 0-11.937 5.968 5.968 0 1 0 0 11.938zm11.813 12.54c0-5.813-5.286-7.829-11.813-7.829-6.523 0-11.811 2.016-11.811 7.828v11.652h4.316l-.004-10.866c0-.434.355-.782.79-.782.437 0 .788.352.788.782l.004 10.867h11.836l.004-10.867c0-.434.355-.782.789-.782.437 0 .789.352.789.782L122 127.315h4.317l-.001-11.653z"/>
    </g>
</svg>
