<svg xmlns="http://www.w3.org/2000/svg" width="162" height="162" viewBox="0 0 162 162">
    <g fill="none" fill-rule="evenodd">
        <circle cx="81" cy="81" r="81" fill="#EE87AD"/>
        <path fill="#FFF" fill-rule="nonzero" d="M103.988 65.496l-9.895-11.59h2.797c.692 0 1.25-.559 1.25-1.25l.004-16.824c0-.691-.558-1.25-1.25-1.25H65.105c-.691 0-1.25.559-1.25 1.25v16.824c0 .691.559 1.25 1.25 1.25h2.797l-9.89 11.59c-.192.227-.301.516-.301.813v59.858c0 .692.558 1.25 1.25 1.25h44.078c.687 0 1.25-.558 1.25-1.25V66.308c0-.296-.106-.585-.301-.812zm-2.2 13.004H76.915c-.692 0-1.25.559-1.25 1.25v28c0 .688.558 1.25 1.25 1.25h24.875v15.918H60.21V66.77l10.98-12.863h19.62L101.79 66.77V78.5zM84.419 95a1.251 1.251 0 0 1 0-2.5h4.832v-4.832a1.251 1.251 0 0 1 2.5 0V92.5h4.832a1.251 1.251 0 0 1 0 2.5H91.75v4.832a1.251 1.251 0 0 1-2.5 0V95h-4.832z"/>
    </g>
</svg>
