<svg xmlns="http://www.w3.org/2000/svg" width="162" height="162" viewBox="0 0 162 162">
    <g fill="none" fill-rule="evenodd">
        <circle cx="81" cy="81" r="81" fill="#4B9EA1"/>
        <g fill="#FFF" fill-rule="nonzero">
            <path d="M118.82 64.41h-1.996c-6.664.027-12.047 5.441-12.043 12.102v2.293l-3.3 6.352a1.573 1.573 0 0 0 .003 1.527c.27.473.762.773 1.305.797h2.992v5.074h-.004a4.89 4.89 0 0 0 4.758 4.598h.23v4.285a1.996 1.996 0 0 0 1.992 1.996h10.97a1.996 1.996 0 0 0 1.992-1.996v-9.84a13.135 13.135 0 0 0 6.28-11.195v-2.82c-.01-7.274-5.905-13.168-13.18-13.172l.001-.001zM59.219 78.707v-2.195a12.082 12.082 0 0 0-3.535-8.551 12.084 12.084 0 0 0-8.551-3.55h-1.992c-7.258.026-13.13 5.913-13.141 13.171v2.832-.004a12.883 12.883 0 0 0 5.98 11.188v9.84c0 .531.211 1.04.586 1.41a1.99 1.99 0 0 0 1.41.586h12.961a1.996 1.996 0 0 0 1.993-1.996V97.45c2.543 0 3.93-2.493 3.988-4.985v-4.984h3.422c.558 0 1.078-.3 1.355-.79.301-.503.301-1.128 0-1.632l-4.476-6.352zm-1.297 6.781a.995.995 0 0 0-.996.996v5.98c0 1.216-.59 2.993-1.992 2.993h-1a.995.995 0 0 0-.996.996v4.984H39.977V91.031c0-.367-.2-.703-.52-.878a10.874 10.874 0 0 1-5.465-9.743v-2.828c.012-6.168 5.012-11.168 11.18-11.18h1.993c5.57.02 10.07 4.543 10.059 10.11v2.534c.003.204.066.403.18.567l4.109 5.875h-3.59zM102.391 60.074c.254-.316.293-.754.098-1.11l-3.52-6.331v.004a12.898 12.898 0 0 0-12.235-17c-2.734 0-5.398.866-7.605 2.48H79c-4.578 0-8.8 2.472-11.039 6.465a12.648 12.648 0 0 0 .242 12.789l-2.226 5.183a.996.996 0 0 0 .207 1.094.993.993 0 0 0 1.09.223l5.285-2.172a12.641 12.641 0 0 0 13.28-.301c.294.016.59.016.887 0 3-.008 5.903-1.067 8.203-2.992l6.391 1.914c.375.14.793.039 1.07-.246h.001zM81.77 51.59h9.973a.995.995 0 1 1 0 1.992H81.77a.995.995 0 1 1 0-1.992zm-.996-2.993c0-.55.445-.996.996-.996h9.973a.995.995 0 1 1 0 1.992H81.77a.995.995 0 0 1-.996-.996zm10.969-2.992H81.77a.995.995 0 1 1 0-1.992h9.973a.995.995 0 1 1 0 1.992zM73.188 59.703a1.007 1.007 0 0 0-.918-.09l-3.488 1.438 1.464-3.39a1.001 1.001 0 0 0-.09-.997 10.652 10.652 0 0 1-1-9.902 10.654 10.654 0 0 1 7.61-6.41 12.904 12.904 0 0 0 5.883 20.43 10.649 10.649 0 0 1-9.461-1.067v-.012zM92.816 98.449h-2.988v-1a.999.999 0 0 0-1.996 0v.996l-1.993.004v-1a.999.999 0 0 0-1.996 0v.996l-1.992.004v-1a.999.999 0 0 0-1.996 0v.996l-1.992.004v-1a.999.999 0 0 0-1.996 0v.996l-2.989.004c-1.101 0-1.996.89-1.996 1.992v23.929a1.996 1.996 0 0 0 1.996 1.993h19.938a1.995 1.995 0 0 0 1.997-1.993v-23.93c0-.53-.211-1.039-.59-1.414a1.98 1.98 0 0 0-1.406-.578l-.001.001zm-2.988 18.941h-13.88c-.55 0-1-.445-1-.996 0-.55.45-.996 1-.996h13.88a.995.995 0 1 1 0 1.992zm.996 2.992a.997.997 0 0 1-.996.996H75.867a.995.995 0 1 1 0-1.992h13.96a.993.993 0 0 1 .997.996zM74.87 108.417c0-.55.445-.996.996-.996h9.973a.995.995 0 1 1 0 1.992h-9.973a.995.995 0 0 1-.996-.996zm14.957 4.985h-13.88c-.55 0-1-.446-1-.996 0-.551.45-.997 1-.997h13.88a.995.995 0 1 1 0 1.993zm-16.95-12.961h2.993-.004a.999.999 0 0 0 1.996 0h1.992a.998.998 0 0 0 1.996 0h1.993a.999.999 0 0 0 1.996 0h1.992a.999.999 0 0 0 1.996 0h2.992v2.992H72.88l-.001-2.992z"/>
        </g>
    </g>
</svg>
