<?xml version="1.0" encoding="utf-8"?>
<!-- Generator: Adobe Illustrator 21.1.0, SVG Export Plug-In . SVG Version: 6.00 Build 0)  -->
<svg version="1.1" id="Layer_1" xmlns="http://www.w3.org/2000/svg" xmlns:xlink="http://www.w3.org/1999/xlink" x="0px" y="0px"
	 viewBox="0 0 162 162" style="enable-background:new 0 0 162 162;" xml:space="preserve">
<style type="text/css">
	.st0{fill:#5DC177;}
	.st1{fill:#FFFFFF;}
</style>
<circle class="st0" cx="81" cy="81" r="81"/>
<g>
	<path class="st1" d="M120.5,92.7l2.7-1.4c0.6-0.3,1.4-0.1,1.7,0.5c0.3,0.6,0.1,1.4-0.5,1.7l-2.7,1.4c-0.2,0.1-0.4,0.1-0.6,0.1
		c-0.5,0-0.9-0.2-1.1-0.7C119.6,93.8,119.9,93.1,120.5,92.7z"/>
	<path class="st1" d="M113.9,96.2l2.7-1.4c0.6-0.3,1.4-0.1,1.7,0.5c0.3,0.6,0.1,1.4-0.5,1.7l-2.7,1.4c-0.2,0.1-0.4,0.1-0.6,0.1
		c-0.5,0-0.9-0.2-1.1-0.7C113.1,97.3,113.3,96.5,113.9,96.2z"/>
	<path class="st1" d="M107.4,99.6l2.7-1.4c0.6-0.3,1.4-0.1,1.7,0.5c0.3,0.6,0.1,1.4-0.5,1.7l-2.7,1.4c-0.2,0.1-0.4,0.1-0.6,0.1
		c-0.5,0-0.9-0.2-1.1-0.7C106.5,100.7,106.8,100,107.4,99.6z"/>
	<path class="st1" d="M100.8,103.1l2.7-1.4c0.6-0.3,1.4-0.1,1.7,0.5c0.3,0.6,0.1,1.4-0.5,1.7l-2.7,1.4c-0.2,0.1-0.4,0.1-0.6,0.1
		c-0.5,0-0.9-0.2-1.1-0.7C100,104.2,100.2,103.4,100.8,103.1z"/>
	<path class="st1" d="M77.9,112.2c-0.4,1.4-0.3,2.8,0.4,4.1c0.7,1.3,1.9,2.2,3.3,2.6c0.5,0.2,1.1,0.2,1.6,0.2c0.9,0,1.8-0.2,2.6-0.7
		c0.7-0.3,1.2-0.8,1.7-1.4c0.7-0.1,1.4-0.3,2.1-0.6c1.3-0.7,2.2-1.8,2.7-3.2c0.4-1.4,0.3-2.8-0.4-4.1c-0.7-1.3-1.9-2.2-3.3-2.6
		c-1.4-0.4-2.9-0.3-4.2,0.4c-0.7,0.3-1.2,0.8-1.7,1.3c-0.7,0.1-1.4,0.3-2.1,0.6C79.3,109.7,78.4,110.9,77.9,112.2z M84.4,113.2
		c-0.4-0.7-0.4-1.5-0.2-2.2c0.7,0.2,1.4,0.7,1.7,1.4c0.4,0.7,0.4,1.5,0.2,2.2C85.4,114.4,84.7,113.9,84.4,113.2z M88.7,114.1
		c0.1-1-0.1-2-0.6-2.9c-0.5-0.9-1.2-1.6-2.1-2.1c0.3-0.1,0.7-0.2,1-0.2c0.3,0,0.6,0,0.9,0.1c0.8,0.2,1.4,0.7,1.8,1.4
		c0.4,0.7,0.5,1.5,0.2,2.2C89.6,113.3,89.3,113.8,88.7,114.1z M80.4,113c0.2-0.6,0.6-1.1,1.1-1.5c-0.1,1,0.1,2,0.6,2.9
		c0.5,0.9,1.3,1.6,2.2,2.1c-0.6,0.2-1.3,0.3-1.9,0.1c-0.8-0.2-1.4-0.7-1.8-1.4C80.2,114.5,80.2,113.7,80.4,113z"/>
	<path class="st1" d="M26.1,90.1c-0.1,0.3-0.1,0.6,0,1c0.1,0.3,0.4,0.6,0.7,0.7l36.7,15.8c0,0,0,0,0.1,0l9.8,17.8
		c1.3,2.3,3.8,3.7,6.3,3.7c1.2,0,2.3-0.3,3.4-0.8l49.4-26.1c3.5-1.8,4.8-6.1,2.9-9.5l-14.4-26c-0.9-1.6-2.4-2.8-4.3-3.4
		c-1.8-0.5-3.8-0.3-5.5,0.5L87.6,76.2l11.6-25.6c0.1-0.3,0.1-0.6,0-1c-0.1-0.3-0.4-0.6-0.7-0.7L54.6,30.1c-0.6-0.3-1.4,0-1.7,0.6
		L26.1,90.1z M118.8,67.8l0.3,0.5L61.5,98.6l-0.3-0.5C60,96,60.8,93.2,63.1,92l49.4-26.1c1.1-0.6,2.3-0.7,3.5-0.3
		C117.2,65.9,118.2,66.7,118.8,67.8z M62.7,100.8l57.6-30.4l2.6,4.7l-57.6,30.4L62.7,100.8z M66.5,107.7l57.6-30.4l9.1,16.5
		c1.2,2.2,0.4,4.9-1.9,6.1L81.9,126c-2.2,1.2-5.1,0.4-6.3-1.8L66.5,107.7z M29,90l25.8-57.1l41.6,17.9L84,78.2l-12.6,6.6l-28-12.1
		c-0.6-0.3-1.4,0-1.7,0.6c-0.3,0.6,0,1.4,0.7,1.6l26.2,11.3l-3.9,2.1L41,78.2c-0.6-0.3-1.4,0-1.7,0.6c-0.3,0.6,0,1.4,0.7,1.6
		l21.8,9.4c-3.4,1.9-4.7,6.1-2.8,9.5l2.6,4.7L29,90z"/>
	<path class="st1" d="M80.2,62.5c-0.2,0.5-0.7,0.7-1.2,0.7c-0.2,0-0.3,0-0.5-0.1c-0.6-0.3-0.9-1-0.7-1.6l1.7-3.7l-3.8-1.6
		c-0.6-0.3-0.9-1-0.7-1.6c0.3-0.6,1-0.9,1.7-0.6l3.8,1.6l1.7-3.7c0.3-0.6,1-0.9,1.7-0.6c0.6,0.3,0.9,1,0.7,1.6l-1.7,3.7l3.8,1.6
		c0.6,0.3,0.9,1,0.7,1.6c-0.2,0.5-0.7,0.7-1.2,0.7c-0.2,0-0.3,0-0.5-0.1l-3.8-1.6L80.2,62.5z"/>
	<path class="st1" d="M80.7,71c-0.2,0.5-0.7,0.7-1.2,0.7c-0.2,0-0.4,0-0.5-0.1L49.8,58.7c-0.6-0.3-0.9-1-0.6-1.6
		c0.3-0.6,1-0.9,1.7-0.6l29.3,12.9C80.7,69.6,81,70.4,80.7,71z"/>
	<path class="st1" d="M78.3,76.1c-0.2,0.5-0.7,0.7-1.2,0.7c-0.2,0-0.3,0-0.5-0.1L47.3,64.1c-0.6-0.3-0.9-1-0.7-1.6
		c0.3-0.6,1-0.9,1.7-0.6l29.3,12.6C78.3,74.8,78.6,75.5,78.3,76.1z"/>
	<path class="st1" d="M75.5,81.4c-0.2,0.5-0.7,0.7-1.2,0.7c-0.2,0-0.3,0-0.5-0.1l-29-12.5c-0.6-0.3-0.9-1-0.7-1.6
		c0.3-0.6,1-0.9,1.7-0.6l29,12.5C75.5,80.1,75.8,80.8,75.5,81.4z"/>
</g>
</svg>
