<svg xmlns="http://www.w3.org/2000/svg" width="162" height="162" viewBox="0 0 162 162">
    <g fill="none" fill-rule="evenodd">
        <circle cx="81" cy="81" r="81" fill="#AE5E72"/>
        <g fill="#FFF" fill-rule="nonzero">
            <path d="M81 124a2.417 2.417 0 0 1-1.692-.705L55.57 99.66 42.06 86.03a28.02 28.02 0 0 1-8.405-20.068 28.038 28.038 0 0 1 8.49-20.03 27.137 27.137 0 0 1 20.4-7.886A29.995 29.995 0 0 1 81 45.311a29.967 29.967 0 0 1 21.324-7.228 27.057 27.057 0 0 1 19.899 10.522c8.83 11.347 7.593 27.756-2.87 38.222l-36.66 36.445A2.412 2.412 0 0 1 81 124zM58.97 96.276L81 118.205l34.955-34.816a24.178 24.178 0 0 0 7.27-15.477 24.171 24.171 0 0 0-4.795-16.404 22.31 22.31 0 0 0-16.407-8.67 25.254 25.254 0 0 0-19.317 7.406c-.455.447-1.064.7-1.702.7a2.404 2.404 0 0 1-1.697-.7 25.268 25.268 0 0 0-16.969-7.466 22.447 22.447 0 0 0-16.8 6.486 23.275 23.275 0 0 0-7.06 16.685c0 6.285 2.546 12.3 7.06 16.69L58.97 96.276z"/>
            <path d="M69.586 88.167c-.91 0-1.74-.514-2.147-1.325l-6.31-12.518-1.884 3.093a2.403 2.403 0 0 1-2.053 1.195H39a2.393 2.393 0 0 1-2.4-2.39 2.393 2.393 0 0 1 2.4-2.388h16.8l3.431-5.697a2.404 2.404 0 0 1 4.2.154l6 12.052 8.916-18.85v.005a2.41 2.41 0 0 1 1.969-1.372 2.393 2.393 0 0 1 2.17 1.013l9 12.696h9.914c1.326 0 2.4 1.068 2.4 2.388a2.393 2.393 0 0 1-2.4 2.39H90.239a2.406 2.406 0 0 1-1.969-1.018L81 67.265l-9.253 19.578a2.398 2.398 0 0 1-2.133 1.325l-.028-.001zM108.97 78.611h-.37a2.393 2.393 0 0 1-2.4-2.389 2.393 2.393 0 0 1 2.4-2.389h.37c1.327 0 2.4 1.069 2.4 2.39a2.393 2.393 0 0 1-2.4 2.388zM123 78.611h-6a2.393 2.393 0 0 1-2.4-2.389 2.393 2.393 0 0 1 2.4-2.389h6c1.327 0 2.4 1.069 2.4 2.39a2.393 2.393 0 0 1-2.4 2.388z"/>
        </g>
    </g>
</svg>
