<svg xmlns="http://www.w3.org/2000/svg" width="152" height="41" viewBox="0 0 152 41">
    <g fill="none" fill-rule="evenodd">
        <g transform="translate(47 -3)">
            <path fill="#D44F4F" d="M18.591 33.101c-2.968 1.022-5.695 4.265-7.652 7.192-1.118-5.244-.142-6.93.1-7.246l2.064-.71-5.72-16.611 9.342-3.217 5.72 16.61 2.064-.71c.385.101 2.192.827 4.54 5.649-3.345-1.102-7.49-1.98-10.458-.957z"/>
            <path fill="#33445C" fill-rule="nonzero" d="M24.646 25.135L20.28 12.454C16.64 1.886 10.4 4.035 10.4 4.035S4.16 6.184 7.8 16.751l4.366 12.682s-4.16 1.432.207 14.113c0 0 3.22-6.723 6.862-9.207.432 1.227 1.41 2 2.196 1.729.787-.271 1.081-1.484.667-2.715 4.399-.285 11.076 3.03 11.076 3.03-4.366-12.68-8.527-11.248-8.527-11.248zM11.13 6.151c.556-.142 3.664-.624 6.233 4.944l-8.1 2.789C7.858 7.915 10.604 6.38 11.129 6.15zm8.732 25.36c-2.644.91-5.072 3.798-6.815 6.406-.996-4.672-.126-6.172.088-6.454l1.84-.633-5.095-14.795 8.32-2.865 5.095 14.795 1.839-.633c.342.09 1.952.736 4.043 5.03-2.98-.98-6.67-1.762-9.315-.851z"/>
            <circle cx="18" cy="25.454" r="3" stroke="#33445C" stroke-width="2"/>
        </g>
        <path fill="#DDE3E9" d="M119.068 19.283a4.5 4.5 0 0 1 7.094-4.412 4.002 4.002 0 0 1 4.6-2.799A5.998 5.998 0 0 1 136 9c1.261 0 2.431.39 3.397 1.054a8.5 8.5 0 0 1 8.448 14.753 3.997 3.997 0 0 1-2.85 1.193h-22.99A4.005 4.005 0 0 1 118 22a3.98 3.98 0 0 1 1.068-2.717zM.88 31.467a3.706 3.706 0 0 1 5.842-3.632 3.296 3.296 0 0 1 3.787-2.305 4.94 4.94 0 0 1 7.112-1.662 7 7 0 0 1 6.961 12.147 3.274 3.274 0 0 1-2.338.985H3.285A3.292 3.292 0 0 1 .88 31.467zM91.44 10.234a1.853 1.853 0 0 1 2.921-1.816 1.648 1.648 0 0 1 1.894-1.153 2.47 2.47 0 0 1 3.556-.831 3.5 3.5 0 0 1 3.48 6.074 1.637 1.637 0 0 1-1.169.492h-9.48A1.64 1.64 0 0 1 91 11.353c0-.432.167-.825.44-1.12z"/>
    </g>
</svg>
